<?xml version="1.0" encoding="utf-8"?>
<!-- Generator: Adobe Illustrator 19.2.1, SVG Export Plug-In . SVG Version: 6.00 Build 0)  -->
<svg version="1.1" id="Layer_1" xmlns="http://www.w3.org/2000/svg" xmlns:xlink="http://www.w3.org/1999/xlink" x="0px" y="0px"
	 viewBox="0 0 100 100" style="enable-background:new 0 0 100 100;" xml:space="preserve">
<style type="text/css">
	.st0{fill:#0B83C8;}
</style>
<g>
	<path class="st0" d="M10.96675,85.44235c1.51889,1.5189,3.51398,2.27874,5.50881,2.27874
		c1.99508,0,3.99017-0.75984,5.50883-2.27874L32.0682,75.35876c3.03733-3.03757,3.03733-7.98009,0-11.01765l-0.86371-0.86448
		l10.90524-10.90424L52.57185,63.0345c5.68583,5.68584,13.15444,8.52888,20.62405,8.52888
		c7.4686,0,14.93722-2.84304,20.62404-8.52888c5.57342-5.57415,5.57342-14.64278,0-20.21721L66.28381,15.28216
		c-1.93649-1.93623-4.51139-3.00325-7.25053-3.00325c-2.7394,0-5.3133,1.06702-7.25055,3.00325L35.55167,31.51324
		c-3.99793,3.99793-3.99793,10.50317,0,14.5011l1.60077,1.60101L26.24745,58.52034l-0.86373-0.86448
		c-3.03731-3.03757-7.98009-3.03757-11.0174,0L4.28149,67.73945C2.81065,69.2113,2,71.16831,2,73.24928
		c0,2.0802,0.81065,4.03698,2.28149,5.50883L10.96675,85.44235z M40.50871,36.47053l16.23106-16.23108
		c0.61237-0.6131,1.42703-0.9506,2.29351-0.9506s1.68089,0.3375,2.29326,0.9506l27.53612,27.53513
		c2.84003,2.84104,2.84003,7.46284,0,10.30289c-4.18469,4.18544-9.7491,6.48946-15.66676,6.48946
		c-5.91866,0-11.48206-2.30502-15.66776-6.48946L40.50871,41.05804C39.24442,39.7925,39.24442,37.73506,40.50871,36.47053z
		 M26.24745,68.43392l0.86448,0.86348c0.30418,0.30518,0.30418,0.7999,0,1.10507L17.0281,80.48606
		c-0.30493,0.30418-0.79988,0.30418-1.10507,0l-0.86348-0.86448L26.24745,68.43392z M9.23878,72.69673l10.08358-10.08358
		c0.30418-0.30517,0.80014-0.30517,1.10432,0l0.86448,0.86348l-11.1889,11.18866l-0.86348-0.86448
		c-0.18877-0.18877-0.22882-0.40484-0.22882-0.55254C9.00996,73.10157,9.05002,72.8855,9.23878,72.69673z"/>
	<path class="st0" d="M68.45091,41.52546c0.68447,0.68471,1.58124,1.02696,2.47902,1.02696
		c0.89677,0,1.79355-0.34225,2.47827-1.02696c1.36894-1.36896,1.36894-3.5881,0-4.95706L61.5113,24.67252
		c-1.36819-1.3692-3.5881-1.3692-4.95629,0c-1.3692,1.36818-1.3692,3.5881,0,4.95628L68.45091,41.52546z"/>
	<path class="st0" d="M61.653,48.32335c0.68472,0.68449,1.5815,1.02672,2.47827,1.02672c0.89777,0,1.79455-0.34224,2.47902-1.02672
		c1.36819-1.36918,1.36819-3.5881,0-4.95728l-11.89665-11.8959c-1.36819-1.36894-3.5881-1.36894-4.95629,0
		c-1.3692,1.3692-1.3692,3.5881,0,4.95729L61.653,48.32335z"/>
</g>
</svg>
