<svg xmlns="http://www.w3.org/2000/svg" viewBox="0 0 100 100"><defs><style>.a{fill:#0b83c8;}</style></defs><title>it</title><path class="a" d="M70.61962,3.88341H29.38039a6.98512,6.98512,0,0,0-6.97774,6.97775V89.14011a6.98485,6.98485,0,0,0,6.97774,6.97649H70.61962a6.98485,6.98485,0,0,0,6.97774-6.97649V10.86116a6.98511,6.98511,0,0,0-6.97774-6.97775h0ZM52.76726,88.867a0.98881,0.98881,0,0,1-.98849.98848H48.22122a0.9888,0.9888,0,0,1-.98848-0.98848V85.70517a0.98921,0.98921,0,0,1,.419-0.80722l1.77877-1.25317a0.98823,0.98823,0,0,1,1.13777,0l1.78,1.25317a0.988,0.988,0,0,1,.41772.80722V88.867h0.00126Zm16.52925-9.58821h-38.593V14.49584h38.593V79.27875Zm0,0"/></svg>