<svg xmlns="http://www.w3.org/2000/svg" viewBox="0 0 100 100"><defs><style>.a{fill:#0b83c8;}</style></defs><title>rtv</title><path class="a" d="M90.68582,6.68464H9.31418A7.7131,7.7131,0,0,0,1.60983,14.389V68.45675A7.7137,7.7137,0,0,0,9.31418,76.1611H40.01442L32.63979,83.895a4.30914,4.30914,0,0,0-.79831,2.497v2.62039a4.30246,4.30246,0,0,0,4.30171,4.303H63.85555a4.30274,4.30274,0,0,0,4.303-4.303V86.392a4.30405,4.30405,0,0,0-.79831-2.497L59.98558,76.1611H90.68582a7.7135,7.7135,0,0,0,7.70435-7.70435V14.389a7.71208,7.71208,0,0,0-7.70435-7.70435h0ZM89.78549,67.55641h-79.571V15.28933h79.571V67.55641Zm0,0"/></svg>