<svg xmlns="http://www.w3.org/2000/svg" viewBox="0 0 100 100"><defs><style>.a{fill:#0b83c8;}</style></defs><title>rtv</title><path class="a" d="M91.533,57.67545H85.14228V35.488A14.587,14.587,0,1,0,63.72513,15.71425H41.46828V11.03606a1.31625,1.31625,0,0,0-1.31635-1.31635H11.89233A1.31625,1.31625,0,0,0,10.576,11.03606v9.41987a1.31625,1.31625,0,0,0,1.31635,1.31635H22.565v6.78717H11.89233A1.31625,1.31625,0,0,0,10.576,29.8758v9.41987A1.31625,1.31625,0,0,0,11.89233,40.612h28.2596a1.31625,1.31625,0,0,0,1.31635-1.31635V34.61748H63.71767q0.38526,0.45738.80832,0.87774V57.67545H8.467A1.31625,1.31625,0,0,0,7.15065,58.9918v10.276A1.31625,1.31625,0,0,0,8.467,70.58415h2.96539V88.96394a1.31625,1.31625,0,0,0,1.31635,1.31635H87.25127a1.31625,1.31625,0,0,0,1.31635-1.31635V70.58415H91.533a1.31625,1.31625,0,0,0,1.31635-1.31635V58.9918A1.31625,1.31625,0,0,0,91.533,57.67545ZM26.45033,16.57039H15.77788v-1.649H36.26665v20.489H15.77788V33.76108H26.45033a1.31625,1.31625,0,0,0,1.31635-1.31635v-14.558A1.31625,1.31625,0,0,0,26.45033,16.57039Zm61.19713,46.3067v2.50543H12.35228V62.87708H87.64746ZM67.13375,19.80675l0.00771-.01106A9.38335,9.38335,0,1,1,80.79859,32.40977a9.36849,9.36849,0,0,1-11.9289,0l-0.03239-.02622a8.34576,8.34576,0,0,1-1.68709-1.8344l-0.02442-.03522A9.35351,9.35351,0,0,1,67.13375,19.80675Zm2.59413,19.03539a14.72852,14.72852,0,0,0,10.2125,0v11.126H69.72788v-11.126ZM79.94039,55.17v2.50543H69.72788V55.17h10.2125ZM60.87029,29.41585H48.31921v-8.5H60.87029A14.74476,14.74476,0,0,0,60.87029,29.41585Zm-17.753-8.5v8.5h-1.649v-8.5h1.649Zm27.4032,55.6628v8.5h-41.041v-8.5h41.041Zm3.88554-5.20189H25.59393a1.31625,1.31625,0,0,0-1.31635,1.31635V85.07865H16.634V70.58415H83.36572v14.4945H75.72241V72.69314A1.31625,1.31625,0,0,0,74.40607,71.37679Z"/><path class="a" d="M70.25571,25.16574a4.5783,4.5783,0,1,1,4.57843,4.57843H74.7025v2.83221h0.13163a7.41063,7.41063,0,1,0-7.41063-7.41063v0.13163h2.83221V25.16574Z"/></svg>