<svg xmlns="http://www.w3.org/2000/svg" viewBox="0 0 640 200"><defs><style>.a{fill:#58595b;fill-rule:evenodd;}</style></defs><title>loewe</title><polygon class="a" points="51.982 27.011 85.138 27.011 85.138 137.956 114.542 137.956 114.542 172.988 51.982 172.988 51.982 27.011 51.982 27.011"/><path class="a" d="M115.778,100c0-38.371,15.434-77.16,55.472-77.16S226.722,61.212,226.722,100c0,39-16.058,77.158-55.472,77.158-40.039,0-55.472-39-55.472-77.158h0Zm76.952,0c0-21.271-6.881-42.125-21.48-42.125S149.773,78.73,149.773,100s6.881,42.124,21.478,42.124S192.73,121.27,192.73,100h0Z"/><polygon class="a" points="238.172 27.011 302.611 27.011 302.611 62.047 271.329 62.047 271.329 82.483 299.692 82.483 299.692 114.597 271.329 114.597 271.329 137.956 302.611 137.956 302.611 172.988 238.172 172.988 238.172 27.011 238.172 27.011"/><polygon class="a" points="373.729 172.988 341.195 172.988 306.786 27.011 342.447 27.011 356.627 104.587 369.348 27.011 404.383 27.011 417.104 104.587 431.491 27.011 466.943 27.011 432.536 172.988 400.003 172.988 386.865 92.077 373.729 172.988 373.729 172.988"/><polygon class="a" points="474.418 27.011 538.856 27.011 538.856 62.047 507.575 62.047 507.575 82.483 535.937 82.483 535.937 114.597 507.575 114.597 507.575 137.956 538.856 137.956 538.856 172.988 474.418 172.988 474.418 27.011 474.418 27.011"/><polygon class="a" points="588.018 172.717 588.018 137.693 552.813 137.693 552.813 172.717 588.018 172.717 588.018 172.717"/></svg>