<svg xmlns="http://www.w3.org/2000/svg" viewBox="0 0 640 200"><defs><style>.a{fill:#58595b;fill-rule:evenodd;}</style></defs><title>panasonic</title><path class="a" d="M154.8,80.026h23.453l1.031,7.732c1.8-6.185,13.66-10.566,20.876-10.566,16.752,0,23.453,10.309,23.453,28.35v38.916h-26.03V109.664c0-6.958-1.289-12.112-8.247-12.112-6.443,0-9.794,6.959-9.794,11.855v35.051H154.8V80.026h0Z"/><path class="a" d="M3,144.715V53.481H46.555c26.031,0,37.886,12.629,37.886,30.927C84.44,104,73.616,117.4,46.555,117.4H31.865v27.319H3ZM43.463,95.232c6.959,0,14.433-1.546,14.433-9.535,0-8.247-7.989-10.051-14.433-10.051h-11.6V95.232h11.6Z"/><path class="a" d="M441.387,80.026H465.1l0.773,7.732c2.062-6.185,13.917-10.566,21.134-10.566,16.494,0,23.453,10.309,23.453,28.35v39.174h-26.03V109.664c0-6.958-1.546-12.112-8.5-12.112-6.186,0-9.537,6.959-9.537,11.855v35.309h-25V80.026h0Z"/><path class="a" d="M321.8,121.52c0,2.577,1.289,6.443,2.836,7.732a11.98,11.98,0,0,0,6.958,2.577c4.639,0,8.248-1.289,8.248-5.67,0.258-10.824-39.174-1.289-39.174-27.061,0-18.04,13.916-22.164,28.349-22.164s34.277,2.835,33.5,22.422H340.618a8.026,8.026,0,0,0-1.8-4.639c-1.546-1.8-3.35-2.577-6.7-2.835-4.382-.258-8.506.515-8.506,3.865,0.258,10.052,40.721,3.351,40.721,27.061,0,16.494-11.6,23.968-34.02,23.968-14.174-.258-31.958-7.474-31.958-25.257H321.8Z"/><path class="a" d="M588.548,105.026a8.714,8.714,0,0,0-2.062-6.186c-1.032-1.288-3.351-4.124-6.959-4.124-9.793,0-12.371,9.536-12.371,17.268,0,9.02,4.124,16.494,11.856,16.494,6.7,0,10.051-6.186,10.051-11.34h22.68c0.515,13.4-8.763,29.381-33.761,29.381-20.361,0-34.793-14.175-34.793-34.792,0-25,18.557-34.536,34.536-34.536,21.648,0,34.019,13.144,33.762,27.835H588.548Z"/><path class="a" d="M127.223,144.715l-2.578-5.412c-4.9,4.124-10.051,6.443-18.3,6.443-7.989-.258-23.711-1.288-23.711-18.557,0-28.349,42.266-15.462,42.266-29.38,0-4.639-5.154-4.382-7.989-4.382-5.154,0-8.5,1.031-9.278,8.763H85.987c0-13.4,4.124-24.741,32.474-24.741,27.576,0,30.41,14.433,30.41,28.608v29.381c0,3.865.258,5.669,2.836,8.5v0.515l-24.484.258h0Zm-2.063-29.638c-8.763,4.123-19.844,3.865-20.1,10.309,0,4.124,2.319,6.186,7.474,6.186,8.5,0,13.143-8.762,12.628-16.494h0Zm147.418,29.638L270,139.3c-4.9,4.124-10.31,6.443-18.3,6.443-8.247-.258-23.968-1.288-23.968-18.557,0-28.349,42.267-15.462,42.525-29.38,0-4.639-5.412-4.382-7.989-4.382-5.412,0-8.5,1.031-9.278,8.763H231.343c0-13.4,3.865-24.741,32.473-24.741,27.318,0,30.154,14.433,30.154,28.608v29.381c0,3.865.258,5.669,2.834,8.5v0.515l-24.226.258h0Zm-2.062-29.638c-8.763,4.123-20.1,3.865-20.1,10.309,0,4.124,2.062,6.186,7.474,6.186,8.247,0,13.144-8.762,12.629-16.494h0Z"/><path class="a" d="M539.065,144.715V80.026H515.1v64.689h23.968ZM515.1,71.779h23.968V53.223H515.1V71.779h0Z"/><path class="a" d="M402.729,77.707c21.391,0,34.536,14.948,34.536,34.536,0,19.844-13.144,34.534-34.536,34.534s-34.792-14.69-34.792-34.534c0-19.588,13.4-34.536,34.792-34.536h0Zm-11.339,34.536c0,7.989,2.577,17.783,11.339,18.04,8.763,0,11.083-10.051,11.083-18.04,0-7.732-2.319-17.784-11.083-17.784s-11.082,10.052-11.339,17.784h0Z"/><path class="a" d="M626.949,132.087c1.546,0,3.865.258,3.865-1.8,0-1.8-1.547-2.062-2.835-2.062h-3.093v3.865h2.063Zm5.154,6.186h-1.546l-3.092-5.155h-2.578v5.155H623.6V127.189h4.639c2.072,0,3.912.622,3.912,3.093,0,2.061-1.335,2.835-3.4,2.835l3.35,5.155h0Zm3.738-5.284a8.635,8.635,0,1,0-8.5,8.5,8.638,8.638,0,0,0,8.5-8.5h0Zm-18.427-.129a9.793,9.793,0,1,1,9.793,9.793,9.789,9.789,0,0,1-9.793-9.793h0Z"/></svg>