<svg xmlns="http://www.w3.org/2000/svg" viewBox="0 0 640 200"><defs><style>.a,.b{fill:#58595b;}.a{fill-rule:evenodd;}</style></defs><title>sencor</title><path class="a" d="M275.042,137.163c8.351,11.694,17.259,11.971,29.231,11.971h8.352V50.866H293.973V122.41L251.1,62.56c-3.9-5.29-10.3-11.694-24.219-11.694H216.025v98.268h18.652v-68.2l40.365,56.231h0Z"/><path class="a" d="M326.82,99.861c0,44.819,21.435,49.273,34.241,49.273H423.7V131.317H378.878c-8.352,0-20.323.836-20.323-31.456-0.278-34.519,10.579-31.178,18.93-31.178h45.657l-9.188-17.817h-56.79c-12.805,0-30.343,4.176-30.343,49h0Z"/><path class="a" d="M105.228,99.861c0,44.819,21.436,49.273,34.241,49.273h62.636V131.317h-44.82c-8.351,0-20.322.836-20.322-31.456-0.278-34.519,10.579-31.178,18.931-31.178H201.55l-9.186-17.817H135.573c-12.806,0-30.344,4.176-30.344,49h0Z"/><polygon class="a" points="156.172 109.881 145.872 90.119 198.209 90.119 198.209 109.881 156.172 109.881 156.172 109.881"/><path class="a" d="M592.814,94.857a13.09,13.09,0,1,0,0-26.18h-25.75v80.457h-24.22V50.866h68.761c14.474,0,22.269,15.311,22.269,24.777s-3.34,25.054-23.105,28.95L640,149.134H614.389L578.756,94.852l14.058,0.005h0Z"/><path class="a" d="M68.134,149.084c16.557,0,26.916-13.421,26.916-29.978S84.692,89.129,68.134,89.129H40.227a10.236,10.236,0,1,1,0-20.472l53.867,0.074L84.907,50.916l-58.878.025C10.592,50.94.3,63.455,0.3,78.894s10.287,27.951,25.725,27.951l26.238-.082a12.347,12.347,0,0,1,0,24.687H0v17.6l68.134,0.039h0Z"/><path class="b" d="M480.627,49.509A50.491,50.491,0,1,0,531.117,100,50.492,50.492,0,0,0,480.627,49.509Zm0,79.705A29.214,29.214,0,1,1,509.841,100,29.215,29.215,0,0,1,480.626,129.214Z"/></svg>