<svg xmlns="http://www.w3.org/2000/svg" viewBox="0 0 640 200"><defs><style>.a{fill:#58595b;}</style></defs><title>sharp</title><path class="a" d="M0.6,133.243l11.15-21.625c3.046,1.295,6,2.585,8.982,3.812,12.179,5.015,24.554,9.43,37.506,12.037A100.578,100.578,0,0,0,83.4,129.243a16.287,16.287,0,0,0,5.109-1.178c4.423-1.772,5.358-6.821,1.976-10.181a12.971,12.971,0,0,0-7.06-3.536C75.714,113.029,68,111.5,60.221,110.795c-12.743-1.16-25.283-3.052-37.343-7.464-2.3-.84-4.55-1.818-6.76-2.866C8.672,96.938,4.364,90.775,2.062,83.119a11.742,11.742,0,0,1,1.765-10.1c5.687-8.506,13.26-14.281,23.559-16.21a195.459,195.459,0,0,1,44.8-2.878c11.31,0.5,22.482,2.345,33.6,4.407,5.175,0.96,10.279,2.311,15.406,3.522a20.836,20.836,0,0,1,2.47.928l-9.352,20.554c-3.9-1.243-7.678-2.5-11.486-3.649-10.093-3.05-20.173-6.183-30.6-7.93a89.22,89.22,0,0,0-25.19-1.11A25.312,25.312,0,0,0,42.7,71.678a4.43,4.43,0,0,0-3.181,4.161c-0.243,2.036.941,3.145,2.408,4.16,4.007,2.772,8.661,3.4,13.309,4.1,12.645,1.89,25.344,3.48,37.747,6.731,8.486,2.225,16.778,4.937,24.1,9.952,4.321,2.959,8.037,6.578,9.352,11.8,2.285,9.068-.667,16.631-7.57,22.667-5.363,4.69-11.935,6.929-18.747,8.483a113.511,113.511,0,0,1-30.078,2.444c-8.263-.343-16.519-1-24.756-1.76a152.623,152.623,0,0,1-28.894-6.024c-4.8-1.407-9.537-3.038-14.3-4.574C1.645,133.668,1.214,133.479.6,133.243Z"/><path class="a" d="M424.276,144.037h-30.1V57.817c3.833-.32,7.643-0.764,11.466-0.936,12.59-.566,25.181-1.194,37.779-1.5,13.688-.33,27.32.39,40.7,3.679,7.3,1.794,14.323,4.249,20.323,8.959,5.265,4.133,8.444,9.4,8.433,16.294-0.009,6.041-2.992,10.553-7.436,14.253-5.421,4.513-11.8,7.194-18.45,9.26-3.085.958-6.22,1.755-9.564,2.69l37.638,33.238-0.1.353h-1.838c-13.09,0-26.179-.017-39.269.027a4.651,4.651,0,0,1-3.3-1.209q-20.9-17.966-41.867-35.847a1.405,1.405,0,0,1-.393-2.129q1.836-3.186,3.5-6.469a1.467,1.467,0,0,1,1.774-.92,101.4,101.4,0,0,0,20.446.937c5.239-.2,10.464-0.792,15.314-2.9a21.5,21.5,0,0,0,6.264-3.987,9.891,9.891,0,0,0-.756-14.846c-3.255-2.7-7.168-3.96-11.2-4.815-9.082-1.923-18.246-1.776-27.415-.791-3.337.358-6.646,0.981-9.984,1.343-1.511.164-2.007,0.671-2,2.272q0.091,33.5.041,67C424.276,142.462,424.276,143.15,424.276,144.037Z"/><path class="a" d="M248.228,144.018H218.285V108.906H162.843v35.08H132.9V57.9h29.864V89.909h55.448v-32h30.012v86.111Z"/><path class="a" d="M519.215,57.779c5.391-.412,10.7-0.984,16.031-1.192,13.075-.512,26.155-1.061,39.237-1.209a141.7,141.7,0,0,1,35.572,3.71c7.344,1.805,14.4,4.3,20.456,9.05,10.744,8.421,10.226,22.183,1.938,31.178-5.195,5.638-11.773,9.111-18.854,11.693a99.185,99.185,0,0,1-38.534,5.61c-6.345-.267-12.684-0.685-19.019-1.131a29.376,29.376,0,0,1-4.858-.922c-1.514-.37-2.055-0.042-2.057,1.531q-0.012,13.064,0,26.128v1.8H519.215V57.779Zm29.909,14.965c0,0.937,0,1.519,0,2.1,0,6.622-.019,13.244.009,19.866,0.011,2.57-.567,2.263,2.31,2.816a113.576,113.576,0,0,0,35.187,1.565,29.326,29.326,0,0,0,12.5-4.107c7.053-4.5,7.37-13.178.643-18.131a21.747,21.747,0,0,0-3.427-2.04,45.2,45.2,0,0,0-18.264-4.125,145.485,145.485,0,0,0-15.352.329C558.231,71.335,553.761,72.137,549.124,72.744Z"/><path class="a" d="M389.936,144.109h-1.87c-10.579,0-21.158-.018-31.737.026a2.38,2.38,0,0,1-2.4-1.339c-3.3-5.672-6.7-11.283-10.013-16.949a2.166,2.166,0,0,0-2.163-1.218q-27.169.045-54.337,0a2.217,2.217,0,0,0-2.165,1.229q-5.2,8.544-10.533,17.011a2.637,2.637,0,0,1-1.776,1.187c-7.105.082-14.211,0.053-21.318,0.048a9.179,9.179,0,0,1-.925-0.11c0.326-.574.565-1.03,0.836-1.467q25.869-41.773,51.724-83.555a2.189,2.189,0,0,1,2.155-1.2q15.548,0.064,31.1,0a2.151,2.151,0,0,1,2.156,1.177q25.176,41.815,50.41,83.6C389.319,142.951,389.531,143.371,389.936,144.109Zm-74.58-65.523-17.224,27.6h33.409Z"/><path class="a" d="M639.4,136.28a9.953,9.953,0,1,1-9.919-9.684A9.731,9.731,0,0,1,639.4,136.28Zm-17.419,0a7.5,7.5,0,0,0,7.558,7.734,7.415,7.415,0,0,0,7.381-7.675A7.475,7.475,0,1,0,621.982,136.28Zm5.965,5.078H625.7v-9.684a19.585,19.585,0,0,1,3.72-.3,6.034,6.034,0,0,1,3.365.709,2.686,2.686,0,0,1,.945,2.125,2.479,2.479,0,0,1-2.007,2.244v0.119a2.859,2.859,0,0,1,1.771,2.361,7.361,7.361,0,0,0,.709,2.422h-2.422a8.3,8.3,0,0,1-.767-2.363,1.706,1.706,0,0,0-2.008-1.535h-1.062v3.9ZM628,135.866h1.063c1.24,0,2.244-.414,2.244-1.416,0-.886-0.65-1.477-2.068-1.477a5.355,5.355,0,0,0-1.24.119v2.775Z"/></svg>