<svg xmlns="http://www.w3.org/2000/svg" viewBox="0 0 640 200"><defs><style>.a{fill:#58595b;}.a,.b{fill-rule:evenodd;}.b{fill:#fff;}</style></defs><title>tcl</title><path class="a" d="M153.011,199.47H487.04V0.279H205.108a52.249,52.249,0,0,0-52.1,52.1v147.1h0Z"/><path class="b" d="M202.1,65.776h77.1V85H252.711v48.657H229.2V85H202.1V65.776h0ZM377.777,66.41h22.567v49.739H437.95v17.588H377.777V66.41h0Zm-52.226-3.8c22.507-.252,35.048,10.888,38.671,28.965H343.287c-2.206-7.816-7.749-12.479-17.466-12.359-12.825.165-18.632,8.132-18.768,20.768s7.034,20.269,18.948,20.556c9.541,0.225,15.735-4.911,17.721-13.519h21.359c-1.96,18.95-16.366,30.585-39.144,30.119-25.446-.514-40.758-14.285-40.465-37.067S299.7,62.9,325.551,62.606h0Z"/></svg>