<svg xmlns="http://www.w3.org/2000/svg" viewBox="0 0 640 200"><defs><style>.a{fill:#58595b;}</style></defs><title>telefunken</title><path class="a" d="M2,99.986l97.608,97.636,97.636-97.636L99.608,2.378Zm97.608,92.686L6.95,99.986,99.608,7.3l92.686,92.686Z"/><path class="a" d="M9.4,99.986L99.608,190.2l90.238-90.211L99.608,9.776ZM133.414,56.118H143.5v10.09l8.812,7.833V67.4l33.1,32.581-33.1,32.581v-6.636l-8.812,7.833v10.09h-10.09l-7.833,8.839h6.609l-32.582,33.1-32.554-33.1h6.609l-7.833-8.839H55.74v-10.09L46.9,125.932v6.636L13.831,99.986,46.9,67.4v6.636l8.839-7.833V56.118H65.83l7.833-8.839H67.054l32.554-33.1,32.582,33.1h-6.609Z"/><path class="a" d="M57.671,141.951h83.9v-83.9l-83.9-.027v83.928Zm49.47-8.05H91.912V115.815H106.87v3.862H97.514v2.883h8.676v3.672H97.514v3.563h9.627V133.9Zm13-66.876H135.1v3.862h-9.356v2.856h8.675v3.7h-8.675V81h9.627v4.08h-15.23V67.024Zm-2.04,24.4h5.222l6.8,10.008V91.419h5.249v18.059h-5.249l-6.772-9.9v9.9H118.1V91.419Zm0,24.4h5.222l6.8,10.008V115.815h5.249V133.9h-5.249l-6.772-9.927V133.9H118.1V115.815ZM102.246,67.024h5.6v13.6h8.7v4.46H102.246V67.024Zm-2.067,35.437V91.419h5.575v10.77a9.239,9.239,0,0,1-.49,3.019,6.865,6.865,0,0,1-1.577,2.5,6.316,6.316,0,0,1-2.23,1.5,11.194,11.194,0,0,1-3.917.6,22.24,22.24,0,0,1-2.883-.19,6.742,6.742,0,0,1-2.584-.734,6.077,6.077,0,0,1-1.931-1.55,5.854,5.854,0,0,1-1.2-2.094,11.317,11.317,0,0,1-.517-3.046V91.419h5.575v11.042a3.088,3.088,0,0,0,.816,2.284,3,3,0,0,0,2.284.843,3.066,3.066,0,0,0,2.258-.816A3.156,3.156,0,0,0,100.179,102.461ZM82.964,67.024H97.922v3.862H88.566v2.856h8.676v3.7H88.566V81h9.628v4.08H82.964V67.024ZM82.855,133.9H75.974l-3.807-7.452-2.883,3.019V133.9H63.709V115.815h5.575v6.826l5.847-6.826h7.425l-6.582,6.826ZM76.3,98.464v3.644h-6.99v7.37h-5.6V91.419H77.5v3.889H69.311v3.155H76.3ZM62.4,67.024H79.374v4.46H73.69v13.6H68.115v-13.6H62.4v-4.46Z"/><polygon class="a" points="119.435 41.487 99.608 17.2 79.81 41.487 86.88 41.487 71.922 56.118 127.322 56.118 112.364 41.487 119.435 41.487"/><polygon class="a" points="86.88 158.486 79.81 158.486 99.608 182.773 119.435 158.486 112.364 158.486 127.322 143.854 71.922 143.854 86.88 158.486"/><polygon class="a" points="158.108 119.813 182.395 99.986 158.108 80.16 158.108 87.258 143.504 72.3 143.504 127.7 158.108 112.742 158.108 119.813"/><polygon class="a" points="41.136 80.16 16.849 99.986 41.136 119.813 41.136 112.742 55.74 127.7 55.74 72.3 41.136 87.258 41.136 80.16"/><path class="a" d="M447.584,111.394c0,2.61-1.326,4.516-4.1,4.516S439.3,114,439.3,111.394V70.168H424.133v42.179c0,11.933,7.624,17.485,19.349,17.485s19.308-5.635,19.308-17.485V70.168H447.584v41.226Z"/><polygon class="a" points="231.428 85.084 243.858 85.084 243.858 129.003 260.472 129.003 260.472 85.084 272.695 85.084 272.695 70.168 231.428 70.168 231.428 85.084"/><polygon class="a" points="276.797 129.003 307.499 129.003 307.499 114.543 292.749 114.543 292.749 106.795 307.499 106.795 307.499 92.211 292.749 92.211 292.749 85.084 307.499 85.084 307.499 70.168 276.797 70.168 276.797 129.003"/><polygon class="a" points="331.157 70.168 314.336 70.168 314.336 129.003 345.742 129.003 345.742 114.543 331.157 114.543 331.157 70.168"/><polygon class="a" points="349.098 129.003 379.759 129.003 379.759 114.543 365.05 114.543 365.05 106.795 379.759 106.795 379.759 92.211 365.05 92.211 365.05 85.084 379.759 85.084 379.759 70.168 349.098 70.168 349.098 129.003"/><polygon class="a" points="386.761 129.003 402.837 129.003 402.837 106.795 417.462 106.795 417.462 92.211 402.837 92.211 402.837 85.084 417.462 85.084 417.462 70.168 386.761 70.168 386.761 129.003"/><polygon class="a" points="495.481 94.863 484.708 70.168 470.456 70.168 470.456 129.003 484.708 129.003 484.708 104.765 495.481 129.003 509.485 129.003 509.485 70.168 495.481 70.168 495.481 94.863"/><polygon class="a" points="560.324 70.168 542.3 70.168 532.937 91.63 532.937 70.168 517.399 70.168 517.399 129.003 532.937 129.003 532.937 103.812 543.088 129.003 560.821 129.003 547.024 98.011 560.324 70.168"/><polygon class="a" points="563.39 129.003 594.05 129.003 594.05 114.543 579.342 114.543 579.342 106.795 594.05 106.795 594.05 92.211 579.342 92.211 579.342 85.084 594.05 85.084 594.05 70.168 563.39 70.168 563.39 129.003"/><polygon class="a" points="625.996 70.168 625.996 94.863 615.182 70.168 600.929 70.168 600.929 129.003 615.182 129.003 615.182 104.765 625.996 129.003 640 129.003 640 70.168 625.996 70.168"/></svg>