<svg xmlns="http://www.w3.org/2000/svg" xmlns:xlink="http://www.w3.org/1999/xlink" viewBox="0 0 640 200"><defs><style>.a,.b,.d{fill:#58595b;}.a{clip-rule:evenodd;}.b{fill-rule:evenodd;}.c{clip-path:url(#a);}.e{clip-path:url(#b);}.f{clip-path:url(#c);}.g{clip-path:url(#d);}.h{clip-path:url(#e);}.i{clip-path:url(#f);}</style><clipPath id="a"><polygon class="a" points="179.809 151.65 251.526 151.65 251.526 137.306 212.802 137.306 212.802 107.183 245.075 107.183 245.075 94.99 212.802 94.99 212.802 60.563 249.38 60.563 249.38 48.371 179.809 48.371 179.809 151.65"/></clipPath><clipPath id="b"><polygon class="a" points="350.498 151.65 383.489 151.65 383.489 61.64 407.876 61.64 407.876 48.371 325.039 48.371 325.039 61.64 350.498 61.64 350.498 151.65"/></clipPath><clipPath id="c"><polygon class="a" points="413.614 151.65 484.261 151.65 484.261 137.306 446.605 137.306 446.605 107.183 478.88 107.183 478.88 94.99 446.605 94.99 446.605 60.563 482.099 60.563 482.099 48.371 413.614 48.371 413.614 151.65"/></clipPath><clipPath id="d"><polygon class="a" points="489.998 151.65 562.078 151.65 562.078 137.306 524.422 137.306 524.422 48.371 489.998 48.371 489.998 151.65"/></clipPath><clipPath id="e"><polygon class="a" points="113.392 48.346 77.922 48.346 114.297 151.609 140.778 151.609 176.241 48.358 158.48 48.358 136.279 120.409 113.392 48.346"/></clipPath><clipPath id="f"><path class="a" d="M321.169,47.633H293.177s-33.274,1.176-35.825,32.1,31.913,30.24,38.368,43.458c4.115,8.419-5.957,14.878-14.483,14.878-4.11,0-23.018.009-23.1,0v14.294h39.148s41.005-2.2,35.243-37.4c-3.72-22.7-28.772-19.177-37.2-34.451s6.266-19.577,7.83-19.577h17.819Z"/></clipPath></defs><title>vestel</title><polygon class="b" points="179.809 151.65 251.526 151.65 251.526 137.306 212.802 137.306 212.802 107.183 245.075 107.183 245.075 94.99 212.802 94.99 212.802 60.563 249.38 60.563 249.38 48.371 179.809 48.371 179.809 151.65"/><g class="c"><rect class="d" x="179.809" y="48.371" width="71.717" height="103.279"/></g><polygon class="b" points="350.498 151.65 383.489 151.65 383.489 61.64 407.876 61.64 407.876 48.371 325.039 48.371 325.039 61.64 350.498 61.64 350.498 151.65"/><g class="e"><rect class="d" x="325.039" y="48.371" width="82.838" height="103.279"/></g><polygon class="b" points="413.614 151.65 484.261 151.65 484.261 137.306 446.605 137.306 446.605 107.183 478.88 107.183 478.88 94.99 446.605 94.99 446.605 60.563 482.099 60.563 482.099 48.371 413.614 48.371 413.614 151.65"/><g class="f"><rect class="d" x="413.614" y="48.371" width="70.647" height="103.279"/></g><polygon class="b" points="489.998 151.65 562.078 151.65 562.078 137.306 524.422 137.306 524.422 48.371 489.998 48.371 489.998 151.65"/><g class="g"><rect class="d" x="489.998" y="48.371" width="72.08" height="103.279"/></g><polygon class="b" points="113.392 48.346 77.922 48.346 114.297 151.609 140.778 151.609 176.241 48.358 158.48 48.358 136.279 120.409 113.392 48.346"/><g class="h"><rect class="d" x="77.922" y="48.346" width="98.319" height="103.263"/></g><path class="b" d="M321.169,47.633H293.177s-33.274,1.176-35.825,32.1,31.913,30.24,38.368,43.458c4.115,8.419-5.957,14.878-14.483,14.878-4.11,0-23.018.009-23.1,0v14.294h39.148s41.005-2.2,35.243-37.4c-3.72-22.7-28.772-19.177-37.2-34.451s6.266-19.577,7.83-19.577h17.819Z"/><g class="i"><rect class="d" x="254.808" y="47.633" width="83.481" height="104.734"/></g></svg>