<?xml version="1.0" encoding="UTF-8" standalone="no"?>
<svg xmlns:svg="http://www.w3.org/2000/svg" xmlns="http://www.w3.org/2000/svg" viewBox="0 0 839.52002 290.78668" height="290.78668" width="839.52002" xml:space="preserve" id="svg2" version="1.1">
   <g transform="matrix(1.3333333,0,0,-1.3333333,0,290.78667)" id="g10">
 <g transform="scale(0.1)" id="g12">
            <path id="path14" style="fill:#0e0f0e;" d="m 2644.19,231.922 c -160.9,0 -219.65,156.777 -219.65,277.66 0,178.84 110.25,236.848 195.18,236.848 155.91,0 215.54,-145.36 215.54,-280.18 0,-160.852 -93.14,-234.328 -191.07,-234.328 z m -10.55,539.777 c -168.27,0 -290.77,-124.937 -290.77,-288.219 0,-147.031 109.44,-276.871 290.77,-276.871 157.55,0 283.37,120.082 283.37,285 0,143.661 -94.79,280.09 -283.37,280.09" /><path id="path16" style="fill:#0e0f0e;" d="m 4622.06,352.379 v -47.797 c -0.8,-17.102 -5.73,-29.332 -15.53,-39.133 -8.13,-8.258 -33.53,-20.418 -49.78,-20.418 -41.64,0 -51.51,35.071 -51.51,49.008 0,31.781 23.73,44.02 71.88,60.383 l 44.94,14.609 z m 122.4,-97.629 c -2.36,0 -6.5,-3.23 -10.49,-5.68 -4.94,-2.422 -12.29,-4.922 -20.55,-4.922 -31.78,0 -32.52,34.282 -32.52,71.063 V 455.98 c 0,64.512 -26.17,96.879 -84.99,96.879 -96.65,0 -151.92,-57.937 -151.92,-100.461 0,-7.308 4.07,-11.418 11.42,-11.418 12.24,0 34.31,5.719 46.59,15.532 6.49,4.929 7.31,14.718 8.19,27.789 1.61,25.281 32.51,36.719 55.39,36.719 50.62,0 57.26,-40.848 56.48,-71.071 v -34.801 c 0,-12.289 -2.49,-22.328 -14.73,-26.449 l -97.14,-35.097 c -52.29,-18.801 -67.82,-37.52 -67.82,-69.43 0,-22.863 9.8,-43.293 25.28,-57.141 13.93,-12.293 35.15,-18.793 57.13,-18.793 22.17,0 64.27,8.071 97.28,42.403 8.26,-28.899 40.04,-42.403 59.58,-42.403 41.19,0 67.94,32.832 70.03,37.364 0,0 -3.85,9.148 -7.21,9.148" /><path id="path18" style="fill:#0e0f0e;" d="m 4989.94,253.129 c 0,27.801 19.62,48.211 45.72,48.211 27.77,0 45.7,-22.031 45.7,-48.211 0,-26.098 -17.93,-44.891 -45.7,-44.891 -23.61,0 -45.72,17.172 -45.72,44.891" /><path id="path20" style="fill:#0e0f0e;" d="m 4752.25,248.27 c 0,-3.668 -3.02,-6.668 -6.73,-6.668 -3.67,0 -6.69,3 -6.69,6.668 0,3.718 3.02,6.671 6.69,6.671 3.71,0 6.73,-2.953 6.73,-6.671" /><path id="path22" style="fill:#0e0f0e;" d="m 3604.53,342.172 c -39.22,0 -74.32,37.519 -74.32,95.617 0,55.441 29.37,91.34 68.63,91.34 49.72,0 72.7,-46.527 72.7,-102.09 0,-49.707 -22.98,-84.867 -67.01,-84.867 z m -53.9,-157.602 c 11.44,7.321 44.15,9.012 70.21,9.012 h 27.72 c 58.82,0 93.15,-21.293 93.15,-71.082 0,-46.5703 -48.14,-87.3984 -120.87,-87.3984 -74.25,0 -109.39,36.7773 -109.39,80.8474 0,31.039 19.55,56.34 39.18,68.621 z m 246.55,322.121 c 0,9.27 -7.38,16.75 -16.72,16.75 h -55.05 c -18.03,0 -23.65,1.688 -49.83,13.071 -18.72,8.168 -47.4,16.347 -78.35,16.347 -72.75,0 -133.2,-53.078 -133.2,-123.32 0,-52.207 34.65,-86.957 68.8,-102.488 0,0 -71.17,-25.129 -71.17,-63.301 0,-33.699 25.23,-60.949 71.3,-70.25 -92.02,-39.258 -82.79,-98.7695 -82.79,-98.7695 C 3450.17,53.8984 3485.32,0 3585.81,0 c 106.07,0 203.24,65.3203 203.24,154.371 0,81.668 -68.58,89.777 -114.32,89.777 -35.92,0 -69.38,-2.437 -97.23,-2.437 -38.34,0 -57.08,15.48 -57.08,34.328 0,23.691 26.17,39.172 35.9,44.902 9.81,-0.8 21.18,-2.492 35.92,-2.492 103.78,0 137.29,73.492 137.29,129.871 0,13.86 0,27.801 -1.73,41.66 h 52.66 c 9.34,0 16.72,7.489 16.72,16.711" /><path id="path24" style="fill:#0e0f0e;" d="m 1953.35,528.379 c 47.34,0 62.82,-28.598 62.82,-51.508 0,0 0.28,-10.039 0.28,-14.691 0,-7.821 -4.05,-8.961 -7.82,-8.961 -3.37,0 -82.26,0 -82.26,0 h -57.94 c -5.8,0 -5.8,2.492 -5.8,4.113 0.81,26.969 42.52,71.047 90.72,71.047 z M 2079.1,284.172 v 0 c 0.41,1.039 0.64,2.219 0.64,3.41 0,4.93 -3.94,9 -9.05,9 -2.32,0 -4.51,-0.91 -6.19,-2.543 h -0.14 c -25.33,-31.859 -48.19,-40.078 -75.1,-40.078 -87.41,0 -135.63,70.238 -135.63,152.699 0,20.379 0.88,22.07 22.11,22.07 h 151.1 39.85 c 3.01,0 5.74,1.5 7.31,3.821 h 0.06 l 0.06,0.051 c 0.52,0.82 0.93,1.738 1.16,2.738 1.61,4.23 3.01,11.25 3.01,20.371 0,48.93 -45.81,97.148 -116.01,97.148 -97.97,0 -164.09,-84.109 -164.09,-184.539 0,-35.929 9.73,-74.281 34.28,-106.14 23.66,-31.078 65.31,-53.942 118.38,-53.942 42.06,0 100,20.051 127.39,74.352 0.29,0.48 0.57,1.012 0.86,1.582 v 0" /><path id="path26" style="fill:#0e0f0e;" d="m 1528.63,242.512 c -24.42,0 -49.01,4.136 -64.5,22.937 -15.55,17.922 -17.12,59.551 -17.12,88.973 v 120.887 21.242 h 47.34 c 129.82,0 162.48,-75.199 162.48,-139.641 0,-81.66 -55.46,-114.398 -128.2,-114.398 z m -81.62,301.347 v 165.77 c 0,14.691 3.26,18.75 11.43,21.242 7.37,3.238 19.54,4.899 37.6,4.899 61.99,0 121.62,-30.239 121.62,-110.301 0,-76.68 -44.88,-101.207 -128.18,-104.449 -5.92,-0.239 -11.08,-0.418 -15.54,-0.469 h -26.93 z m 159.52,-23.367 c 44.95,22.438 83.01,59.906 83.01,115.656 0,52.274 -26.98,84.883 -62.02,102.114 -36.76,18.718 -85.73,22.828 -137.29,22.828 -72.79,0 -126.92,-2.25 -170.13,-6.078 v -0.063 c -5.28,-0.469 -9.34,-4.808 -9.34,-10.14 0,-5.59 4.58,-10.219 10.21,-10.219 l 19.26,-1.68 c 36.72,-3.25 39.85,-20.012 39.85,-80.39 V 342.172 c 0,-85.723 -1.69,-94.723 -44.9,-102.07 l -14.74,-2.442 -0.05,-0.058 c -5.34,-0.34 -9.63,-4.711 -9.63,-10.161 0,-5.621 4.58,-10.203 10.21,-10.203 0.35,0 0.69,0.051 0.99,0.051 0,0 0,-0.051 0.11,-0.051 h 191.89 c 147.05,0 217.23,63.692 217.23,158.422 0,87.399 -80.57,136.719 -124.66,144.832" /><path id="path28" style="fill:#0e0f0e;" d="m 3170.88,552.859 c -30.15,0 -63.61,-27.5 -92.27,-51.16 v 56.84 0.133 c 0,0.09 0.11,0.219 0.11,0.269 0,2.957 -2.38,5.329 -5.33,5.329 -0.94,0 -1.74,-0.27 -2.49,-0.688 h -0.13 l -79.57,-39.133 v -0.058 c -2.85,-1.532 -4.83,-4.493 -4.83,-7.911 0,-3.71 2.32,-6.941 5.64,-8.289 v 0 c 23.26,-15.14 26.21,-22.32 26.21,-54.171 V 311.148 c 0,-58.816 -0.75,-66.117 -30.97,-71.046 l -10.74,-1.622 v 0 c -5.57,-0.3 -10.09,-4.941 -10.09,-10.621 0,-5.808 4.82,-10.621 10.62,-10.621 h 58.41 34.8 59.63 c 5.98,0 10.73,4.813 10.73,10.621 0,5.68 -4.52,10.321 -10.03,10.621 v 0 l -10.74,1.622 c -8.29,1.386 -23.26,2.25 -29,5.546 -12.01,6.864 -12.23,22.813 -12.23,65.5 V 422.23 c 0,27.719 2.43,51.399 10.67,62.809 6.49,9.02 16.31,16.359 29.35,16.359 11.48,0 23.73,-4.847 35.97,-13.039 5.68,-3.32 9.79,-5.757 17.95,-5.757 13.08,0 35.11,10.628 35.11,37.597 0,19.551 -16.31,32.66 -36.78,32.66" /><path id="path30" style="fill:#0e0f0e;" d="m 3313.81,644.32 c 22.91,0 43.27,13.071 43.27,42.481 0,22.828 -16.31,42.449 -40.83,42.449 -24.48,0 -44.1,-17.168 -44.1,-44.059 0,-22.121 16.38,-40.871 41.66,-40.871" /><path id="path32" style="fill:#0e0f0e;" d="m 3391.36,238.48 v 0 l -10.62,1.622 c -30.16,4.929 -31.03,12.23 -31.03,71.046 v 75.532 164.73 c 0,4.942 -4.08,8.93 -8.94,8.93 -1.48,0 -2.88,-0.352 -4.05,-0.981 v 0 L 3263.06,524.84 H 3263 l -0.53,-0.281 v -0.071 c -2.96,-1.508 -4.88,-4.468 -4.88,-7.879 0,-3.269 1.7,-6.027 4.31,-7.66 v 0 c 21.96,-14.668 27.38,-23.078 27.38,-54.929 v -67.34 -75.532 c 0,-58.816 -0.75,-66.117 -31.04,-71.046 l -10.61,-1.622 v 0 c -5.57,-0.3 -10.1,-4.941 -10.1,-10.621 0,-5.808 4.75,-10.621 10.66,-10.621 h 58.31 34.81 49.53 c 5.9,0 10.61,4.813 10.61,10.621 0,5.68 -4.4,10.321 -10.09,10.621" /><path id="path34" style="fill:#0e0f0e;" d="m 3904.26,644.32 c 22.85,0 43.19,13.071 43.19,42.481 0,22.828 -16.3,42.449 -40.75,42.449 -24.48,0 -44.15,-17.168 -44.15,-44.059 0,-22.121 16.36,-40.871 41.71,-40.871" /><path id="path36" style="fill:#0e0f0e;" d="m 3981.81,238.48 v 0 l -10.62,1.622 c -30.21,4.929 -30.99,12.23 -30.99,71.046 v 75.532 164.73 c 0,4.942 -4.04,8.93 -9.05,8.93 -1.37,0 -2.84,-0.352 -4.04,-0.981 v 0 L 3853.5,524.84 c 0,0 -0.13,0 -0.18,-0.051 l -0.53,-0.23 v -0.071 c -2.83,-1.508 -4.8,-4.468 -4.8,-7.879 0,-3.269 1.75,-6.027 4.29,-7.66 v 0 c 22.04,-14.668 27.44,-23.078 27.44,-54.929 v -67.34 -75.532 c 0,-58.816 -0.81,-66.117 -31.03,-71.046 l -10.58,-1.622 v 0 c -5.68,-0.3 -10.19,-4.941 -10.19,-10.621 0,-5.808 4.81,-10.621 10.72,-10.621 h 58.3 34.73 49.62 c 5.85,0 10.66,4.813 10.66,10.621 0,5.68 -4.47,10.321 -10.14,10.621" /><path id="path38" style="fill:#0e0f0e;" d="m 4934.42,238.48 v 0 l -10.58,1.622 c -30.25,4.929 -31.05,12.23 -31.05,71.046 v 75.532 407.879 c 0,4.992 -4.01,9.011 -9.05,9.011 -1.51,0 -2.73,-0.422 -4.05,-1.05 v 0 l -73.5,-34.45 c -0.18,0 -0.26,-0.078 -0.35,-0.129 l -0.43,-0.222 v 0 c -2.83,-1.52 -4.81,-4.489 -4.81,-7.949 0,-3.239 1.7,-6.04 4.32,-7.598 v 0 c 21.96,-14.731 27.41,-23.09 27.41,-54.922 V 386.68 311.148 c 0,-58.816 -0.79,-66.117 -31.08,-71.046 l -10.62,-1.622 v 0 c -5.63,-0.3 -9.98,-4.941 -9.98,-10.621 0,-5.808 4.64,-10.621 10.51,-10.621 h 58.36 34.79 49.6 c 5.85,0 10.61,4.813 10.61,10.621 0,5.68 -4.47,10.321 -10.1,10.621" /><path id="path40" style="fill:#0e0f0e;" d="m 4402.33,238.48 v 0 l -10.59,1.622 c -30.29,4.929 -30.99,12.23 -30.99,71.046 v 0 140.422 c 0,54.711 -27.79,101.289 -95.59,101.289 -41.6,0 -96.19,-24.711 -123.31,-45.199 v 43.75 c 0,4.942 -4.07,8.93 -8.95,8.93 -1.57,0 -2.84,-0.352 -4.11,-0.981 v 0 l -73.55,-34.468 c -0.11,-0.051 -0.17,-0.102 -0.17,-0.102 l -0.6,-0.23 v -0.071 c -2.77,-1.508 -4.8,-4.468 -4.8,-7.879 0,-3.269 1.69,-6.027 4.28,-7.66 v 0 c 22.06,-14.668 27.5,-23.078 27.5,-54.929 v -142.872 0 c 0,-58.816 -0.8,-66.117 -31.04,-71.046 l -10.6,-1.622 v 0 c -5.63,-0.3 -10.09,-4.941 -10.09,-10.621 0,-5.808 4.81,-10.621 10.54,-10.621 h 58.36 34.81 49.61 c 5.78,0 10.66,4.813 10.66,10.621 0,5.68 -4.53,10.321 -10.14,10.621 v 0 l -10.7,1.622 c -30.21,4.929 -31.01,12.23 -31.01,71.046 v 75.532 0 49.41 c 0,23.648 1.68,35.14 12.29,48.949 11.37,15.57 38.35,28.609 69.42,28.609 55.45,0 76.74,-34.277 76.74,-80.796 v -46.172 0 -75.532 c 0,-58.816 -0.85,-66.117 -31.01,-71.046 l -10.75,-1.622 v 0 c -5.55,-0.3 -10.01,-4.941 -10.01,-10.621 0,-5.808 4.81,-10.621 10.53,-10.621 h 58.41 34.77 49.58 c 5.86,0 10.61,4.813 10.61,10.621 0,5.68 -4.46,10.321 -10.1,10.621" /><path id="path42" style="fill:#da2226;" d="m 2152.19,1831.32 h -554.77 v 322.59 h -286.66 v -843.95 h 286.66 v 339.23 h 554.77 v -339.23 h 286.61 v 843.95 h -286.61 v -322.59" /><path id="path44" style="fill:#da2226;" d="m 2917.58,1649.19 199.49,327.69 193.5,-327.69 h -392.99 m 88.35,504.72 -514.05,-843.95 h 219.03 l 105.27,172.72 h 592.53 l 101.96,-172.72 h 350 l -513.91,843.95 h -340.83" /><path id="path46" style="fill:#da2226;" d="m 4997.72,1788.26 c 68.38,89.47 59.06,220.42 -71.87,295.56 -122.23,69.96 -355.47,95.77 -501.13,95.77 -233.11,0 -383.24,-15.69 -510.9,-37.44 v -832.19 h 286.67 v 705.83 c 103.25,20.35 208,20.87 247.21,19.08 113.75,-5.16 177.73,-22.75 229.01,-59.17 52.79,-37.51 67.1,-121.01 -1.51,-178.81 -51.32,-43.23 -155.62,-77.31 -388.75,-41.53 l -32.77,-54.14 440.68,-391.26 h 390.14 l -392.01,339.23 c 94.25,12 237.12,49.82 305.23,139.07" /><path id="path48" style="fill:#da2226;" d="m 682.438,1862.32 c -165.372,32.05 -306.032,52.22 -306.032,105.81 0,59.66 113.692,74.94 274.766,57.57 152.383,-16.01 296.183,-55.86 430.288,-113 l 101.86,167.03 c -108.35,41.33 -331.742,94.15 -534.293,100.15 C 426.746,2186.4 51.8555,2166.42 35.6758,1941.91 20.8789,1736.19 313.762,1687.14 505.813,1642.55 c 187.238,-43.86 363.007,-59.54 363.007,-124.32 0,-45.68 -62.011,-81.35 -225.715,-69 -196.859,14.8 -364.625,68.72 -532.019,151.79 L 0,1418.55 c 185.563,-72.62 428.785,-130.81 648.098,-134.48 260.507,-4.27 554.882,37.79 561.392,260.99 5.44,186.26 -187.37,251.23 -527.052,317.26" /><path id="path50" style="fill:#da2226;" d="m 5923.84,1795.13 c -49.53,-40.52 -121.93,-54.94 -235.95,-54.61 -84.3,0.37 -171.49,15.72 -242.42,31.87 v 243.4 c 103.19,20.35 209.8,20.64 248.89,19.08 114.58,-4.79 181.17,-24.26 230.75,-59.17 51.63,-36.11 68.75,-123.09 -1.27,-180.57 m 250.54,288.69 c -116.67,68.94 -335.23,95.77 -502.8,95.77 -233.24,0 -384.99,-15.69 -512.66,-37.44 v -832.19 h 286.55 v 304.98 c 88.52,-14.88 199.66,-23.58 295.58,-22.77 234.63,1.88 408.89,57.02 488.37,143.32 113.1,122.98 75.18,271.33 -55.04,348.33" />
        </g>
    </g>
</svg>
