<?xml version="1.0" encoding="utf-8"?>
<!-- Generator: Adobe Illustrator 19.2.1, SVG Export Plug-In . SVG Version: 6.00 Build 0)  -->
<svg version="1.1" id="Layer_1" xmlns="http://www.w3.org/2000/svg" xmlns:xlink="http://www.w3.org/1999/xlink" x="0px" y="0px"
	 viewBox="0 0 640 200" style="enable-background:new 0 0 640 200;" xml:space="preserve">
<style type="text/css">
	.st0{fill:#626262;}
</style>
<g>
	<title>avent</title>
	<g>
		<path class="st0" d="M462.69647,106.11257l-0.01581-36.15399c14.50229-2.48558,29.052,2.56242,28.34021,18.49051
			c-0.64401,14.18592-12.87988,18.91305-28.3244,17.66574l0,0V106.11257z M510.474,57.24368
			c-7.00485-6.88282-16.7619-11.36817-32.92047-11.76134c-10.52081-0.26664-11.80884,0.14236-43.61072,0.60784v107.14686
			l28.75601,0.02939v-22.86288c6.65231-0.16043,10.54565,0.19432,15.11459-0.19432
			c38.98309-1.9478,44.37677-33.04701,44.51465-41.51157c0.24854-14.68755-5.10901-24.80841-11.85849-31.45171l0,0L510.474,57.24368
			z"/>
		<path class="st0" d="M565.84833,83.86431l23.5769,8.13465c15.68402,6.00834,19.01019,18.18546,18.8656,28.67915
			c-0.35028,24.36327-20.37732,33.49214-36.34381,34.81177c-12.37091,0.89751-24.80603,0.1636-36.98553-2.1828l0.11304-26.5212
			c14.37799,4.23679,31.0495,4.06731,36.68726,1.92745c4.25708-1.60658,7.52228-4.08087,7.25562-7.31439
			c-0.14014-1.75573-0.32764-3.99728-5.72137-6.23656l-21.73083-7.64204c-13.95544-4.86497-19.34009-17.71998-18.75488-29.17175
			c1.16376-23.14308,20.21686-34.85923,39.22717-34.18135c8.38086,0.04274,16.75171,0.5845,25.06824,1.62241l0.4361,26.25683
			c-12.89343-2.91266-19.15259-2.85843-25.79138-2.06078c-7.43866,0.88351-10.77618,4.62319-10.60895,8.6069
			c0.49994,2.46861,2.302,4.4705,4.70453,5.22651"/>
	</g>
	<polygon class="st0" points="162.89401,86.05389 193.78535,86.05389 193.71529,46.19412 222.44868,46.19412 222.44868,153.32291 
		193.71529,153.32291 193.78535,110.31548 162.89401,110.31548 162.82399,153.32291 134.0793,153.32291 134.0793,46.19412 
		162.82399,46.19412 162.89401,86.05389 	"/>
	<polygon class="st0" points="278.23654,153.32291 278.23654,46.19412 249.49863,46.19412 249.49863,153.32291 278.23654,153.32291 
			"/>
	<polygon class="st0" points="406.61713,153.32291 406.61713,46.19412 377.88596,46.19412 377.88596,153.32291 406.61713,153.32291 
			"/>
	<polygon class="st0" points="333.96567,128.99805 363.63675,128.99805 363.63675,153.26642 305.26389,153.32291 
		305.26389,46.19412 334.01538,46.19412 333.96567,128.99805 	"/>
	<path class="st0" d="M60.45397,106.11257l-0.01355-36.15399C74.9472,67.473,89.49692,72.521,88.78065,88.44909
		c-0.63497,14.18592-12.87985,18.91079-28.32664,17.66574l0,0L60.45397,106.11257z M108.23146,57.24594
		c-7.00485-6.88281-16.75738-11.36817-32.91595-11.76134c-10.51855-0.26664-11.79976,0.14236-43.61076,0.60784v107.14459
		l28.76501,0.02939v-22.86288c6.65685-0.16043,10.55472,0.19432,15.11462-0.19432
		c38.99435-1.9478,44.38129-33.04701,44.52814-41.51157c0.24177-14.68755-5.10222-24.80841-11.86982-31.45171l0,0
		L108.23146,57.24594z"/>
</g>
</svg>
