<svg xmlns="http://www.w3.org/2000/svg" viewBox="0 0 640 200"><defs><style>.a{fill:#58595b;fill-rule:evenodd;}</style></defs><title>finlux</title><path class="a" d="M119.445,56.838H42.454A12.983,12.983,0,0,0,29.532,69.76v73.4h26.92V113.909h62.993V93.719H56.452V78.195h62.993V56.838h0Zm17.139,0H163.5v86.324h-26.92V56.838h0Zm44.059,0h41.277L268.4,119.382V56.838h26.92v86.324H253.687l-46.123-62.1v62.1h-26.92V56.838h0Zm207.106,86.324H312.463V56.838H339.2v63.981h48.547v22.344h0Zm7.178-86.324h26.741v54.827a10.091,10.091,0,0,0,10.05,10.05h30.33a10.11,10.11,0,0,0,10.14-10.05V56.838h26.741v60.391A26,26,0,0,1,473,143.162H420.771a25.985,25.985,0,0,1-25.843-25.933V56.838h0Zm110.911,0h33.2l17.677,21.357,17.677-21.357h33.2L573.318,98.205l37.15,44.957h-33.2l-20.549-24.857-20.549,24.857H503.057l37.06-44.957L505.839,56.838h0Z"/></svg>