<svg xmlns="http://www.w3.org/2000/svg" viewBox="0 0 640 200"><defs><style>.a{fill:#58595b;fill-rule:evenodd;}</style></defs><title>jvc</title><path class="a" d="M223.068,135.424H184.734V111.331h-29.81v29.5h0c0,13.935,8.269,23.072,21.285,23.072h53.851c18.376,0,23.174-12.506,23.174-22.1h0V36.094H223.068v99.331h0Z"/><polygon class="a" points="321.071 116.793 293.253 36.094 261.045 36.094 305.096 163.906 305.453 163.906 337.253 163.906 337.61 163.906 379.977 36.094 347.768 36.094 321.071 116.793 321.071 116.793 321.071 116.793"/><path class="a" d="M485.075,84.891V63.861h0c0-25.777-8.32-27.768-30.217-27.768H416.524c-25.879,0-30.78,4.389-30.78,27.87h0v71.512h0c0,22.612,10.668,28.431,30.831,28.431H464.1c15.161,0,20.979-10.311,20.979-23.378h0V114.037H454.908v21.387H416.575V63.861h38.333v21.03h30.167Z"/></svg>