<svg xmlns="http://www.w3.org/2000/svg" viewBox="0 0 640 200"><defs><style>.a{fill:#58595b;fill-rule:evenodd;}</style></defs><title>saeco</title><path class="a" d="M244.006,143.539c8.371-14.628,5.895-31.793-7.471-42.356-7.369-5.823-34.742-18.042-30.882-27.514,3.486-8.552,14.744-5.474,21.1-2.677,7.407,3.261,11,7.8,17.012,12.324V50.9a57.749,57.749,0,0,0-36.549-13.52c-15.446,0-29.7,5.412-37.4,19.562-7.024,12.9-5.444,32.472,6.056,42.442,6.6,5.723,32.464,17.875,30.134,26.065-2.177,7.651-15.236,6.757-21.13,5.333-9.325-2.252-11.8-4.557-19.73-8.752v32.329c12,6.02,22.715,8.082,36.075,8.082,16.07,0,34.015-3.555,42.793-18.9h0Zm67.329-17.26c0,15.607-16.218,21.225-22.705,11.666-3.866-5.7.485-10.587,6.071-12.577,1.3-.465,16.283-4.78,16.352-4.776l0.329,3.132-0.047,2.555h0ZM286.685,96.928H257.361c0.151-17.662,12.936-26.818,27.781-30.436,10.708-2.609,23.213-2.738,33.778.575,9.344,2.93,17.55,8.63,22.17,17.945,4.305,8.68,3.394,16.995,3.394,26.379,0,6.325-2.295,23.432,6.375,23.821V161.16h-11.9c-8.483,0-21.731-2.02-27.129-8.905-1.773,1.649-5.388,5.543-10.024,7.45-5.654,2.325-10.645,2.731-16.676,2.731-9.666,0-19.241-2.428-25.781-10.034-11.22-13.049-7.255-34.951,11.125-41.5,7.833-2.79,37.053-6.086,39.686-9.621,8.08-10.85-17.77-23-23.475-4.355h0Zm114.324-7.69c8.077,0.18,13.055,8.163,12.7,15.726l-25.953.046c-0.212-11.109,7.724-15.9,13.25-15.772h0Zm45.048,31.086c0-21.321-6.245-38.726-25.411-49.858C402.721,60.054,379.327,64.842,365,79.18c-14.252,14.264-17.538,39.06-8.052,56.743,10.386,19.361,29.064,26.513,50.012,26.513,13.852,0,25.544-1.978,38.246-7.657v-23.4c-10.427,4.4-21.226,8.082-33.149,8.082-5.862,0-11.948-1.368-16.7-4.983-3.633-2.766-7.49-7.736-7.582-13.915l58.278-.244h0ZM504.7,131.071c-23.145-3.532-22.009-35.844,5.11-35.844,8.563,0,14.7,2.831,20.824,5.1V70.98a59.616,59.616,0,0,0-38.636-5.532c-24.293,5-43.68,27.434-40.626,54.034,2.565,22.339,22.219,40.643,46.883,42.751a59.441,59.441,0,0,0,32.379-6.178V126.7c-7.884,2.534-16.656,5.782-25.935,4.366h0Zm82.623,31.838c29.09,0,52.682-21.982,52.682-49.088s-23.591-49.088-52.682-49.088-52.681,21.982-52.681,49.088,23.591,49.088,52.681,49.088h0Zm0-30.547c-8.524,0-15.437-8.3-15.437-18.541s6.913-18.541,15.437-18.541,15.437,8.3,15.437,18.541-6.913,18.541-15.437,18.541h0ZM19.891,55.445A62.6,62.6,0,0,0,2,91.715a63.437,63.437,0,0,0,20.46,54.867l80.754-42.938q-0.148-10.3-.3-20.6L24.079,124.966c-19.364-30.9,2.092-72.208,40.1-72.518a47.5,47.5,0,0,1,20.137,4.443l15.9-8.453a62.49,62.49,0,0,0-20.865-9.532A63.14,63.14,0,0,0,19.891,55.445h0Zm5.632,61.109q-0.148-10.3-.3-20.6l80.755-42.938a62.715,62.715,0,0,1-77.755,98.144l15.9-8.454c27.982,13.076,60.269-3.805,66.411-32.883a47.719,47.719,0,0,0-6.174-35.192Z"/></svg>