<svg xmlns="http://www.w3.org/2000/svg" viewBox="0 0 640 200"><defs><style>.a{fill:#58595b;}</style></defs><title>thomson</title><polyline class="a" points="157.106 68.657 152.411 91.018 109.996 91.018 114.7 68.657 18.569 68.657 15.738 82.064 44.852 82.064 34.46 131.425 51.035 131.425 61.434 82.064 95.308 82.064 84.91 131.425 101.493 131.425 107.012 105.193 149.435 105.193 143.9 131.425 160.473 131.425 173.671 68.657 157.106 68.657"/><path class="a" d="M244.3,123.007c8.285-5.817,13.673-13.739,15.6-22.878,1.911-9.08-.2-17.015-6.1-22.959-6.622-6.6-17.349-10.382-29.435-10.382a58.769,58.769,0,0,0-33.587,10.287c-8.293,5.86-13.675,13.713-15.566,22.708-1.955,9.252.114,17.249,5.988,23.131,6.559,6.647,17.017,10.309,29.443,10.309a58.941,58.941,0,0,0,33.66-10.216h0Zm-31.168-3.289c-8.429,0-15-2.379-18.5-6.7-2.709-3.34-3.575-7.8-2.5-12.891C194.635,88.267,206.588,80.3,221.872,80.3c8.412,0,15.005,2.417,18.564,6.807,2.711,3.342,3.591,7.726,2.546,12.679-2.551,12.111-14.267,19.936-29.847,19.936"/><path class="a" d="M518.308,123.01c8.285-5.817,13.673-13.739,15.6-22.878,1.91-9.08-.2-17.015-6.1-22.958-6.624-6.6-17.351-10.382-29.436-10.382a58.765,58.765,0,0,0-33.587,10.287c-8.293,5.86-13.677,13.713-15.566,22.708-1.955,9.252.113,17.249,5.988,23.131,6.559,6.647,17.017,10.309,29.443,10.309a58.941,58.941,0,0,0,33.66-10.216h0ZM487.14,119.72c-8.429,0-15-2.379-18.5-6.7-2.711-3.34-3.575-7.8-2.5-12.891,2.5-11.862,14.456-19.832,29.741-19.832,8.412,0,15.005,2.416,18.565,6.806,2.709,3.342,3.59,7.726,2.544,12.679-2.551,12.111-14.267,19.936-29.847,19.936"/><polyline class="a" points="345.994 68.657 312.844 100.575 293.13 68.657 274.598 68.657 261.378 131.425 277.955 131.425 286.858 89.14 308.228 123.573 343.815 89.412 334.965 131.425 351.541 131.425 364.757 68.657 345.994 68.657"/><path class="a" d="M361.506,121.374c10.276,8.412,22.2,11.84,37.851,11.84,22.808,0,38.17-8.3,41.094-22.2,0.946-4.483.423-8-1.6-10.744-3.251-4.419-10.947-6.784-23.24-7.763-4.271-.341-7.457-0.489-10.084-0.6a61.378,61.378,0,0,1-12.583-1.629c-4.689-1.178-4.247-3.228-4.1-3.9,0.7-3.327,7.6-6.337,21.088-6.337,9.45,0,17.952,1.808,25.456,6.373l11.063-10.328c-7.764-6.089-18.714-9.318-34.687-9.318-21.617,0-36.721,7.932-39.417,20.7-0.863,4.093-.286,7.362,1.762,10,4.2,5.415,14.211,7.383,31.513,8.126,10.086,0.434,16.016,1.168,17.721,3.364a2.865,2.865,0,0,1,.419,2.469c-0.949,4.469-8.534,8.421-21.2,8.421-11.385,0-21.324-2.719-30.294-9l-10.761,10.52"/><polyline class="a" points="607.677 68.654 598.652 111.543 567.027 68.654 548.61 68.654 535.392 131.428 551.953 131.428 560.967 88.706 592.552 131.428 611.042 131.428 624.262 68.654 607.677 68.654"/></svg>