<svg xmlns="http://www.w3.org/2000/svg" xmlns:xlink="http://www.w3.org/1999/xlink" viewBox="0 0 467.627 126.663"><defs><style>.a{fill:#fff;}.b{fill:#454545;}.c{fill:url(#a);}.d{opacity:0.59;}.e{fill:#1b80c4;}</style><radialGradient id="a" cx="29.592" cy="31.333" r="68.819" gradientTransform="translate(-0.352 0.147) scale(0.982 0.978)" gradientUnits="userSpaceOnUse"><stop offset="0" stop-color="#68bdea"/><stop offset="0.301" stop-color="#65bbe9"/><stop offset="0.507" stop-color="#5cb4e4"/><stop offset="0.686" stop-color="#4da7dd"/><stop offset="0.847" stop-color="#3796d2"/><stop offset="0.997" stop-color="#1c81c4"/><stop offset="1" stop-color="#1b80c4"/></radialGradient></defs><title>elsan-logo-01</title><path class="a" d="M458.288,108.3a7.548,7.548,0,0,1,2.467-1.83,7.671,7.671,0,0,1,3.214-.629,5.827,5.827,0,0,1,4.145,1.315,4.791,4.791,0,0,1,1.391,3.658v9.663H464v-7.6a2.86,2.86,0,0,0-.56-1.859,2.038,2.038,0,0,0-1.678-.685,2.617,2.617,0,0,0-2.453,1.415,7.7,7.7,0,0,0-.789,3.76v4.973h-5.48V106.186h5.135v2.058Zm-21.116-2.4a8.812,8.812,0,0,1,6.4,2.173,6.994,6.994,0,0,1,2.066,5.261,7.137,7.137,0,0,1-2.038,5.289,10.324,10.324,0,0,1-12.708.028,7.8,7.8,0,0,1-.115-10.577Q432.984,105.9,437.171,105.9Zm0.058,3.974a2.69,2.69,0,0,0-2.324,1.115,3.97,3.97,0,0,0-.688,2.4,3.854,3.854,0,0,0,.788,2.459,2.906,2.906,0,0,0,4.461-.086,3.775,3.775,0,0,0,.747-2.373,3.98,3.98,0,0,0-.717-2.429A2.655,2.655,0,0,0,437.229,109.872Zm-21.143-4.945v-3.4h5.45v3.4h-5.45ZM416,120.479V106.186h5.45v14.293H416Zm-16.756-14.293v-2.574l5.422-1.114v3.688h3.242v3.744h-3.242v4.859a2.344,2.344,0,0,0,.4,1.545,1.41,1.41,0,0,0,1.118.457,4.544,4.544,0,0,0,1.219-.2l0.9-.257-0.6,4.031a14.544,14.544,0,0,1-3.585.457,6.522,6.522,0,0,1-3.443-.715,3.438,3.438,0,0,1-1.435-3.145V109.93h-2.152v-3.744h2.152Zm-19.566,14.636a6.33,6.33,0,0,1-4.03-1.044,4.056,4.056,0,0,1-1.277-3.331V106.186h5.48v7.661a2.772,2.772,0,0,0,.574,2.03,2.414,2.414,0,0,0,1.664.457,2.281,2.281,0,0,0,1.922-.958,5.129,5.129,0,0,0,.717-3.045v-6.145h5.421v14.293h-5.421v-1.83Q383.236,120.822,379.679,120.822Zm-19.967-.343v-19.1h5.452v19.1h-5.452ZM343.646,105.9a8.81,8.81,0,0,1,6.4,2.173,7,7,0,0,1,2.066,5.261,7.138,7.138,0,0,1-2.038,5.289,10.324,10.324,0,0,1-12.708.028,7.8,7.8,0,0,1-.115-10.577Q339.457,105.9,343.646,105.9Zm0.056,3.974a2.69,2.69,0,0,0-2.324,1.115,3.972,3.972,0,0,0-.688,2.4,3.847,3.847,0,0,0,.789,2.459,2.9,2.9,0,0,0,4.46-.086,3.777,3.777,0,0,0,.747-2.373,3.98,3.98,0,0,0-.717-2.429A2.655,2.655,0,0,0,343.7,109.872Zm-14.832.4a8.085,8.085,0,0,0-3.332-.686,5.277,5.277,0,0,0-1.64.172,0.608,0.608,0,0,0-.45.6q0,0.6,1.405,1.515a21.433,21.433,0,0,1,2.612,1.916,4.5,4.5,0,0,1,1.405,3.231,3.075,3.075,0,0,1-1.692,2.73,9.174,9.174,0,0,1-4.706,1.014,21.319,21.319,0,0,1-4.761-.571l-0.6-4.117a23.456,23.456,0,0,0,2.338.743,7.811,7.811,0,0,0,1.909.257,4.276,4.276,0,0,0,1.391-.172,0.648,0.648,0,0,0,.474-0.657q0-.485-2.7-2.43t-2.7-4.116a3.175,3.175,0,0,1,1.239-2.688,7.414,7.414,0,0,1,4.527-1.115,33.384,33.384,0,0,1,4.787.459Zm-41.685-4.087v-2.574l5.422-1.114v3.688h3.242v3.744h-3.242v4.859a2.336,2.336,0,0,0,.4,1.545,1.408,1.408,0,0,0,1.118.457,4.544,4.544,0,0,0,1.219-.2l0.9-.257-0.6,4.031a14.545,14.545,0,0,1-3.586.457,6.519,6.519,0,0,1-3.442-.715,3.438,3.438,0,0,1-1.435-3.145V109.93h-2.152v-3.744h2.152Zm-8.463,4.516a12.606,12.606,0,0,0-3.758-.772,3.355,3.355,0,0,0-2.626.944,3.543,3.543,0,0,0-.845,2.459,3.5,3.5,0,0,0,.745,2.373,3.408,3.408,0,0,0,2.726,1.03,7.389,7.389,0,0,0,1.606-.2q0.888-.2,2.037-0.571l-0.632,4.345a14.99,14.99,0,0,1-2.051.385,17.976,17.976,0,0,1-2.138.13,8.19,8.19,0,0,1-5.422-1.658q-2.323-1.943-2.324-6a7.664,7.664,0,0,1,1.636-5.146,6.631,6.631,0,0,1,5.365-2.172q1.319,0,2.5.1a15.845,15.845,0,0,1,2.61.471Zm-24.444.886a2.6,2.6,0,0,0-.588-1.916,2.186,2.186,0,0,0-1.592-.571,2.348,2.348,0,0,0-1.578.515,2.89,2.89,0,0,0-.947,1.972h4.7Zm-2.238-5.746a7.968,7.968,0,0,1,5.623,1.858,6.144,6.144,0,0,1,1.923,4.746v1.714H249.574a2.689,2.689,0,0,0,1.076,2.273,4.561,4.561,0,0,0,2.826.814,11.11,11.11,0,0,0,2.194-.228q1.133-.23,2.8-0.716l-0.544,3.945a19.716,19.716,0,0,1-2.6.443q-1.279.129-2.855,0.13-4.3,0-6.426-2.116a7.253,7.253,0,0,1-1.923-5.374,7.424,7.424,0,0,1,1.807-5.261Q248,105.842,252.041,105.843Zm-22.464.343v-2.059a3.11,3.11,0,0,1,1.249-2.63,5.725,5.725,0,0,1,3.513-.942,16.858,16.858,0,0,1,4.073.543l0.4,3.688q-0.66-.2-1.347-0.343a5.918,5.918,0,0,0-1.177-.143,1.52,1.52,0,0,0-1.09.315,2.212,2.212,0,0,0-.43,1.572h3.214v3.744H235v10.549h-5.422V109.93h-1.692v-3.744h1.692Zm-13.656,1.629a6.672,6.672,0,0,1,1.478-1.429,3.668,3.668,0,0,1,2.032-.543c0.176,0,.359,0,0.554.014a1.937,1.937,0,0,1,.636.158l0.406,4.574a4.973,4.973,0,0,0-.817-0.171,6.9,6.9,0,0,0-.876-0.058A2.875,2.875,0,0,0,217,111.374a4.035,4.035,0,0,0-.847,2.672v6.432H210.7V106.186h5.221v1.629Zm-17.93,3.774a2.6,2.6,0,0,0-.588-1.916,2.186,2.186,0,0,0-1.592-.571,2.344,2.344,0,0,0-1.578.515,2.889,2.889,0,0,0-.947,1.972h4.7Zm-2.238-5.746a7.968,7.968,0,0,1,5.623,1.858,6.143,6.143,0,0,1,1.921,4.746v1.714H193.286a2.689,2.689,0,0,0,1.076,2.273,4.56,4.56,0,0,0,2.826.814,11.111,11.111,0,0,0,2.194-.228q1.133-.23,2.8-0.716l-0.546,3.945a19.675,19.675,0,0,1-2.6.443q-1.276.129-2.854,0.13-4.3,0-6.426-2.116a7.253,7.253,0,0,1-1.923-5.374,7.417,7.417,0,0,1,1.807-5.261Q191.708,105.842,195.753,105.843ZM170.363,110.1v3.287a3.91,3.91,0,0,0,.833,2.544,2.555,2.555,0,0,0,2.065,1.029,2.339,2.339,0,0,0,1.879-.928,4.175,4.175,0,0,0,.761-2.7,3.936,3.936,0,0,0-.632-2.373,3.257,3.257,0,0,0-2.782-1.143,9.425,9.425,0,0,0-1.034.056A6.326,6.326,0,0,0,170.363,110.1Zm-5.45-3.458q0.144-.029,2.782-0.371a40.906,40.906,0,0,1,5.193-.429q4.648,0,6.8,2.63a8.024,8.024,0,0,1,1.664,5.259,8.409,8.409,0,0,1-1.262,4.632,5.049,5.049,0,0,1-4.505,2.458,8.157,8.157,0,0,1-2.41-.343,9.02,9.02,0,0,1-2.811-1.458v8h-5.45V106.643Zm-26.48,4.945a2.6,2.6,0,0,0-.588-1.916,2.187,2.187,0,0,0-1.592-.571,2.349,2.349,0,0,0-1.578.515,2.891,2.891,0,0,0-.947,1.972h4.705Zm-2.238-5.746a7.969,7.969,0,0,1,5.623,1.858,6.144,6.144,0,0,1,1.921,4.746v1.714H133.727a2.688,2.688,0,0,0,1.076,2.273,4.56,4.56,0,0,0,2.826.814,11.114,11.114,0,0,0,2.194-.228q1.133-.23,2.8-0.716l-0.546,3.945a19.64,19.64,0,0,1-2.6.443q-1.276.129-2.854,0.13-4.3,0-6.426-2.116a7.252,7.252,0,0,1-1.923-5.374,7.422,7.422,0,0,1,1.807-5.261Q132.149,105.842,136.194,105.843Zm-15.607,4.973v9.663h-5.509v-7.6a2.916,2.916,0,0,0-.486-1.774,2.043,2.043,0,0,0-1.751-.771,2.711,2.711,0,0,0-2.409,1.257,7.241,7.241,0,0,0-.831,3.917v4.973h-5.48v-19.1h5.48v6.861a5.5,5.5,0,0,1,2.539-1.944,7.979,7.979,0,0,1,2.826-.457,6.42,6.42,0,0,1,3.95,1.086A4.553,4.553,0,0,1,120.587,110.816Zm-40.166-5.345v-4.089h17.99v4.089h-5.94v15.008H86.418V105.471h-6Z" transform="translate(-1.877 -1.362)"/><path class="b" d="M458.288,109.3a7.548,7.548,0,0,1,2.467-1.83,7.671,7.671,0,0,1,3.214-.629,5.827,5.827,0,0,1,4.145,1.315,4.791,4.791,0,0,1,1.391,3.658v9.663H464v-7.6a2.86,2.86,0,0,0-.56-1.859,2.038,2.038,0,0,0-1.678-.685,2.617,2.617,0,0,0-2.453,1.415,7.7,7.7,0,0,0-.789,3.76v4.973h-5.48V107.186h5.135v2.058Zm-21.116-2.4a8.812,8.812,0,0,1,6.4,2.173,6.994,6.994,0,0,1,2.066,5.261,7.137,7.137,0,0,1-2.038,5.289,10.324,10.324,0,0,1-12.708.028,7.8,7.8,0,0,1-.115-10.577Q432.984,106.9,437.171,106.9Zm0.058,3.974a2.69,2.69,0,0,0-2.324,1.115,3.97,3.97,0,0,0-.688,2.4,3.854,3.854,0,0,0,.788,2.459,2.906,2.906,0,0,0,4.461-.086,3.775,3.775,0,0,0,.747-2.373,3.98,3.98,0,0,0-.717-2.429A2.655,2.655,0,0,0,437.229,110.872Zm-21.143-4.945v-3.4h5.45v3.4h-5.45ZM416,121.479V107.186h5.45v14.293H416Zm-16.756-14.293v-2.574l5.422-1.114v3.688h3.242v3.744h-3.242v4.859a2.344,2.344,0,0,0,.4,1.545,1.41,1.41,0,0,0,1.118.457,4.544,4.544,0,0,0,1.219-.2l0.9-.257-0.6,4.031a14.544,14.544,0,0,1-3.585.457,6.522,6.522,0,0,1-3.443-.715,3.438,3.438,0,0,1-1.435-3.145V110.93h-2.152v-3.744h2.152Zm-19.566,14.636a6.33,6.33,0,0,1-4.03-1.044,4.056,4.056,0,0,1-1.277-3.331V107.186h5.48v7.661a2.772,2.772,0,0,0,.574,2.03,2.414,2.414,0,0,0,1.664.457,2.281,2.281,0,0,0,1.922-.958,5.129,5.129,0,0,0,.717-3.045v-6.145h5.421v14.293h-5.421v-1.83Q383.236,121.822,379.679,121.822Zm-19.967-.343v-19.1h5.452v19.1h-5.452ZM343.646,106.9a8.81,8.81,0,0,1,6.4,2.173,7,7,0,0,1,2.066,5.261,7.138,7.138,0,0,1-2.038,5.289,10.324,10.324,0,0,1-12.708.028,7.8,7.8,0,0,1-.115-10.577Q339.457,106.9,343.646,106.9Zm0.056,3.974a2.69,2.69,0,0,0-2.324,1.115,3.972,3.972,0,0,0-.688,2.4,3.847,3.847,0,0,0,.789,2.459,2.9,2.9,0,0,0,4.46-.086,3.777,3.777,0,0,0,.747-2.373,3.98,3.98,0,0,0-.717-2.429A2.655,2.655,0,0,0,343.7,110.872Zm-14.832.4a8.085,8.085,0,0,0-3.332-.686,5.277,5.277,0,0,0-1.64.172,0.608,0.608,0,0,0-.45.6q0,0.6,1.405,1.515a21.433,21.433,0,0,1,2.612,1.916,4.5,4.5,0,0,1,1.405,3.231,3.075,3.075,0,0,1-1.692,2.73,9.174,9.174,0,0,1-4.706,1.014,21.319,21.319,0,0,1-4.761-.571l-0.6-4.117a23.456,23.456,0,0,0,2.338.743,7.811,7.811,0,0,0,1.909.257,4.276,4.276,0,0,0,1.391-.172,0.648,0.648,0,0,0,.474-0.657q0-.485-2.7-2.43t-2.7-4.116a3.175,3.175,0,0,1,1.239-2.688,7.414,7.414,0,0,1,4.527-1.115,33.384,33.384,0,0,1,4.787.459Zm-41.685-4.087v-2.574l5.422-1.114v3.688h3.242v3.744h-3.242v4.859a2.336,2.336,0,0,0,.4,1.545,1.408,1.408,0,0,0,1.118.457,4.544,4.544,0,0,0,1.219-.2l0.9-.257-0.6,4.031a14.545,14.545,0,0,1-3.586.457,6.519,6.519,0,0,1-3.442-.715,3.438,3.438,0,0,1-1.435-3.145V110.93h-2.152v-3.744h2.152Zm-8.463,4.516a12.606,12.606,0,0,0-3.758-.772,3.355,3.355,0,0,0-2.626.944,3.543,3.543,0,0,0-.845,2.459,3.5,3.5,0,0,0,.745,2.373,3.408,3.408,0,0,0,2.726,1.03,7.389,7.389,0,0,0,1.606-.2q0.888-.2,2.037-0.571l-0.632,4.345a14.99,14.99,0,0,1-2.051.385,17.976,17.976,0,0,1-2.138.13,8.19,8.19,0,0,1-5.422-1.658q-2.323-1.943-2.324-6a7.664,7.664,0,0,1,1.636-5.146,6.631,6.631,0,0,1,5.365-2.172q1.319,0,2.5.1a15.845,15.845,0,0,1,2.61.471Zm-24.444.886a2.6,2.6,0,0,0-.588-1.916,2.186,2.186,0,0,0-1.592-.571,2.348,2.348,0,0,0-1.578.515,2.89,2.89,0,0,0-.947,1.972h4.7Zm-2.238-5.746a7.968,7.968,0,0,1,5.623,1.858,6.144,6.144,0,0,1,1.923,4.746v1.714H249.574a2.689,2.689,0,0,0,1.076,2.273,4.561,4.561,0,0,0,2.826.814,11.11,11.11,0,0,0,2.194-.228q1.133-.23,2.8-0.716l-0.544,3.945a19.716,19.716,0,0,1-2.6.443q-1.279.129-2.855,0.13-4.3,0-6.426-2.116a7.253,7.253,0,0,1-1.923-5.374,7.424,7.424,0,0,1,1.807-5.261Q248,106.842,252.041,106.843Zm-22.464.343v-2.059a3.11,3.11,0,0,1,1.249-2.63,5.725,5.725,0,0,1,3.513-.942,16.858,16.858,0,0,1,4.073.543l0.4,3.688q-0.66-.2-1.347-0.343a5.918,5.918,0,0,0-1.177-.143,1.52,1.52,0,0,0-1.09.315,2.212,2.212,0,0,0-.43,1.572h3.214v3.744H235v10.549h-5.422V110.93h-1.692v-3.744h1.692Zm-13.656,1.629a6.672,6.672,0,0,1,1.478-1.429,3.668,3.668,0,0,1,2.032-.543c0.176,0,.359,0,0.554.014a1.937,1.937,0,0,1,.636.158l0.406,4.574a4.973,4.973,0,0,0-.817-0.171,6.9,6.9,0,0,0-.876-0.058A2.875,2.875,0,0,0,217,112.374a4.035,4.035,0,0,0-.847,2.672v6.432H210.7V107.186h5.221v1.629Zm-17.93,3.774a2.6,2.6,0,0,0-.588-1.916,2.186,2.186,0,0,0-1.592-.571,2.344,2.344,0,0,0-1.578.515,2.889,2.889,0,0,0-.947,1.972h4.7Zm-2.238-5.746a7.968,7.968,0,0,1,5.623,1.858,6.143,6.143,0,0,1,1.921,4.746v1.714H193.286a2.689,2.689,0,0,0,1.076,2.273,4.56,4.56,0,0,0,2.826.814,11.111,11.111,0,0,0,2.194-.228q1.133-.23,2.8-0.716l-0.546,3.945a19.675,19.675,0,0,1-2.6.443q-1.276.129-2.854,0.13-4.3,0-6.426-2.116a7.253,7.253,0,0,1-1.923-5.374,7.417,7.417,0,0,1,1.807-5.261Q191.708,106.842,195.753,106.843ZM170.363,111.1v3.287a3.91,3.91,0,0,0,.833,2.544,2.555,2.555,0,0,0,2.065,1.029,2.339,2.339,0,0,0,1.879-.928,4.175,4.175,0,0,0,.761-2.7,3.936,3.936,0,0,0-.632-2.373,3.257,3.257,0,0,0-2.782-1.143,9.425,9.425,0,0,0-1.034.056A6.326,6.326,0,0,0,170.363,111.1Zm-5.45-3.458q0.144-.029,2.782-0.371a40.906,40.906,0,0,1,5.193-.429q4.648,0,6.8,2.63a8.024,8.024,0,0,1,1.664,5.259,8.409,8.409,0,0,1-1.262,4.632,5.049,5.049,0,0,1-4.505,2.458,8.157,8.157,0,0,1-2.41-.343,9.02,9.02,0,0,1-2.811-1.458v8h-5.45V107.643Zm-26.48,4.945a2.6,2.6,0,0,0-.588-1.916,2.187,2.187,0,0,0-1.592-.571,2.349,2.349,0,0,0-1.578.515,2.891,2.891,0,0,0-.947,1.972h4.705Zm-2.238-5.746a7.969,7.969,0,0,1,5.623,1.858,6.144,6.144,0,0,1,1.921,4.746v1.714H133.727a2.688,2.688,0,0,0,1.076,2.273,4.56,4.56,0,0,0,2.826.814,11.114,11.114,0,0,0,2.194-.228q1.133-.23,2.8-0.716l-0.546,3.945a19.64,19.64,0,0,1-2.6.443q-1.276.129-2.854,0.13-4.3,0-6.426-2.116a7.252,7.252,0,0,1-1.923-5.374,7.422,7.422,0,0,1,1.807-5.261Q132.149,106.842,136.194,106.843Zm-15.607,4.973v9.663h-5.509v-7.6a2.916,2.916,0,0,0-.486-1.774,2.043,2.043,0,0,0-1.751-.771,2.711,2.711,0,0,0-2.409,1.257,7.241,7.241,0,0,0-.831,3.917v4.973h-5.48v-19.1h5.48v6.861a5.5,5.5,0,0,1,2.539-1.944,7.979,7.979,0,0,1,2.826-.457,6.42,6.42,0,0,1,3.95,1.086A4.553,4.553,0,0,1,120.587,111.816Zm-40.166-5.345v-4.089h17.99v4.089h-5.94v15.008H86.418V106.471h-6Z" transform="translate(-1.877 -1.362)"/><polygon class="c" points="97.494 54.065 97.409 56.266 97.268 58.383 97.041 60.584 96.701 62.729 96.276 64.902 95.71 66.991 95.087 69.052 94.379 71.14 93.529 73.144 92.651 75.148 91.632 77.095 90.556 78.958 89.423 80.821 88.148 82.599 86.845 84.377 85.43 86.042 83.957 87.623 82.399 89.147 80.813 90.643 79.114 92.054 77.358 93.38 75.574 94.622 73.705 95.779 71.835 96.824 69.881 97.84 67.899 98.715 65.831 99.561 63.764 100.267 61.668 100.916 59.572 101.424 57.42 101.876 55.268 102.214 53.087 102.44 50.934 102.581 48.754 102.638 46.545 102.581 44.421 102.44 42.212 102.214 40.059 101.876 37.907 101.424 35.783 100.916 33.715 100.267 31.619 99.561 29.609 98.715 27.598 97.84 25.644 96.824 23.775 95.779 21.905 94.622 20.121 93.38 18.337 92.054 16.666 90.643 15.08 89.147 13.551 87.623 12.05 86.042 10.634 84.377 9.303 82.599 8.056 80.821 6.895 78.958 5.847 77.095 4.828 75.148 3.95 73.144 3.1 71.14 2.392 69.052 1.741 66.991 1.231 64.902 0.778 62.729 0.438 60.584 0.212 58.383 0.07 56.266 0.013 54.065 0.07 51.919 0.212 49.775 0.438 47.601 0.778 45.428 1.231 43.283 1.741 41.194 2.392 39.106 3.1 37.046 3.95 34.985 4.828 33.009 5.847 31.062 6.895 29.199 8.056 27.337 9.303 25.558 10.634 23.809 12.05 22.115 13.551 20.534 15.08 18.982 16.666 17.515 18.337 16.103 20.121 14.805 21.905 13.535 23.775 12.406 25.644 11.334 27.598 10.317 29.609 9.414 31.619 8.596 33.715 7.89 35.783 7.27 37.907 6.705 40.059 6.282 42.212 5.943 44.421 5.717 46.545 5.576 48.754 5.491 50.934 5.576 53.087 5.717 55.268 5.943 57.42 6.282 59.572 6.705 61.668 7.27 63.764 7.89 65.831 8.596 67.899 9.414 69.881 10.317 71.835 11.334 73.705 12.406 75.574 13.535 77.358 14.805 79.114 16.103 80.813 17.515 82.399 18.982 83.957 20.534 85.43 22.115 86.845 23.809 88.148 25.558 89.423 27.337 90.556 29.199 91.632 31.062 92.651 33.009 93.529 34.985 94.379 37.046 95.087 39.106 95.71 41.194 96.276 43.283 96.701 45.428 97.041 47.601 97.268 49.775 97.409 51.919 97.494 54.065"/><g class="d"><path class="a" d="M36.777,8.766l0.043-.011-0.091.026-0.273.086L36.708,8.8c-0.069.022-.141,0.048-0.209,0.074,0.1-.032.213-0.062,0.321-0.091-0.139.047-.139,0.047-0.225,0.081,0.042-.009.1-0.025,0.134-0.035L36.74,8.835a2.989,2.989,0,0,0-.462.149l0.064-.015,0.013,0c0.478-.122.491-0.126,0.887-0.238l0.421-.124-0.293.072,0.571-.165,0.136-.025,0.556-.142,0.494-.129,0.014,0,0.016,0.017c0.345-.078.686-0.179,1.031-0.249L40.232,8c0.006,0,.655-0.152.806-0.2l-0.289.054L40.5,7.9l0.388-.084c0.238-.04.472-0.087,0.7-0.128L41.614,7.7,41.3,7.76l-0.079.033c0.183-.026.365-0.064,0.552-0.1l0.481-.1h0.069l-0.34.067,0.063,0,0.273-.038,0.536-.1,0.175-.037,0.039,0.006,0.024,0,0.365-.057,0.227-.026c0.439-.063.879-0.114,1.319-0.168h0.073l0.253-.03,0.337-.047a3.447,3.447,0,0,1-.377.033l0.083-.017h-0.06l0.363-.043,0.187-.014,0.032,0,0.038,0.005c0.166-.016.336-0.028,0.5-0.042,0.076,0,.076,0,0.613-0.053l0.427-.043L47.294,7l0.054-.009,0.383-.034L48.1,6.925l-0.176.009-0.025,0-0.264.015L48,6.92l-0.03,0L48.245,6.9c0.069-.012.144-0.013,0.213-0.019-0.2.01-.4,0.028-0.608,0.034,0.115-.008.229-0.013,0.345-0.025-0.17.01-.337,0.024-0.506,0.029,0.175-.013.35-0.023,0.524-0.036l0.092-.008c-0.145.006-.448,0.023-0.853,0.051h0c0.148-.012.3-0.022,0.447-0.034H47.886l-0.331.021,0,0L47.629,6.9c-0.113,0-.227.012-0.337,0.018l-0.441.031,0.055,0H46.834l0.289-.022-0.08,0-0.653.052a0.128,0.128,0,0,0,.035-0.007l-0.207.02,0,0-0.276.018,0,0,0.006,0-0.327.032,0.048-.007L45.3,7.072l-0.09.009-0.084.011-0.489.055c-0.77.1-.77,0.1-0.917,0.13l0.487-.063,0.285-.036,0.078-.007-0.364.045-0.485.063-0.488.072,0.034,0L43.2,7.367l0.563-.08-0.078.018,0.012,0,0.412-.053,0.371-.048,0.59-.063-0.064.012-0.056,0c-0.259.03-.529,0.058-0.791,0.09H44.22l-0.074.014-0.032.008-0.327.043-0.016,0H43.719l-0.172.024c-0.1.006-.2,0.022-0.3,0.034l0,0-0.085.011-0.4.063-0.073.017-0.24.043-0.4.072L41.9,7.609l-0.086.01a1.61,1.61,0,0,1,.227-0.07L41.747,7.6l-0.193.034,0.109-.02c0.136-.029.267-0.056,0.4-0.081l0.4-.071c0.109-.017.215-0.034,0.325-0.053l0.269-.044-0.242.037c0.01,0,.742-0.121,1.373-0.205,0.305-.038.611-0.074,0.918-0.113C45,7.1,44.884,7.115,44.768,7.128l-0.016,0c-0.136.017-.266,0.035-0.4,0.049l0.014,0c-0.267.033-.539,0.071-0.81,0.11l0.06-.009-0.072.01-0.518.078L42.814,7.4l-0.524.085-0.027,0c-0.087.017-.179,0.035-0.269,0.049L41.642,7.6l-0.1.018L41.626,7.6l0.022,0c-0.2.037-.4,0.075-0.595,0.111l0.018,0-0.221.046-0.373.076-0.556.122-0.272.062,0.1-.021-0.055.014h0l-0.309.071L39.287,8.1l-0.048.014,0.153-.031,0.013,0-0.122.034v0l0.079-.013-0.354.081-0.429.107-0.044.021c0.215-.048.427-0.1,0.642-0.149l-0.514.124-0.434.1-0.044,0c0.237-.067.478-0.125,0.716-0.2-0.387.1-.778,0.2-1.162,0.3l-0.082.022-0.013,0-0.027,0-0.445.126-0.2.059,0.089-.027H37.05l-0.006,0-0.015,0-0.166.05L36.637,8.8,36.668,8.8,36.639,8.8l-0.024.008,0.078-.023Z" transform="translate(-1.877 -1.362)"/><path class="a" d="M43.03,7.382l-0.443.071-0.153.026c0.161-.02.323-0.038,0.481-0.071Z" transform="translate(-1.877 -1.362)"/><path class="a" d="M59.028,7.671c0.1,0.02.2,0.039,0.3,0.062s0.2,0.042.292,0.057l0,0c-0.06-.018-0.142-0.036-0.257-0.061-0.006,0-.392-0.082-0.454-0.089l0.1,0.023c-0.046-.005-0.092-0.015-0.135-0.022Z" transform="translate(-1.877 -1.362)"/><path class="a" d="M58.3,8.141l0.019,0.007L58.33,8.155c0.138,0.051.192,0.066,0.193,0.067H58.58L58.55,8.2l-0.006-.02-0.066-.023C58.424,8.137,58.37,8.123,58.314,8.1l0,0.01,0.021,0.019H58.317l0.009,0.007H58.3Z" transform="translate(-1.877 -1.362)"/><path class="a" d="M59.66,7.767a4.748,4.748,0,0,1,.62.144H60.266a4.639,4.639,0,0,0,.48.114L60.7,8.008h0.014c0.105,0.021.209,0.05,0.315,0.071a0.637,0.637,0,0,0,.229.039,1.878,1.878,0,0,1-.237-0.064h0.02c-0.06-.022-0.124-0.022-0.182-0.05l0.021,0a1.846,1.846,0,0,0-.362-0.088c-0.1-.023-0.2-0.044-0.3-0.069h0.01c-0.069-.018-0.14-0.033-0.213-0.049L59.917,7.78l-0.038-.008-0.042,0c-0.462-.095-0.585-0.116-0.646-0.125a2.946,2.946,0,0,1,.476.117H59.66Z" transform="translate(-1.877 -1.362)"/><path class="a" d="M61.189,8.151a3.833,3.833,0,0,0,.532.125H61.73c0.076,0.016.151,0.036,0.225,0.057a0.253,0.253,0,0,0,.11.021s-0.122-.039-0.2-0.061L61.75,8.26,61.6,8.223c-0.052-.014-0.1-0.027-0.155-0.038l0.02,0.009c-0.088-.016-0.176-0.039-0.268-0.056H61.188L61.14,8.131l0.067,0.02H61.189Z" transform="translate(-1.877 -1.362)"/><path class="a" d="M56.39,7.973l-0.012-.038V7.928a0.434,0.434,0,0,1,.152.011V7.932a0.457,0.457,0,0,1,.188.089l-0.058,0L56.825,8.1c0.048,0.021.149,0.056,0.2,0.072a0.815,0.815,0,0,0,.25.058,0.623,0.623,0,0,0-.317-0.179l-0.089-.037a0.316,0.316,0,0,1,.106,0h0.015l0.025-.006a0.419,0.419,0,0,0-.147-0.085C56.814,7.9,56.754,7.878,56.7,7.858a0.461,0.461,0,0,0-.086-0.01c-0.088-.034-0.179-0.067-0.268-0.1L56.28,7.731h0V7.74H56.252l0,0a0.459,0.459,0,0,1,.2.1A1.234,1.234,0,0,1,56.3,7.827l0,0.007,0.028,0.028h-0.01a1.292,1.292,0,0,1-.177-0.035,0.452,0.452,0,0,1,.171.093,2.19,2.19,0,0,0-.221-0.053H56.037A1.147,1.147,0,0,0,56.4,8Z" transform="translate(-1.877 -1.362)"/><path class="a" d="M56.533,7.618c0.122,0.062.262,0.074,0.385,0.126l-0.084-.007H56.761c0.064,0.03.136,0.042,0.2,0.066l0,0.007a0.675,0.675,0,0,0,.124.04l0.171,0.062-0.073.009,0.022,0.034H57.184a0.638,0.638,0,0,0,.091.053l0.071,0.036,0.089,0.027-0.006,0v0a0.85,0.85,0,0,1-.193-0.085l0.054,0-0.046-.033h0.046l-0.048-.025,0.046-.007c0-.011,0-0.011-0.058-0.03l-0.035-.015c0.078,0.007.147,0.038,0.223,0.044h0.041a3.416,3.416,0,0,1-.412-0.143l0.16,0.03a0.426,0.426,0,0,0,.272.054l-0.106-.035a1.327,1.327,0,0,0-.13-0.039c-0.044-.013-0.087-0.028-0.135-0.042l-0.039,0,0.005,0.006a1.5,1.5,0,0,1-.414-0.124,0.884,0.884,0,0,0-.123-0.033l0,0.007,0.01,0.011h-0.02Z" transform="translate(-1.877 -1.362)"/><path class="a" d="M57.564,7.754a1.519,1.519,0,0,0,.144.059L57.63,7.8s0.528,0.143.6,0.145l0-.005a0.869,0.869,0,0,0-.227-0.086,0.112,0.112,0,0,1-.071-0.029,0.365,0.365,0,0,1-.108-0.049v0c-0.066-.016-0.131-0.037-0.2-0.048H57.607l-0.09-.01-0.006,0,0.124,0.04Z" transform="translate(-1.877 -1.362)"/><path class="a" d="M57.5,7.82L57.394,7.8a1.772,1.772,0,0,1,.22.069v0a1.086,1.086,0,0,0,.186.079A1.22,1.22,0,0,0,58.039,8l0.009,0-0.055-.029,0.03,0h0.032a0.667,0.667,0,0,0,.136.008l-0.022-.012a0.442,0.442,0,0,0-.149-0.039c-0.05-.016-0.1-0.03-0.154-0.045C57.713,7.841,57.557,7.8,57.4,7.756l-0.089-.026-0.054-.008a0.093,0.093,0,0,0,.056.025A0.783,0.783,0,0,1,57.5,7.82Z" transform="translate(-1.877 -1.362)"/><path class="a" d="M61.421,8.151a1.326,1.326,0,0,0,.265.078H61.676c0.1,0.038.2,0.062,0.307,0.091L62.1,8.35c0.222,0.046.222,0.046,0.752,0.2l0.09-.007c0.141,0.023.275,0.079,0.417,0.1l0-.013,0.06,0.007,0.019-.006c-0.117-.042-0.125-0.044-0.258-0.083-0.1-.029-0.212-0.058-0.324-0.086A8.481,8.481,0,0,1,62,8.237l-0.7-.157c0.111,0.032.229,0.05,0.337,0.09A1.55,1.55,0,0,1,61.361,8.1a1.32,1.32,0,0,0-.241-0.046v0a1.5,1.5,0,0,1,.326.092H61.421Z" transform="translate(-1.877 -1.362)"/><path class="a" d="M99.33,52.468c-0.014-.229-0.038-0.464-0.057-0.706,0.014,0.19.029,0.386,0.045,0.58C99.322,52.383,99.327,52.426,99.33,52.468Z" transform="translate(-1.877 -1.362)"/><path class="a" d="M99.362,52.937L99.353,52.8l0.009,0.157V52.937Z" transform="translate(-1.877 -1.362)"/><path class="a" d="M64.7,8.913l0,0c0.071,0.017.139,0.039,0.209,0.06A0.31,0.31,0,0,0,65.025,9l0.009,0L64.9,8.957c-0.327-.1-0.4-0.114-0.421-0.119l0,0L64.39,8.816v0h0L64.5,8.855A0.979,0.979,0,0,0,64.7,8.913Z" transform="translate(-1.877 -1.362)"/><path class="a" d="M65.448,14.872l0.1-.048,0.032-.011-0.021-.1a0.193,0.193,0,0,0-.2-0.107,0.157,0.157,0,0,1-.089-0.044,1.873,1.873,0,0,1-.134-0.139l-0.452-.006,0.068,0.106,0.1,0.086c0.111,0.136.216,0.275,0.324,0.412l0.224,0c0.079,0,.069-0.021.029-0.09-0.028-.043-0.028-0.049-0.02-0.061h0.04Z" transform="translate(-1.877 -1.362)"/><path class="a" d="M66.23,9.6c-0.078-.031-0.492-0.182-0.528-0.181h-0.01a2.191,2.191,0,0,1,.257.105c0.06,0.022.118,0.046,0.181,0.067l-0.06-.027a0.641,0.641,0,0,1,.145.037H66.23Z" transform="translate(-1.877 -1.362)"/><path class="a" d="M52.829,8.087h0.033l0.08,0.029A1.267,1.267,0,0,1,53.074,8.1a0.156,0.156,0,0,1,.12.08c-0.082,0-.168-0.005-0.243-0.005L52.976,8.26a0.668,0.668,0,0,0,.166.076l0.186,0a0.167,0.167,0,0,1,.1,0L53.5,8.395a0.345,0.345,0,0,0,.2.021c0.05-.014.05-0.108,0.11-0.088,0.129,0.046.129,0.046,0.187,0l-0.026-.045L53.929,8.2c0.017-.041.07-0.011,0.086-0.051l0.016-.018a0.385,0.385,0,0,0-.13-0.075c-0.085-.016-0.1,0-0.1.012l-0.023.011-0.062,0a0.245,0.245,0,0,0-.21-0.145c-0.018.135-.018,0.135-0.11,0.092L53.4,7.943l-0.012-.018L53.36,7.89,53.337,7.9l0,0.03-0.009.006-0.012,0-0.042-.017-0.081,0a0.289,0.289,0,0,1,.064.2L53.224,8.1a0.227,0.227,0,0,0-.162-0.159,0.985,0.985,0,0,0-.308-0.011S52.64,8.017,52.829,8.087Z" transform="translate(-1.877 -1.362)"/><path class="a" d="M63.31,8.577c1.627,0.51,1.627.51,1.714,0.532-0.175-.079-0.369-0.1-0.538-0.2l0.08,0.021,0.026-.009c-0.059-.021-0.114-0.035-0.17-0.057l0.025,0-0.1-.038,0.049,0.006c-0.037-.013-0.149-0.05-0.337-0.1C64,8.712,63.935,8.693,63.871,8.677s-0.128-.039-0.193-0.055l-0.023,0a5.649,5.649,0,0,0-.723-0.185c0.1,0.029.193,0.053,0.291,0.084h0c-0.262-.059-0.52-0.146-0.786-0.206l0,0c0.293,0.092.594,0.166,0.891,0.257H63.31Z" transform="translate(-1.877 -1.362)"/><path class="a" d="M65.021,12.522l-0.053-.049c0.01-.031.014-0.061-0.206-0.228a0.645,0.645,0,0,1-.137-0.127l0.018-.014a0.739,0.739,0,0,0-.082-0.147l-0.074-.071,0.028-.018,0.03-.016-0.092-.072,0.03-.018a0.406,0.406,0,0,0-.162-0.189,0.18,0.18,0,0,0-.062-0.107l0.041-.006a4.8,4.8,0,0,0-.4-0.422,0.453,0.453,0,0,0,.141,0A0.1,0.1,0,0,1,64,10.971l0.044-.007-0.024-.04-0.092-.074L64,10.828a1.246,1.246,0,0,0-.358-0.314c0.055-.025.121,0.007,0.179-0.021a0.658,0.658,0,0,1-.112-0.127l0.018,0V10.319c0.08,0,.15,0,0.228,0a0.333,0.333,0,0,0-.088-0.087l0.118-.016-0.1-.09a1.231,1.231,0,0,0,.169-0.009,1.343,1.343,0,0,0-.286-0.187V9.907l0.069,0c-0.048-.025-0.088-0.051-0.134-0.073a2.042,2.042,0,0,0-.592-0.2H63.079l-0.035.014a0.094,0.094,0,0,0-.064.006,1.027,1.027,0,0,0,.294.189l0,0.02a0.093,0.093,0,0,0-.087,0,0.27,0.27,0,0,1,.078.09l-0.117,0,0,0.021,0.008,0.042,0.028,0.035c-0.085-.007-0.174-0.01-0.257-0.016H62.878l-0.016.015-0.082.005,0.013,0.018c-0.018.028-.018,0.028,0.23,0.224a2.343,2.343,0,0,0-.278.011,0.482,0.482,0,0,0,.143.143v0.023a0.229,0.229,0,0,1-.062.025,0.528,0.528,0,0,0,.323.259,0.476,0.476,0,0,0-.251,0,3.846,3.846,0,0,1,.385.325l0.088,0.063c0.06,0.043.12,0.089,0.183,0.133a0.608,0.608,0,0,0-.231.03,0.1,0.1,0,0,0,0,.144s0.225,0.27.251,0.1a0.257,0.257,0,0,1,.211.12l0.042,0.035,0.113,0.071c-0.086.035-.184-0.007-0.269,0.031,0.092,0.077.183,0.153,0.273,0.231-0.147,0-.193-0.007-0.179.063a0.724,0.724,0,0,0,.255.219c-0.009.021-.009,0.021,0.139,0.194a0.378,0.378,0,0,0-.175,0,0.427,0.427,0,0,0,.112.142l-0.022.038a4.87,4.87,0,0,0,.379.383l0.185,0.023-0.062-.084c0.014-.021.033-0.046,0.1-0.013a1.894,1.894,0,0,0,.226.156,0.2,0.2,0,0,0-.1-0.156,2.485,2.485,0,0,1,.6.3l0.072,0.18,0.042,0.041,0.11,0.078,0.343,0a6.282,6.282,0,0,0,.652.1,0.52,0.52,0,0,0,.11-0.007c0.016-.013.016-0.013,0.08,0-0.06-.057-0.12-0.115-0.184-0.171-0.041-.03-0.041-0.03-1.1-0.65C65.358,12.763,65.181,12.652,65.021,12.522Z" transform="translate(-1.877 -1.362)"/><path class="a" d="M57.985,8.057h0.1l-0.1-.036-0.111-.036H57.7l0.08,0.058c0.057,0.026.044,0.036,0.039,0.041,0.073,0.027.147,0.057,0.223,0.086h0.112c-0.065-.036-0.141-0.057-0.208-0.1a1.938,1.938,0,0,0,.349.115l-0.027-.019h0.025C58.234,8.144,58.128,8.107,57.985,8.057Z" transform="translate(-1.877 -1.362)"/><polygon class="a" points="39.539 6.281 39.669 6.257 39.601 6.269 39.539 6.281"/><polygon class="a" points="34.611 7.488 34.033 7.664 33.448 7.856 33.471 7.852 33.268 7.926 33.346 7.908 33.359 7.904 34.737 7.45 34.611 7.488"/><path class="a" d="M34.045,9.659L34.1,9.64l0.141-.051C34.182,9.609,34.112,9.635,34.045,9.659Z" transform="translate(-1.877 -1.362)"/><path class="a" d="M42.222,7.515l-0.18.034a3.412,3.412,0,0,1,.391-0.07Z" transform="translate(-1.877 -1.362)"/><polygon class="a" points="50.962 6.956 50.969 6.977 50.971 6.976 50.962 6.956"/><path class="a" d="M42.323,7.477l-0.038.008L42.814,7.4H42.8C42.64,7.424,42.485,7.451,42.323,7.477Z" transform="translate(-1.877 -1.362)"/><path class="a" d="M33.969,9.686l0.076-.027L33.929,9.7Z" transform="translate(-1.877 -1.362)"/><path class="a" d="M38.33,8.342c0.107-.026.209-0.054,0.311-0.082l0.329-.081-0.032,0-0.032.008-0.227.057-0.12.028-0.12.031-0.018,0-0.016,0-0.381.1-0.185.05c0.16-.043.323-0.084,0.485-0.126Z" transform="translate(-1.877 -1.362)"/><path class="a" d="M51.64,8.806l0.017-.116a0.11,0.11,0,0,1,.081,0l0.026,0.1a0.142,0.142,0,0,0,.146.057h0.05c0.079,0.016.065-.1,0.106-0.136A0.106,0.106,0,0,0,52.144,8.7l-0.008-.036V8.589l0.073-.008a0.17,0.17,0,0,1,.057.155,0.58,0.58,0,0,0,.151.017l0.069-.066L52.53,8.72l0.011,0.1,0.025,0.013c-0.011.048-.011,0.048-0.114,0.033l-0.052,0a0.6,0.6,0,0,0-.479.119l-0.007.1a0.709,0.709,0,0,1,.12-0.021l0.056,0a0.284,0.284,0,0,0,.215.011,1.014,1.014,0,0,1,.157-0.1h0.02c0.043,0.007.043,0.007,0.073,0.063l-0.03.047-0.184.094c-0.451-.072-0.383.087-0.334,0.158C52.046,9.4,52.062,9.4,52.177,9.4s0.116,0,.364.332l0.049-.015,0-.053a0.519,0.519,0,0,0,.173-0.168,0.406,0.406,0,0,1,.016-0.224c0.035-.048.052-0.046,0.144-0.04-0.008-.085-0.022-0.166-0.036-0.245,0.058,0,.128.009,0.144-0.061A0.514,0.514,0,0,1,52.952,8.7c0.093,0,.183,0,0.278,0l0.006,0.016c0.02,0.062-.027.184,0.064,0.184a0.175,0.175,0,0,1,.2.214c-0.088.058-.075,0.092-0.033,0.192l0.1,0a0.537,0.537,0,0,1,.178-0.134C53.8,9.187,53.8,9.187,53.86,9.367c0.041,0,.086,0,0.13.005l0.028-.015,0-.113,0.259,0.008,0.074-.023-0.014-.051a0.386,0.386,0,0,0-.311-0.1,0.548,0.548,0,0,1-.068-0.149,2.193,2.193,0,0,0-.27-0.019,0.243,0.243,0,0,0-.117-0.178,0.167,0.167,0,0,1-.139-0.121c-0.046-.027-0.1-0.006-0.148-0.03s-0.057-.089-0.107-0.115L53.13,8.454A0.865,0.865,0,0,0,53,8.494a0.264,0.264,0,0,1-.133-0.055l-0.023-.1-0.137-.023a0.346,0.346,0,0,1,.015-0.152c-0.087-.022-0.2-0.05-0.292-0.07l-0.026,0a0.1,0.1,0,0,0-.04.115l0.007,0.039a0.257,0.257,0,0,1,.041.133,0.076,0.076,0,0,1-.109.06l-0.046-.1-0.008-.052L52.243,8.26l0-.05-0.009-.066-0.066-.01c-0.064.03-.088,0.1-0.154,0.129l-0.11,0,0-.067,0.084-.062,0-.041a0.145,0.145,0,0,0-.114.078c-0.073,0-.141,0-0.214,0-0.317.055-.114,0.194-0.114,0.194,0.04,0.021.1-.041,0.126,0.011,0,0,.033.058-0.052,0.109a0.8,0.8,0,0,1,0,.247,0.36,0.36,0,0,0-.184-0.2,0.379,0.379,0,0,0,.016.189C51.587,8.9,51.64,8.806,51.64,8.806Z" transform="translate(-1.877 -1.362)"/><path class="a" d="M41.992,7.535L41.642,7.6l0.112-.019C41.833,7.562,41.915,7.552,41.992,7.535Z" transform="translate(-1.877 -1.362)"/><path class="a" d="M47.117,22.3c0,0.045.042,0.072,0.04,0.118l-0.013.087c0.351,0.006.351,0.006,0.362,0.009l0.041,0.059a0.546,0.546,0,0,0,.131.182c0.07-.016.162-0.036,0.231-0.053,0.086,0.025.16,0.073,0.248,0.1a0.511,0.511,0,0,0,.1,0,0.4,0.4,0,0,0,.261-0.132,0.087,0.087,0,0,1,.078-0.059,0.392,0.392,0,0,0,.205-0.018,0.75,0.75,0,0,0,.132-0.093l0.057-.1c0.039-.053.1-0.086,0.147-0.137-0.65-.025-1.3-0.045-1.949-0.069l-0.012.016A0.27,0.27,0,0,0,47.117,22.3Z" transform="translate(-1.877 -1.362)"/><path class="a" d="M95.25,73.121l0.023-.019c0.077-.2.151-0.4,0.225-0.6a0.517,0.517,0,0,1,.006-0.138c0.022-.087.024-0.095-0.008-0.12l-0.038.007a1.545,1.545,0,0,1,.1-0.445,1.677,1.677,0,0,0,.18-0.752,5.628,5.628,0,0,0-.393,1.568,0.231,0.231,0,0,1-.016.181A1.252,1.252,0,0,0,95.25,73.121Z" transform="translate(-1.877 -1.362)"/><path class="a" d="M96.385,71.516a1.2,1.2,0,0,0-.17.381l-0.056.011a7.274,7.274,0,0,0,.231-0.715l-0.037.007-0.035-.026a4.128,4.128,0,0,1,.076-0.44c0.085-.261.165-0.518,0.225-0.771l-0.037.017-0.042-.021c0.039-.343.187-0.663,0.2-1.011l-0.044.072a0.148,0.148,0,0,1-.062-0.005,0.451,0.451,0,0,1-.008-0.287l0.038-.155a8.309,8.309,0,0,1,.022-1.335,0.973,0.973,0,0,1,.018-0.584,0.313,0.313,0,0,1-.228.165,1.8,1.8,0,0,0-.095-0.448,0.555,0.555,0,0,0-.112.4,2.849,2.849,0,0,0,.051.934,5.677,5.677,0,0,1-.122,1.058l0,0.058,0.076,0.037a2.8,2.8,0,0,1-.168.9c-0.014.052-.029,0.1-0.047,0.155-0.082.406-.072,0.819-0.13,1.228a9,9,0,0,1-.309,1.166c-0.193.756-.3,1.529-0.536,2.272a3.835,3.835,0,0,0,.315-0.422c0.023-.049.041-0.1,0.059-0.148,0-.007.262-0.627,0.363-0.891,0.02-.052.04-0.1,0.058-0.15a0.7,0.7,0,0,1,.15-0.294l0,0.086a1.856,1.856,0,0,0,.1-0.228A3.508,3.508,0,0,0,96.385,71.516Z" transform="translate(-1.877 -1.362)"/><path class="a" d="M97.469,68.894l0.017-.074-0.024.024c-0.363.8-.478,1.68-0.766,2.5l-0.023.077c-0.019.05-.037,0.1-0.053,0.151-0.171.48-.171,0.48-0.282,0.873-0.118.316-.12,0.324-0.13,0.363l0.012-.026L97,70.579l0.425-1.443a0.093,0.093,0,0,1-.018.022A2.086,2.086,0,0,1,97.469,68.894Z" transform="translate(-1.877 -1.362)"/><path class="a" d="M96.032,68.369c-0.018.064-.044,0.126-0.058,0.189s-0.018.135-.032,0.2-0.034.147-.048,0.221l0.034,0.052h0.006l0.03-.008a1.141,1.141,0,0,0,.054-0.157c0-.047-0.024-0.091-0.024-0.137a2.135,2.135,0,0,1,.048-0.246Z" transform="translate(-1.877 -1.362)"/><path class="a" d="M95.033,74.26c0.022-.05.038-0.1,0.062-0.149-0.024.045-.054,0.09-0.074,0.137s-0.043.107-.064,0.156l-0.023.1c0.02-.045.039-0.095,0.062-0.141Z" transform="translate(-1.877 -1.362)"/><path class="a" d="M97.453,69.078c0.079-.259.158-0.528,0.232-0.8a3.366,3.366,0,0,0,.149-0.52l-0.406,1.379A0.488,0.488,0,0,0,97.453,69.078Z" transform="translate(-1.877 -1.362)"/><path class="a" d="M95.8,70.465l0.034-.078,0.044-.146a2.081,2.081,0,0,0,.078-0.316l0.027-.382-0.031-.07-0.006.022a0.971,0.971,0,0,0-.1.5A1.7,1.7,0,0,1,95.8,70.465Z" transform="translate(-1.877 -1.362)"/><path class="a" d="M72.853,79.468a2.588,2.588,0,0,1-.172.549,3.246,3.246,0,0,1-.846.608,1.82,1.82,0,0,0-.259.428,0.324,0.324,0,0,1-.055.18,1.922,1.922,0,0,1-.268.05,5.263,5.263,0,0,1-.3.484c-0.413.31-.889-0.045-1.308,0.133a0.774,0.774,0,0,0-.369.156,2.939,2.939,0,0,0-.172.53c-0.1.172-.3,0.252-0.387,0.435a2.774,2.774,0,0,0-.2.949,0.18,0.18,0,0,1,.067.187,4.192,4.192,0,0,1-.151.445c-0.055.075-.1,0.059-0.177,0.025C68.2,84.606,68.2,84.606,67.83,85a2.935,2.935,0,0,1-.413.741,0.337,0.337,0,0,0-.133.12c-0.014.041-.032,0.081-0.046,0.123-0.06.2,0,.408-0.054,0.607-0.028.08-.06,0.16-0.089,0.242a3.649,3.649,0,0,1-.215.682c0.235,0.023.478,0,.718,0.019,0,0.062-.013.121-0.014,0.184a1.416,1.416,0,0,0,1.578-.376,7.837,7.837,0,0,0,.606-1.2c0.165-.236.453-0.335,0.615-0.569,0.225-.327.214-0.756,0.461-1.073a1.981,1.981,0,0,1,.614-0.3,0.721,0.721,0,0,0,.333-0.179c0.159-.257,0-0.584.184-0.837a3.19,3.19,0,0,0,.4-0.489c0.036-.088.068-0.173,0.1-0.262s0.02-.177.036-0.264a0.835,0.835,0,0,0,.049-0.133c0.115-.2.362-0.256,0.476-0.459,0.01-.043.03-0.086,0.046-0.133l0.383-1.481A0.77,0.77,0,0,0,72.853,79.468Z" transform="translate(-1.877 -1.362)"/><path class="a" d="M32.727,100.542c-0.008,0-.827-0.34-1.26-0.529-0.046-.021-0.092-0.043-0.231-0.1-0.838-.38-0.838-0.38-1.023-0.471-0.046-.023-0.09-0.046-0.282-0.135-0.15-.076-0.3-0.149-0.568-0.287-0.06-.031-0.136-0.073-0.2-0.1,0.03,0,.064.008-0.1-0.086a17.624,17.624,0,0,1-1.631-1.007c-0.083-.052-0.173-0.1-0.261-0.158l-0.2-.072c-0.341-.2-0.7-0.369-1.027-0.575-0.044-.025-0.085-0.053-0.168-0.1-0.1-.079-0.237-0.187-0.335-0.274l0.15,0.019c-0.235-.154-0.469-0.312-0.732-0.493-0.348-.286-0.669-0.605-1.025-0.886a3.071,3.071,0,0,0-.271-0.182h0l0,0h0s0,0,.081.119A5.232,5.232,0,0,1,22.9,94.7l-0.362-.286a1.059,1.059,0,0,1,.237.1c0.062,0.037.145,0.088,0.208,0.129,0.066,0.007.132,0.015,0.143-.033l-0.185-.133c-0.04-.031-0.077-0.063-0.259-0.213a4.612,4.612,0,0,0-.7-0.586l-0.268-.224a0.585,0.585,0,0,0,.185,0c0.026,0,.048,0,0.12-0.073,0.066,0.006.127,0.013,0.339,0.044a7.55,7.55,0,0,1-.663-0.877l-0.156-.191c-0.11-.106-0.217-0.209-0.323-0.316a0.345,0.345,0,0,1-.122-0.034c-0.07-.067-0.136-0.136-0.351-0.347a11.688,11.688,0,0,1-.949-0.7c0.06,0.007.124,0.012,0.2,0.02,0.764,0.355.764,0.355,0.935,0.105-1.166-1.726-1.189-1.985-1.2-2.139a3.337,3.337,0,0,0,.461.475c-0.445-1.548-2.008-2.662-1.733-4.487,0.124,0.01.254,0.017,0.405,0.024a1.435,1.435,0,0,0,.064-0.438l1.008,0.066A2.026,2.026,0,0,1,19.8,84.15l0.066-.026a3.941,3.941,0,0,0-.116-0.855c0.038-.054.088-0.125,0.128-0.178a2.312,2.312,0,0,1-.277-0.918l0.074-.085a8.332,8.332,0,0,0-.388-1.122,0.9,0.9,0,0,1-.07-0.266,3.051,3.051,0,0,0-.209-0.9,3.664,3.664,0,0,0-.149-0.336c-0.036-.062-0.08-0.148-0.112-0.211-0.04-.1-0.079-0.207-0.191-0.44-0.108-.281-0.212-0.561-0.3-0.848a5.743,5.743,0,0,0,.413-1.147c0.062-.02.142-0.049,0.206-0.071,0.024-.067.05-0.155,0.071-0.221,0,0,.212-0.924.287-1.4a1.3,1.3,0,0,0-.027-0.793,4.222,4.222,0,0,0-1.123-1.921c-0.178-.012-0.349-0.021-0.525-0.031-0.759-.367-0.97-1.906-2.045-1.426a4.674,4.674,0,0,1-.793-0.11,0.681,0.681,0,0,0-.774-0.326c0.03,0.133.064,0.315,0.082,0.451-0.548-.13-0.58-0.226-0.587-0.512,0.052-.046.118-0.107,0.172-0.151a2.981,2.981,0,0,0-1.278-.918,0.348,0.348,0,0,1-.174-0.068,0.6,0.6,0,0,0-.6-0.215c0.054,0.243.11,0.487,0.163,0.729L11.371,69.8c-0.025-.1-0.046-0.2-0.074-0.322a1.82,1.82,0,0,1,.074-0.429c0.023-.042.056-0.1,0.078-0.137a1.027,1.027,0,0,0-.658-0.554L10.7,68.356a0.554,0.554,0,0,0-.181.023,0.819,0.819,0,0,1,.022.671l-0.217-.041c-0.022-.1-0.05-0.208-0.076-0.4a1.852,1.852,0,0,1,.275-0.354,2.862,2.862,0,0,0-.293-1.328c-0.064-.009-0.152-0.021-0.218-0.028-0.052-.283-0.106-0.569-0.193-0.947A8.107,8.107,0,0,0,8.6,64.079a0.812,0.812,0,0,1-.375-0.212c-0.04-.045-0.1-0.105-0.142-0.149-0.127.035-.3,0.09-0.416,0.137-0.04,0-.082-0.006-0.132-0.012,0,0-1.21-1.695-1.482-2.134a0.489,0.489,0,0,0-.171-0.3,1.349,1.349,0,0,1-.138-0.659,0.225,0.225,0,0,0-.109.016l-0.163.148a0.672,0.672,0,0,1-.217-0.623c0.032-.065.068-0.149,0.1-0.214a1.97,1.97,0,0,0-.273-0.331l-0.105.27a0.115,0.115,0,0,1-.068-0.059l-0.207-.082c0,0.138-.008.32-0.011,0.459l-0.174.143a0.822,0.822,0,0,0-.3-0.589,0.913,0.913,0,0,1-.259-0.06c-0.046-.048-0.105-0.112-0.154-0.16a1.234,1.234,0,0,0-.193-0.63,0.689,0.689,0,0,0-.252-0.33c0,0.013,0,1.719-.074,2.217a5.578,5.578,0,0,1-.106-2.573l-0.021-.169a0.21,0.21,0,0,0-.1.007A1.126,1.126,0,0,0,3,58.852c-0.064-.01-0.122-0.02-0.221.132a1.016,1.016,0,0,1-.21.4c0.024,0.316.054,0.63,0.076,1.089a3.067,3.067,0,0,0-.117.508l0-.058-0.1-.506c-0.043-.013-0.082-0.024-0.119-0.038l-0.062-.065L2.165,60.2,2.11,59.814l-0.09-.8L2,58.638c-0.022-.558-0.051-1.171-0.076-1.783l0.006,0.253,0-.109q0.006,0.215.013,0.428l0,0.137,0,0.058c0.017,0.5.037,0.978,0.07,1.408L2.064,59.7,2.042,59.44c0-.029,0-0.061-0.008-0.09,0.008,0.107.018,0.221,0.03,0.347l0,0.056,0.013,0.169,0-.038,0.028,0.256a5.962,5.962,0,0,0,.134.95l0-.046,0.14,0.645L2.456,62l-0.085-.649-0.018-.4,0.114,0.118L2.5,61.286c-0.084,1.5.835,2.887,0.687,4.39a3.422,3.422,0,0,1,.148.814,7.422,7.422,0,0,0,.239,1.227c-0.018-.006-0.032-0.013,0,0.162A5.126,5.126,0,0,0,4,69.194c0.03,0.1.059,0.2,0.107,0.369A8.376,8.376,0,0,0,4.6,71.3c0.016,0.049.035,0.1,0.1,0.278,0.351,1.009.862,1.952,1.279,2.933,0.046,0.111.088,0.219,0.185,0.427,0.676,1.379,2.253,4.61,3.72,5.719,0.273,0.469.553,0.931,0.884,1.458,0.072,0.121.173,0.278,0.249,0.394l0.036,0.063c0.03,0.046.056,0.089,0.172,0.251,0.04,0.06.094,0.137,0.138,0.2,0.011,0.023.028,0.045,0.069,0.108,0.24,0.388.24,0.388,0.363,0.559l0.018,0.038c0.038,0.052.075,0.1,0.219,0.288,0.035,0.056.09,0.13,0.126,0.184l0.052,0.071c0.027,0.041.059,0.083,0.087,0.127a3.8,3.8,0,0,0,.435.591c0.028,0.043.062,0.085,0.092,0.124s0.06,0.084.124,0.172c0.3,0.423.58,0.863,0.9,1.266,0.011,0.011,1.065,1.355,1.39,1.743,0.023,0.024.045,0.048,0.094,0.105,0.86,0.93,1.783,1.8,2.622,2.747,0.074,0.071.15,0.141,0.368,0.344,0.058,0.05.124,0.115,0.177,0.165,2.734,2.4,2.734,2.4,3.217,2.749,0.553,0.4,1.069.848,1.647,1.205l0.049,0.009-1.122-.809,0.068,0.011,0.476,0.353,0.168,0.138c0.219,0.157.446,0.315,0.721,0.509,0.227,0.17.227,0.17,1.336,0.892-0.134-.078-0.307-0.181-0.439-0.261-0.042-.027-0.088-0.056-0.193-0.128-0.06-.039-0.137-0.088-0.2-0.128l0.042,0.042c0.128,0.082.257,0.167,0.417,0.266,0.315,0.19.625,0.382,0.94,0.573-0.179-.095-0.352-0.2-0.53-0.3,0.131,0.082.262,0.163,0.459,0.3,0.638,0.408,1.308.756,1.96,1.133,0.021,0.015.045,0.026,0.193,0.1,0.193,0.106.391,0.206,0.59,0.308l0.133,0.071c0.431,0.229.906,0.455,1.254,0.619l0.12,0.065,0.16,0.071,0.042,0.012c0.477,0.224.477,0.224,0.615,0.281l0.107,0.049c0.953,0.429,2.054.848,2.119,0.87,0.049,0.02.095,0.04,0.144,0.058,0.235,0.09.235,0.09,0.638,0.221,0,0,.009,0,0.191.062L33.943,101a6.442,6.442,0,0,0-.819-0.307C33.018,100.647,32.914,100.6,32.727,100.542Z" transform="translate(-1.877 -1.362)"/><path class="a" d="M94.9,75.3l0.052-.012c-0.05.108-.1,0.217-0.14,0.32l0.042-.009c-0.021.073-.021,0.073-0.1,0.271a0.311,0.311,0,0,0-.033.108l0,0a0.7,0.7,0,0,0,.1-0.157,0.3,0.3,0,0,1,.081-0.055c-0.025.095-.088,0.175-0.106,0.272L94.828,76l0.01,0c-0.03.117-.1,0.216-0.143,0.329l0-.006-0.009.027c0.044-.092.086-0.184,0.133-0.276l0.419-.917s0.078-.2.09-0.254a1.581,1.581,0,0,1-.355.211C94.951,75.176,94.924,75.238,94.9,75.3Z" transform="translate(-1.877 -1.362)"/><path class="a" d="M74.549,62.573c-0.1,0-.2,0-0.525.014a1.956,1.956,0,0,1-1.388-.122,1.866,1.866,0,0,1-.326-1.017c-0.074-.042-0.184-0.1-0.259-0.139a2.594,2.594,0,0,1-.138-0.708c-2.247-1.853-4.188-3.455-3.732-5.13,0-.112,0-0.223.006-0.6a1.783,1.783,0,0,0-.174-0.577c-0.04-.062-3.738-7-3.767-8.214-0.371-.3-0.876-0.349-1.238-0.658a2.9,2.9,0,0,0-.362.029c-0.161.082-.38,0.19-0.546,0.269l-0.151,0c-2.2-.479-4.189-1.728-6.522-1.671-0.05,1.741-.05,1.741-0.185,1.933l-0.289.037c-0.1,0-.194-0.005-0.433,0-0.5-.1-0.7-0.667-1.2-0.752a4.171,4.171,0,0,1-1.621-.28c-0.259-1.027-1.832-1.075-1.852-1.075-0.767,0-.767,0-1.679-2.887a1.586,1.586,0,0,1,.738-0.347c-0.027-.088-0.057-0.2-0.081-0.29-0.292-.074-0.554-0.229-0.844-0.313-2.082.1-2.082,0.1-3.04,0.633-0.563-.478-1.5-1.277-2.532-0.136-0.487-.016-0.974-0.034-1.456-0.051-0.058.1-.058,0.1-1.777,0.929-0.046,0-.093,0-0.2-0.01-0.582-.165-1.272.081-1.763-0.446l-0.37-.049a3.567,3.567,0,0,0-.341,1.1,1.186,1.186,0,0,1-1.091.148q-0.088.635-.162,1.28a1.94,1.94,0,0,0-1.122.2c-0.167.677-.392,1.34-0.5,2.032-0.017.185-.042,0.37-0.058,0.555L32.7,46.216A1.856,1.856,0,0,1,31.128,47.6a15.021,15.021,0,0,0-1.7,3.024l-0.264-.012-0.2.041c-0.094,0-.217.013-0.315,0.017-0.1,1.794-.193,1.828-0.895,2.1-0.03.078-.074,0.185-0.106,0.264a0.957,0.957,0,0,0,.112.608c1.074,0.232,1.074.232,1.17,0.449-0.351.666-.351,0.666-0.379,2.68,0,0.112,0,.222,0,0.59a2.54,2.54,0,0,1-.573.585,11.222,11.222,0,0,0,.259,1.154v0.33c0.048,1.449,2.35,2.858,2.37,2.869-0.018.86-.032,1.48,1.856,1.927a2.13,2.13,0,0,1,.076.845c1.651,1.526,2.63,1.349,2.635,1.347,0.078-.167.174-0.393,0.24-0.566,0.367-.048.739,0.094,1.108,0.009,0.063,0,.12.005,0.391,0.01,0.291,0,.582.027,0.871,0.038,0.233,0.589.75,0.49,2,.25,0.312-.782.62-0.744,1.914-0.582l0.145,0a1.51,1.51,0,0,1,1.706-.309c0.265,1.323.52,1.384,1.068,1.516l2.67,0.086a10.307,10.307,0,0,1-.07,1.139,20.418,20.418,0,0,1-.566,2.89l-0.275,0c-0.037.082-.088,0.19-0.122,0.271,2.05,1.143,2.1,3.533,3.264,5.229-0.026.077-.056,0.178-0.078,0.252,0,0.1-.005.19-0.008,0.286,0.046,0.553.092,0.574,0.407,0.719,0,1.573-1.36,2.7-1.4,4.257-0.019.852,0.055,0.9,0.552,1.193a1.378,1.378,0,0,0,.78,1.444,2.6,2.6,0,0,0,.414,1.341c-0.017.417-.031,0.826-0.048,1.234a11,11,0,0,0,1.627,3.388,0.855,0.855,0,0,0,.2.809,0.4,0.4,0,0,1-.078.178,1.327,1.327,0,0,0-.378.386c0.065,0.048.149,0.114,0.213,0.16l0.215,0.006c-0.04.353-.045,0.407,0.373,0.62,0.342,0.011.687,0.021,1.09,0.027a3.44,3.44,0,0,1,.859-0.224,4.958,4.958,0,0,0,1.5-.141c0.032-.073.069-0.172,0.1-0.247,1.234-.179,1.234-0.179,1.392-0.549C57.3,91.529,60.8,89.8,60.4,87.931c0,0,1.611-.921,2.213-1.193a6.007,6.007,0,0,0-.047-2.4c1.559-1.255,3.673-1.8,4.7-3.718,0.034-.134.068-0.269,0.134-0.512a1.5,1.5,0,0,0,.012-0.593,7.374,7.374,0,0,0,.261-1.751c-0.589-.9.171-1.864-0.132-2.778l0.026-.146c1.61-5.348,8.607-6.407,9.691-12.174a0.822,0.822,0,0,0-.188-0.7C76.164,61.9,75.525,62.943,74.549,62.573Z" transform="translate(-1.877 -1.362)"/><path class="a" d="M92.668,63.495l-0.107-.037-0.077.085-0.062.2a1.509,1.509,0,0,0-.04.4,0.215,0.215,0,0,1,0,.128l-0.029.078a1.827,1.827,0,0,1-.025.263,1.684,1.684,0,0,0-.139.4,3.607,3.607,0,0,0-.094.746,0.69,0.69,0,0,0,.183.362,0.472,0.472,0,0,0,.349-0.023c0.043-.218.082-0.437,0.13-0.655,0.022-.114.008-0.228,0.022-0.344,0.008-.052.018-0.1,0.028-0.159s0.018-.109.022-0.162a2.387,2.387,0,0,0-.167-0.8A0.912,0.912,0,0,1,92.668,63.495Z" transform="translate(-1.877 -1.362)"/><path class="a" d="M83.124,53.05L82.9,52.909c-0.073-.15-0.01-0.322-0.083-0.473a0.524,0.524,0,0,0-.5-0.372c-0.353.022,0.006-.51-0.137-0.737l-0.265-.167-0.244,0a0.624,0.624,0,0,1-.039.512c0.052,1.463.08,2.931,0.062,4.409,0.025-.015.025-0.015,0.127,0.011h0.139c0.044,0,.082-0.014.124-0.018,0.02-.095.046-0.217,0.064-0.311a1.717,1.717,0,0,1,.07-0.168V55.551a0.623,0.623,0,0,1,.343-0.586h0.06a0.449,0.449,0,0,0,.2.2,9.242,9.242,0,0,1,.138-1.372c0.023-.053.034-0.079,0.219-0.074a0.516,0.516,0,0,0,.249-0.1l0.03-.02a1.465,1.465,0,0,0-.1-0.456A0.388,0.388,0,0,0,83.124,53.05Z" transform="translate(-1.877 -1.362)"/><path class="a" d="M95.842,69.785l0.006-.026a0.464,0.464,0,0,0,.027-0.129C95.869,69.677,95.853,69.739,95.842,69.785Z" transform="translate(-1.877 -1.362)"/><path class="a" d="M67.807,11.918h0.042a0.307,0.307,0,0,0-.122-0.1,1.231,1.231,0,0,0-.415-0.164l-0.01,0,0,0,0.054,0.072,0.179,0.187,0.122,0.05,0.047-.016,0.039,0,0,0-0.018-.032v0h0.08Z" transform="translate(-1.877 -1.362)"/><path class="a" d="M99.352,54.467c-0.006-.333-0.019-0.667-0.03-1l0.021-.016c0-.141,0-0.285,0-0.425a0.589,0.589,0,0,1,.009-0.107c-0.109-1.2-.179-2.8-0.36-3.984V48.932c-0.257-1.489-.587-3.478-0.924-4.951l-0.7-2.585a45.172,45.172,0,0,0-2.736-7.045l-0.009-.022,0.009,0.022-0.009-.019a45.81,45.81,0,0,0-3.774-6.487c-1.285-1.716-3.071-3.947-4.477-5.564l-0.231-.246A46.336,46.336,0,0,0,80.6,17.009a45.882,45.882,0,0,0-6.287-4.143l-2.738-1.4L71.633,11.5l-0.012,0c-0.206-.09-0.4-0.2-0.612-0.276,0.106,0.052.218,0.1,0.323,0.156-0.088-.034-0.206-0.087-0.3-0.128a5.11,5.11,0,0,0-.538-0.262l-0.108-.047-0.108-.047c0.239,0.13.493,0.235,0.738,0.354l0,0.016L71.079,11.3l0.332,0.15c0.054,0.026.078,0.039,0.1,0.049,0.06,0.034.147,0.076,0.211,0.108l0.026,0.021,0.084,0.062,0.008,0.021,0.05,0.04-0.039-.014c-0.008,0-.843-0.455-1.156-0.6-0.095-.05-0.093-0.05-0.093-0.05-0.071-.041-0.169-0.088-0.242-0.122s-0.144-.066-0.205-0.1v0a7.131,7.131,0,0,0-.656-0.292,0.174,0.174,0,0,1-.072-0.039c-0.148-.064-0.3-0.122-0.446-0.186a0.437,0.437,0,0,1-.072-0.029c-0.275-.113-0.49-0.194-0.762-0.3l-0.017,0c-0.343-.132-0.688-0.25-1.031-0.374-0.068-.019-0.07-0.014-0.076-0.01l-0.1-.032c0.057,0.027.141,0.062,0.2,0.084-0.07-.024-0.17-0.055-0.242-0.081,0.1,0.047.25,0.1,0.4,0.155l-0.014,0-0.117-.041C67.1,9.7,67.025,9.675,66.972,9.653c-0.149-.056-0.3-0.111-0.453-0.162L66.491,9.5a3.682,3.682,0,0,1-.647-0.217c-0.1-.035-0.206-0.069-0.308-0.1l-0.068.013c1.328,0.51,1.328.51,1.587,0.6l-0.1.013L67.2,9.9l0.077,0.037h0c0.08,0.035.128,0.053,0.176,0.072,0.063,0.026.147,0.064,0.211,0.094a2.126,2.126,0,0,1-.447-0.124l-0.057,0-0.12-.033a3.778,3.778,0,0,0,.511.238l-0.028.04c0.1,0.065.2,0.126,0.3,0.191l-0.1-.026a4.523,4.523,0,0,0,1.545.9l0.169,0.084,0.1,0.057-0.1-.021,0.04,0.1c-0.067,0-.155-0.007-0.225-0.007a0.162,0.162,0,0,1-.137.057l0.061,0.072,0.09,0.061a0.837,0.837,0,0,1-.145.012,10.356,10.356,0,0,0,1.464.754l0.05,0a1.365,1.365,0,0,1,.514.229c0.062,0.038.1,0.064,0.143,0.088l0.1,0.072a4.207,4.207,0,0,1-.953-0.361c-0.07,0-.138,0-0.2,0a2.652,2.652,0,0,1-.326-0.149l-0.108-.034-0.016.107,0.114,0.1a0.854,0.854,0,0,1,.518.2,1.153,1.153,0,0,1-.327-0.072h-0.03a1.2,1.2,0,0,0,.575.4l0.067,0h0.038a3.412,3.412,0,0,1,.861.4,11.2,11.2,0,0,1-1.379-.535c-0.094-.062-0.17-0.112-0.245-0.163a9.783,9.783,0,0,0-1.1-.665H68.773c0.676,0.42.676,0.42,0.745,0.466s0.1,0.069.147,0.1H69.559a3.968,3.968,0,0,0,.427.431l0.054,0.042a5.46,5.46,0,0,1,1.336.883l0.052,0.041c0.319,0.2.6,0.462,0.932,0.643a2.509,2.509,0,0,0,.27.009,1.632,1.632,0,0,1-.136-0.178c-0.038-.058-0.03-0.058-0.024-0.058a5.4,5.4,0,0,1,1.312.829,1.856,1.856,0,0,0-.806-0.34l-0.064.087c0.143,0.224,1.343,1.367,1.352,1.377l-0.11.019a1.559,1.559,0,0,1,.019.214,0.644,0.644,0,0,0,.127.151l0.06,0.1a0.853,0.853,0,0,1-.434-0.124,1.756,1.756,0,0,0-.421-0.037L73.4,16.69c-0.033-.059-0.075-0.135-0.109-0.191,0.149,0,.292.047,0.442,0.048,0.034-.111.066-0.218-0.333-0.706a11,11,0,0,0-1.891-1.522c-0.082-.064-0.12-0.091-0.156-0.119a6.547,6.547,0,0,0-1.5-1.037c-0.245-.173-0.476-0.33-0.7-0.485a0.376,0.376,0,0,1,.138,0l-0.692-.456c-0.152-.016-0.287-0.1-0.438-0.106l-0.079,0L67.96,12.1l0.023,0.1-0.105.023c0.21,0.231,1.018.905,1.027,0.912a0.172,0.172,0,0,1-.114.076l0.062,0.106c0.088,0.066.1,0.081,0.121,0.094l0.086,0.064a0.208,0.208,0,0,0,.105.032A1.624,1.624,0,0,1,69.8,14a2.568,2.568,0,0,0,1.332.8,1.958,1.958,0,0,1,.7.547H71.731a9.81,9.81,0,0,1-2.339-.972,2.125,2.125,0,0,0-.341-0.022,3.207,3.207,0,0,1-.306-0.161c-0.134-.009-0.232-0.009-0.335-0.009-0.258-.093-0.489-0.244-0.748-0.332a1.56,1.56,0,0,0-.319-0.15,0.782,0.782,0,0,0-.114-0.014V13.8c0.561,0.512,1.466.462,1.906,1.167a0.163,0.163,0,0,1-.118.08,2.594,2.594,0,0,0,.094.309l-0.1-.023a5.058,5.058,0,0,0-.491-0.505,0.267,0.267,0,0,0-.114-0.022l-0.03.107,0.059,0.1-0.092.056H68.275l-0.1-.021a44.064,44.064,0,0,1,5.581,7.7,40.937,40.937,0,0,0-5.654-7.7c0,0.044.012,0.1,0.019,0.148a0.456,0.456,0,0,1-.152.027,0.689,0.689,0,0,0-.158-0.023H67.651a0.542,0.542,0,0,0,.152.246l-0.211,0a1.622,1.622,0,0,1-.634-0.619l-0.048.13-0.142.026-0.048.129a0.243,0.243,0,0,1-.161.059l-0.142-.005c-0.014.048-.03,0.109-0.044,0.158a0.576,0.576,0,0,1-.183.043c-0.19.06-.2,0.062-0.261,0.308a0.683,0.683,0,0,1-.264.047l-0.09.107a3.229,3.229,0,0,1,.316.285c-0.066.157-.066,0.157-0.419,0.292a0.185,0.185,0,0,1-.073.018,2.8,2.8,0,0,1-.764-0.653,1.974,1.974,0,0,1,.429-0.025l-0.2-.282a1.192,1.192,0,0,0-.238-0.116,3.047,3.047,0,0,0-.345-0.263l-0.144.039H64.1A0.513,0.513,0,0,0,63.7,15l-0.161,0c-0.085.067-.044,0.129-0.008,0.195l0.154,0.021a2.535,2.535,0,0,1,.467.583c-0.033.164-.042,0.188,0.205,0.376a1.894,1.894,0,0,1,.377.238l0.044,0.067a2.231,2.231,0,0,0,.213.475,0.772,0.772,0,0,1-.413-0.1l-0.057-.094a2.33,2.33,0,0,0-.638-0.036,0.938,0.938,0,0,1-.071.267c-0.34.1-.34,0.1-0.4,0.316-0.044.009-.106,0.018-0.153,0.028l0.018,0a7.154,7.154,0,0,1,.634.733l-0.01-.01a1.646,1.646,0,0,1-.552-0.056c-0.058,0-.086,0-0.12-0.006a1.641,1.641,0,0,1-.984-0.461,0.583,0.583,0,0,1-.215.163,0.332,0.332,0,0,0,.32.357l0.063,0.126a0.238,0.238,0,0,0,.16.077,0.528,0.528,0,0,1,.533.181c0,0.041.008,0.1,0.011,0.143-0.159.013-.319,0.01-0.48,0.008l-0.066.123-1.214-1-0.3-.007-0.127-.318c-0.191-.756-1.175-0.672-1.442-1.351,0.319,0.078,1.408.55,1.414,0.554a6.534,6.534,0,0,0,.716.045c0.224,0.054.425,0.169,0.658,0.2,0.127,0,.157,0,0.19,0h0.086c1.647-.557.008-1.372-0.01-1.377l-1.352-.485a1.008,1.008,0,0,0-.3-0.157,0.73,0.73,0,0,0-.55-0.1,0.823,0.823,0,0,1-.177.02,4.2,4.2,0,0,1-.387-0.222,0.843,0.843,0,0,0-.292-0.046l0.062,0.128a0.255,0.255,0,0,1-.166.082l-0.127-.067V14.48a0.738,0.738,0,0,0-.032-0.107,0.5,0.5,0,0,1-.3-0.278c-0.076,0-.151,0-0.227-0.005l-0.084.115c-0.233-.044-0.456-0.137-0.683-0.2a0.178,0.178,0,0,1-.1-0.11c0.039,0,.1,0,0.137-0.006,0.02-.047.042-0.111,0.06-0.162a1.5,1.5,0,0,0-.9-0.358c0.032,0.078.058,0.16,0.089,0.239-0.048.007-.105,0.012-0.149,0.017a0.3,0.3,0,0,1-.111-0.165L57,13.333a0.243,0.243,0,0,0-.02-0.092l-0.506-.013c0.031,0.077.069,0.182,0.092,0.261a0.374,0.374,0,0,0,.011.148l-0.055.06a0.362,0.362,0,0,0-.171-0.356c-0.088-.007-0.136-0.009-0.184-0.009l-0.064-.2-0.094-.021-0.018.016a1.689,1.689,0,0,1-.367.176,0.392,0.392,0,0,1-.115.225H55.455l-0.127-.047c-0.008-.041-0.018-0.093-0.024-0.134a0.206,0.206,0,0,0-.2-0.063,0.791,0.791,0,0,0-.387.147c0.046,0.228.046,0.228,0.417,0.288a0.993,0.993,0,0,1,.058.186l-0.155,0a0.937,0.937,0,0,0-.405-0.087,1.331,1.331,0,0,0-.257-0.03,0.546,0.546,0,0,1,0,.412c-0.041-.077-0.095-0.178-0.133-0.253a4.092,4.092,0,0,0-.63-0.287,0.255,0.255,0,0,0-.024.16c0.2,0.461-.058.532-0.174,0.561a0.941,0.941,0,0,1-.134-0.243l-0.093.112-0.138.007c-0.039.044-.083,0.106-0.115,0.151,0.062,0.05.15,0.115,0.218,0.162,0,0.087,0,.115,0,0.144l-0.12.063a2.113,2.113,0,0,0-.375-0.141,1.691,1.691,0,0,0,.02-0.291c-0.041,0-.094-0.011-0.138-0.016a1.781,1.781,0,0,0-.011.261,1.064,1.064,0,0,0-.408.072l0.079,0.11-0.1.1a0.369,0.369,0,0,0-.417.163l-0.082.019-0.113.174-0.086,0-0.091.109,0.163,0a0.57,0.57,0,0,1,.5-0.163,0.92,0.92,0,0,1,.828-0.2c0.011,0.048.03,0.111,0.046,0.155a1.058,1.058,0,0,0-.53.142,1.648,1.648,0,0,0-.185.489,0.851,0.851,0,0,1-.248.117,1.309,1.309,0,0,1-.493.477c-0.076.269-.241,0.5-0.3,0.772l-0.016-.085a4.936,4.936,0,0,1-.762.377l-0.044.161L50.421,17.6a1.958,1.958,0,0,1,.242-0.006c-0.148.559-.78,0.559-1.079,0.944a0.578,0.578,0,0,1-.3-0.081c-0.1-.007-0.165-0.009-0.228-0.011L49,18.629l0.041,0.155a0.814,0.814,0,0,1-.259.116l-0.1.006H48.642c-0.219.087-.431,0.2-0.653,0.289a1.17,1.17,0,0,1-.71.561,0.61,0.61,0,0,1-.014.269,2.3,2.3,0,0,0-.185.6,0.239,0.239,0,0,1-.122.019,0.983,0.983,0,0,0-.112.326l0.289,0.01,0.143-.012,0.1,0.112a0.543,0.543,0,0,1-.2.194,0.344,0.344,0,0,1-.215.327c-0.006.043-.012,0.1-0.02,0.145a0.693,0.693,0,0,0,.443.1,0.341,0.341,0,0,1-.195.348c0.648,0.024,1.3.044,1.953,0.065a0.718,0.718,0,0,1,.581-0.346,1.162,1.162,0,0,0,.033-0.231,0.664,0.664,0,0,1,.353.365c0,0.048,0,.109,0,0.158,1.143,0.119,2.3.154,3.461,0.187a1.881,1.881,0,0,1,.373-0.171,0.463,0.463,0,0,1,.307-0.438c-0.006-.146-0.008-0.186-0.01-0.225s-0.024-.1-0.034-0.138c-0.185,0-.363-0.043-0.553-0.026a0.646,0.646,0,0,0-.065-0.435,0.9,0.9,0,0,1-.261-0.106c-0.012-.41-0.016-0.7-0.025-0.987a7.521,7.521,0,0,0,.426-0.718,2.154,2.154,0,0,0,1.08-.741,0.525,0.525,0,0,1,.393-0.113l0.1-.115a2.712,2.712,0,0,1,.168-1.234,0.812,0.812,0,0,1,.421,0h0.05a0.567,0.567,0,0,0,.348.274l0.092-.107a0.54,0.54,0,0,1,.349.262,2.287,2.287,0,0,1,.107.394c-0.1,0-.193,0-0.289-0.008,0.08,0.43.08,0.43-1.258,1.511a6.992,6.992,0,0,0,.066,1.128l0.006,0.108a1.265,1.265,0,0,1,.054.288c0.247,0.178,1.275.729,1.284,0.733,0.06,0,.076.005,0.1,0.005,0.349-.177.756-0.059,1.109-0.221l0.008-.111a6.428,6.428,0,0,1,.957-0.032,0.6,0.6,0,0,1,.255-0.105h0.052a1.028,1.028,0,0,1,.157.226,3.016,3.016,0,0,0,.66.071l0.076,0.114-0.083.105c-0.69,0-.794,0-0.993.551-0.584.223-1.155-.384-1.737-0.025a0.353,0.353,0,0,0-.4,0,0.473,0.473,0,0,1-.107.244c4.279,0.224,8.526.3,12.5,0.351-3.967-.047-8.218-0.127-12.512-0.236a0.725,0.725,0,0,0-.134-0.031l-0.068,0-0.013,0a0.308,0.308,0,0,1-.133-0.092l-0.011-.111-0.042-.008c-0.057,0-.114-0.008-0.17,0a0.239,0.239,0,0,0-.084.032,0.1,0.1,0,0,0-.046.031l-0.009.106,0.07,0.059c0.112,0.032.113,0.032,0.115,0.032h0.05a5.06,5.06,0,0,1-.474.2c0,0.073.006,0.171,0.012,0.247a1.119,1.119,0,0,0,.678.146,2.547,2.547,0,0,1,.367-0.338c0.289,0.134.427,0.448,0.708,0.583,0,0.071-.014.169-0.02,0.24a0.712,0.712,0,0,0-.333.314,0.209,0.209,0,0,1-.225.151c-0.074-.015-0.172-0.037-0.241-0.049l-0.112-.212a0.316,0.316,0,0,0-.225-0.168c-0.007-.071-0.016-0.165-0.02-0.235-0.078,0-.156,0-0.235-0.007a1.281,1.281,0,0,1-.321.342c-0.074.536-.3,1.6-0.3,1.6,0.046,0.045.111,0.1,0.159,0.147l-0.056.123c-0.891-.182-0.891-0.182-1.139-0.023a1.145,1.145,0,0,0,.269.4l-0.026.124L54.6,26.1c-0.275-.183-0.525-0.41-0.81-0.583-1.9.843-2.408,1.069-2.361,0.212l-0.245-.008a0.662,0.662,0,0,1-.424.118c-0.123-.009-0.2-0.011-0.286-0.013l-0.259.015c0,0.071,0,.163,0,0.233a0.272,0.272,0,0,1-.273.138c-0.065-.017-0.157-0.04-0.225-0.059a0.775,0.775,0,0,0-.25-0.3c-0.079,0-.165,0-0.245-0.008,0-.072.01-0.144,0.016-0.217s0.03-.163.044-0.231a4.577,4.577,0,0,1,.483,0,2.927,2.927,0,0,0,.7.22,1.569,1.569,0,0,0,.3-1.1,0.344,0.344,0,0,0-.232-0.071,0.687,0.687,0,0,0-.6.285,0.288,0.288,0,0,1-.148.059H49.773c-0.028-.066-0.064-0.156-0.087-0.221,0.047-.057.111-0.129,0.156-0.183a1.439,1.439,0,0,0,.046-0.287l-0.235.023c-0.124-.936-0.124-0.936-0.241-0.985-0.493.522-.493,0.522-0.671,0.531-0.04.057-.1,0.134-0.137,0.192a0.43,0.43,0,0,1,.021.168,1.519,1.519,0,0,1-.4.239c-0.155.4,0.27,0.712,0.176,1.1,0,0.059-.008.1-0.014,0.143l-0.086.275c0.05,0.133.114,0.307,0.167,0.44-0.008.155-.014,0.237-0.023,0.319-0.062,0-.122-0.005-0.188-0.007l-0.239.035c-0.282.012-.331,0.009-0.385,0.007-0.544-.094-0.544-0.094-1.655.672a0.631,0.631,0,0,0-.292-0.1l-0.12,0H45.336a1.472,1.472,0,0,0-.05.247l0.23,0.133c-0.022.141-.04,0.281-0.057,0.421a1.406,1.406,0,0,0-1.061.508,0.412,0.412,0,0,1-.231.066c-0.072,0-.168,0-0.24,0a1.376,1.376,0,0,0-.3.778,2.293,2.293,0,0,0-.725.067,2.074,2.074,0,0,0-.095.406l-0.474-.017a1.413,1.413,0,0,0-.136-0.073c-0.078,0-.17,0-0.238-0.006-0.158-.086-0.15-0.131-0.14-0.176l-0.206-.132a0.712,0.712,0,0,0-.2.42c0.069,0.031.167,0.075,0.234,0.107-0.053.079-.119,0.184-0.173,0.262l0.042,0.138c-0.009.056-.022,0.114-0.034,0.17-0.329.02-.648-0.078-0.977-0.079-0.038-.06-0.086-0.139-0.124-0.2a1.255,1.255,0,0,0-.879.317c0.066,0.2.108,0.2,0.152,0.2a1.2,1.2,0,0,0,.361.3c0.274,0,.317,0,0.359,0a2.172,2.172,0,0,1,.492.529,1.843,1.843,0,0,1,.018.875c0.152,0.184.355,0.3,0.506,0.485a9.326,9.326,0,0,1-.68,1.914,4.1,4.1,0,0,1-.526.231l-0.2,0a2.124,2.124,0,0,1-1.065-.458c-0.558-.072-0.952-0.088-1.349-0.1a1.082,1.082,0,0,1-.674-0.2l-0.066,0c-0.05.05-.114,0.119-0.162,0.168a1.328,1.328,0,0,1-.768.149l-0.1.142c0.35,0.531-.188,1.077.028,1.612-0.051.283-.1,0.569-0.153,0.857-0.591.99-.591,0.99-0.459,1.3a0.69,0.69,0,0,1,.043.342l-0.025.148a0.848,0.848,0,0,0-.218.7,1.113,1.113,0,0,0,.4.067,0.5,0.5,0,0,1,.641.211,2.554,2.554,0,0,0,.474-0.089,4.3,4.3,0,0,0,.529.322,2.664,2.664,0,0,1,.182.449c0.065-.015.157-0.036,0.223-0.049l-0.136-.045c1.319-.406,2.367-1.507,3.85-1.489a0.68,0.68,0,0,0,.271-0.52,1.745,1.745,0,0,0-.3-0.4,2.631,2.631,0,0,1,.483-0.884c0.267-.455,2.1-0.826,2.117-0.828a0.637,0.637,0,0,0,.19-0.448c0.007-.048.013-0.1,0.017-0.147-0.021-.632-0.04-1.18.926-0.918l0.121,0.015h0.03l0.008,0h0.025a1.227,1.227,0,0,0,.758.277l0.2,0.008c0.069,0,.17,0,0.243,0a0.9,0.9,0,0,1,.348-0.611c0.207-.005.257,0,0.3,0a0.891,0.891,0,0,0,.821-0.423c0.853,0.121.794,1.116,1.408,1.463a0.883,0.883,0,0,1,.3.371c2.071,1.437,3.1,2.474,3.055,3.082a11.572,11.572,0,0,1-2.4.351c-0.036.053-.078,0.124-0.11,0.178a9.334,9.334,0,0,0,1.085.778c0.377,0.021.674,0.028,0.969,0.037,0-.19.012-0.382,0.014-0.57a6.015,6.015,0,0,0,1.517-1.267c-0.016-.28-0.016-0.334-0.016-0.39C53.3,38.2,53.2,38.2,53.1,38.2a0.184,0.184,0,0,1-.144-0.188,0.743,0.743,0,0,1,.618-0.207,1.119,1.119,0,0,1,.59.352c0-.014,0-0.014-0.04-0.7a3.8,3.8,0,0,1-1.36-1.031,1.771,1.771,0,0,1-1.215-.613c0.108-.243.108-0.243-0.616-0.812a0.214,0.214,0,0,0-.173-0.082,1.886,1.886,0,0,0-.141-0.481,4.126,4.126,0,0,0-.511-0.019c0.009-.125.016-0.248,0.02-0.374l0.141-.138a0.289,0.289,0,0,0,.148-0.168,1.039,1.039,0,0,1-.094-0.453c0.494-.162.542-0.03,0.688,0.4,1.079,0.139,1.354,1.458,2.4,1.636,0.011,0.044.024,0.1,0.034,0.146,0.433,0.5,1.186.586,1.531,1.2-0.3.823-.3,0.823,0.03,1.064a0.68,0.68,0,0,0,.629.855,0.917,0.917,0,0,1,.223.666l-0.367-.009c-0.04-.059-0.094-0.134-0.134-0.192-0.042.055-.1,0.131-0.14,0.185a1,1,0,0,0,.742.666c0.025-.057.062-0.135,0.088-0.194a1.62,1.62,0,0,1,.544.473,1.14,1.14,0,0,0,.023.5,1.4,1.4,0,0,0,.451.079c0.073,0,.171-0.008.245-0.009,0.086-.113.193-0.273,0.273-0.395-0.008-.092-0.01-0.142-0.01-0.193-0.017-.067-0.038-0.158-0.054-0.224,0.056-.042.132-0.1,0.188-0.141a1.781,1.781,0,0,1,.434.192c0.116,0,.163,0,0.209,0,0.054-.05.124-0.114,0.176-0.163,0-.129,0-0.3.008-0.434A2.5,2.5,0,0,0,59,39.362a0.946,0.946,0,0,0-.538-0.467,1.252,1.252,0,0,1-.145.461c-0.348-.08-0.388-0.209-0.643-0.93a1.339,1.339,0,0,1-.621-0.344c-0.006-.2-0.006-0.246-0.009-0.295L57.3,37.72a2.111,2.111,0,0,0,.415.238c0.221,0,.269,0,0.319,0l0.146,0a0.9,0.9,0,0,0-.018-0.441c0.279-.231.279-0.231,1.549,0.218,0.008,0.069.014,0.16,0.022,0.228,0.048,0.024.112,0.052,0.16,0.075L60.013,38.3l-0.237.088c-0.038.469,0.64,0.605,0.518,1.116,0.006,0.073.016,0.168,0.022,0.241a1.138,1.138,0,0,0,0,.187,2.508,2.508,0,0,0,.238.406l0.06,0.077,0.078,0.042,0.055,0.077,0.1,0.079,0.078,0.057c0.022,0.068.05,0.161,0.068,0.23l-0.072.092-0.036.077-0.036.094a2.41,2.41,0,0,0,.078.443L61,41.685l0.071,0.059,0.158-.244,0.046-.192A1.589,1.589,0,0,0,61.249,41c0.05-.223.1-0.223,0.14-0.221l0.072,0.02,0.08,0.061,0.06,0.073,0.076,0.062c0.074,0.07.179,0.163,0.25,0.235L62,41.323,62.069,41.4l0.076,0.042h0.071a0.927,0.927,0,0,1,.378.086c0.183,0.021.211,0.021,0.241,0.022l0.069-.037,0.075-.055-0.021-.074,0.01-.079a0.757,0.757,0,0,1,.027-0.4l0.039-.075,0.1-.074a1.3,1.3,0,0,1,.484.086l0.218,0.212,0.271,0.22,0.06,0.076,0.074,0.057,0.076,0.024,0.1,0.04c0.335,0.006.667,0.012,1,.02-0.008-.07-0.022-0.162-0.023-0.231s-0.009-.1-0.012-0.132c-0.006-.069-0.014-0.161-0.022-0.23,0.06-.017.138-0.039,0.2-0.054l0.068-.017,0.11,0a1.079,1.079,0,0,1,.458.256,1.914,1.914,0,0,0,.235.021l0.071-.038L66.539,41l0.066-.057,0.078,0.022,0.145,0.194,0.022,0.072a1.955,1.955,0,0,1-.027.5,0.994,0.994,0,0,0,.013.845l0.02,0.079c0.032,0.061.076,0.144,0.109,0.2-0.025.072-.052,0.17-0.078,0.241l-0.068.055-0.032.078-0.02.273-0.045.078a0.9,0.9,0,0,1-.415.516l-0.069.057-0.074.077-0.012.079c2.974,0.136,5.893.182,8.707,0.216-2.814-.035-5.734-0.081-8.711-0.138a2.545,2.545,0,0,1-.351.919l-0.073.078-0.071.057-0.078,0a1.073,1.073,0,0,0-.39.071l-0.094,0-0.078.021-0.074.038-0.073.069a0.563,0.563,0,0,1-.228-0.074,0.991,0.991,0,0,0-.148-0.138,0.7,0.7,0,0,0-.1-0.01,2.975,2.975,0,0,1-.644-0.109l-0.088,0H63.57l-0.081.048a1.438,1.438,0,0,0,.756.252,0.228,0.228,0,0,1,.063.17l0,0.1c0.048,0.078.12,0.139,0.161,0.219a0.851,0.851,0,0,1,.016.226L64.5,46.39l-0.012.1a2.541,2.541,0,0,0,.563,1.089,1.358,1.358,0,0,0,.488.553,1.113,1.113,0,0,0,.233.025c0.286,0.027.291-.279,0.443-0.412,0.032,0.044.074,0.1,0.1,0.141,0.23,0.365.61,0.605,0.84,0.972l0.7,1.486c0.006,0.105.006,0.133,0.009,0.16a0.939,0.939,0,0,0,.065.724,2.9,2.9,0,0,0,.639.315c0.063,0.059.8,1.4,0.8,1.411,0.227,0.5-.322,1.241.366,1.555a3,3,0,0,1,.973,1.195,0.679,0.679,0,0,0,.279.461c0.335,0.254.335,0.254,1.26,2.609-0.016.534-.044,1.014-0.072,1.492a0.961,0.961,0,0,0,1.488.564,1.191,1.191,0,0,1,.717-0.651l0.836,0.011h0.064a1.106,1.106,0,0,1,.147.131h0.1c0.063-.1.145-0.23,0.213-0.33,0.5-.823,1.6-0.485,2.186-1.147,0.139-.2.143-0.206,0.624-0.166l0.08-.077a0.572,0.572,0,0,1,.139-0.555,0.5,0.5,0,0,0,.431-0.178c0.168-.115.168-0.115,1.3-0.056a2.208,2.208,0,0,1,.2-0.884,3.459,3.459,0,0,1,.668-0.04,3.987,3.987,0,0,1,.271-0.76c0.069-1.525.04-2.993-.023-4.441l-0.064.079a1.549,1.549,0,0,1-.158-0.515,0.281,0.281,0,0,1-.19-0.195c-0.028-.293-0.046-0.564-0.062-0.837a0.69,0.69,0,0,0-.177-0.226c-0.418.138-.418,0.138-0.5,1.365a1.965,1.965,0,0,1-.481,0c-0.122,0-.164-0.006-0.211-0.006-0.12-.049-0.231-0.111-0.351-0.158a1.293,1.293,0,0,0-.153-0.01,4.53,4.53,0,0,0-.493.522,0.748,0.748,0,0,1-.606-0.762c0.042-.016.1-0.038,0.141-0.056a0.577,0.577,0,0,1,.277-0.158c0.071,0,.1,0,0.12,0,0.8,0.389.771-.109,0.768-0.115l-0.068-.08a0.563,0.563,0,0,0-.205-0.04,1.628,1.628,0,0,0-.192.028c-0.115,0-.166,0-0.213,0-0.377-.118-0.773-0.125-1.15-0.238a1.466,1.466,0,0,0-.224-0.015c-0.018-.271-0.034-0.541-0.048-0.812-0.135-.2-0.143-0.225-1.035-0.551a5.941,5.941,0,0,1-.558-2.106c0.064-.555.806-0.225,0.816-0.22a2.951,2.951,0,0,1,.534.537,2.606,2.606,0,0,1,.588.866,3.8,3.8,0,0,0,.792.638,1.729,1.729,0,0,0,1.547.693c0.1,0,.122,0,0.151,0h0.129a3.2,3.2,0,0,1,.438-0.12,0.458,0.458,0,0,1,.194-0.038,0.534,0.534,0,0,1,.494.267l0.014,0.016a1.182,1.182,0,0,0,.469.776l0.672,0a1.006,1.006,0,0,1,.771.409H84c0.076,0.037.176,0.086,0.257,0.124h0.965l0.686-.165h0.619a3.305,3.305,0,0,1,1.061,1.6c0.042,0,.1.009,0.14,0.014a2.336,2.336,0,0,1,.191.357h0.2a1.037,1.037,0,0,1,.61.308c-0.924.042-.456,0.534-0.452,0.538,0.375,0.267.3,0.965,0.939,0.971a1.063,1.063,0,0,1,.378-0.4c0.024-.083.054-0.194,0.08-0.277,0.04-.021.094-0.049,0.133-0.071,0.417,0.3.433,1.85,0.433,1.865v0.455C90,57.764,91.095,59.4,90.943,61.2c-0.006.056-.009,0.109-0.013,0.167A12.161,12.161,0,0,0,91.21,64.3a2.564,2.564,0,0,1,.115.249c0.039,0,.09.015,0.131,0.02,0.641-.537.641-0.537,1.459-4.131,0.024-.309.048-0.618,0.07-0.928a1.587,1.587,0,0,1,.184-1.106c0.861,0.05,1.571-2.885,1.579-2.915a4.287,4.287,0,0,0,.305-0.592l0.087-.021h0.008l0,0h0.024c0.147-.138.147-0.138,0.163-1.087a0.316,0.316,0,0,1,.287-0.137l0.092,0.1a0.3,0.3,0,0,0,.1.019,2.133,2.133,0,0,0,.287-0.614,1.45,1.45,0,0,1,.277-0.035c-0.008-.165-0.018-0.332-0.025-0.5l0.125,0.028a7.35,7.35,0,0,1,.4,2.022,5.2,5.2,0,0,1,.226.67c0,0.085,0,.141,0,0.2a4,4,0,0,0-.014.445v0.057l0.13,0.008c0.361,0.708-.253,1.463.11,2.17a0.846,0.846,0,0,1,.114-0.019,1.212,1.212,0,0,1,.221-0.363,0.466,0.466,0,0,0,.038-0.2c0.006-.057.008-0.113,0.01-0.17s0.025-.1.033-0.146c0.449,0.431.211,2.268-.227,5.606a2.329,2.329,0,0,1-.031.231c-0.164.782,0.025,1.585-.122,2.367-0.028.14-.035,0.156-0.035,0.171-0.077.429-.1,0.867-0.174,1.295-0.087.382-.157,0.667-0.227,0.948a7.383,7.383,0,0,0-.126,1.808l0.021,0a1.815,1.815,0,0,0,.143-0.61c0.06-.382.483-2.135,0.487-2.153,0.029-.121.042-0.171,0.054-0.225s0.014-.095.024-0.136c0.02-.074.028-0.126,0.04-0.176s0.02-.1.028-0.147c0.036-.158.056-0.266,0.082-0.372a9.1,9.1,0,0,1-.006-2.27,2.023,2.023,0,0,0,.028-0.209,0.352,0.352,0,0,0-.038-0.316c0.038-.275.081-0.548,0.118-0.822,0.056-.31.4-2.1,0.408-2.116a2.294,2.294,0,0,1,.084.848,0.069,0.069,0,0,0,.042.042l0.05-.122C98.5,61.5,98.5,61.5,98.191,64.4a17.766,17.766,0,0,0,.872-4.028c0.022-.2.04-0.4,0.059-0.6a11.879,11.879,0,0,0,.04-2.475,23.36,23.36,0,0,1,.043-3.94c0.083-.008.083,0.058,0.088,0.121,0,0.045,0,.105,0,0.146,0.011,0.329.022,0.634,0.026,0.938-0.006.419-.049,0.835-0.049,1.253,0.045,0.093.07,0.083,0.089,0.071A10.807,10.807,0,0,0,99.352,54.467Z" transform="translate(-1.877 -1.362)"/><path class="a" d="M53.24,22.576a0.655,0.655,0,0,1,.317-0.187c-1.142-.037-2.3-0.072-3.457-0.108,0.006,0.178.224,0.236,0.229,0.414v0.058a0.348,0.348,0,0,0-.121.112,0.474,0.474,0,0,0,.154.351l0.127,0.049a1.168,1.168,0,0,1,.146.226c0,0.043,0,.08-0.006.121l-0.005.116a0.6,0.6,0,0,0,.312.47c0.124,0.107.124,0.107,0.124,0.2a1.914,1.914,0,0,1-.13.3l0,0.06c0,0.084.044,0.163,0.05,0.246,0.28,0.01.562,0.018,0.841,0.025,0.052-.356.082-0.553,0.371-0.539l0.118,0,0.163,0.059c0.112,0.09.182,0,.256-0.11a0.346,0.346,0,0,1,.3-0.045c0-.123,0-0.241,0-0.362,0.162,0,.319.007,0.474,0.012a0.656,0.656,0,0,0,0-.3l-0.231-.005a0.47,0.47,0,0,1-.252.011l0.009-.112-0.116-.03a1.172,1.172,0,0,0,.271-0.7A0.68,0.68,0,0,1,53.24,22.576Z" transform="translate(-1.877 -1.362)"/><path class="a" d="M71.452,11.4l-0.11-.053,0.121,0.062a0.51,0.51,0,0,1,.055.023A0.267,0.267,0,0,0,71.452,11.4Z" transform="translate(-1.877 -1.362)"/><polygon class="a" points="69.584 10.05 69.64 10.077 69.586 10.05 69.584 10.05"/><polygon class="a" points="69.64 10.077 69.701 10.108 69.66 10.087 69.64 10.077"/><path class="a" d="M92.947,31.177c0.032,0.054.058,0.107,0.088,0.162,0.509,0.942,1.153,2.082,1.589,2.991a29.313,29.313,0,0,0-1.665-3.135Z" transform="translate(-1.877 -1.362)"/><polygon class="a" points="20.887 14.118 20.803 14.178 20.813 14.17 20.887 14.118"/><polygon class="a" points="30.382 9.18 30.92 8.926 30.92 8.879 30.884 8.864 30.226 9.134 29.727 9.353 29.723 9.407 30.116 9.258 30.382 9.18"/><path class="a" d="M24.044,14.633l0.006-.014-0.4.268-0.484.32,0.189-.12,0.324-.21Z" transform="translate(-1.877 -1.362)"/><path class="a" d="M19.511,18.207c0.085-.067.164-0.134,0.24-0.2,0.143-.117.28-0.235,0.42-0.351l0.024-.063-0.278.186-0.59.5L19.374,18.3Z" transform="translate(-1.877 -1.362)"/><path class="a" d="M22.983,15.326l0.186-.12h0l-0.095.06Z" transform="translate(-1.877 -1.362)"/><path class="a" d="M20.242,17.462l0.237-.2a4.7,4.7,0,0,0-.754.57c0.042-.015.341-0.243,0.485-0.352Z" transform="translate(-1.877 -1.362)"/><path class="a" d="M26.275,13.258l-0.467.27L25.025,14l-0.207.134,0.494-.3,0.644-.381,0.111-.062c0.278-.167.549-0.327,0.8-0.47Z" transform="translate(-1.877 -1.362)"/><path class="a" d="M26.172,13.653a1.378,1.378,0,0,0-.741.335l-0.406.275-0.014.055,0.19-.072,0.5-.282Z" transform="translate(-1.877 -1.362)"/><path class="a" d="M21.281,16.589l-0.015.043-0.048.057-0.165.151,0.032,0.016,0.472-.352,0.092-.11,0.589-.444,0.039-.063,0.468-.354,0.122-.1c0.12-.08.239-0.164,0.359-0.244l-0.091.078,0.263-.172,0.292-.2L23.7,14.909l0.435-.275,0.449-.262,0.377-.228,0.387-.252,0.666-.412,0.127-.049,0.51-.29,0.5-.3,0.255-.16,0.4-.24,0.02,0.015,0.278-.143-0.049.048-0.291.174,0.067,0,0.178-.062,0.49-.285,0.126-.047-0.558.323-0.022.046-0.532.308-0.062.066-0.383.236-0.152.129-0.476.3-0.134.133L25.878,14l-0.578.376-0.706.388-0.682.4-0.543.41-0.247.066,0.074-.105-0.056-.012-0.536.32c-0.172.122-.341,0.243-0.509,0.366l-0.052.118,0.1-.009,0.3-.2,0.194-.107-0.042.078-0.114.182-0.566.538-0.338.29-0.375.38,0.118,0.018-0.453.514,0.194,0.055-0.1.243,0.359-.3,0.487-.649,0.238-.28,0.312-.292-0.179.281-0.291.5-0.163.29c0.175-.151.348-0.3,0.522-0.443l0.564-.377,0.15-.258,0.724-.589,0.09-.233,0.8-.745,0.345-.186,0.317-.167-0.655.7L24.1,16l0.046,0.084,0.709-.494,0.425-.162,0.3-.194c0.037,0,.077.009,0.121,0.015l0.359-.217,0.451-.324-0.238-.026,0.25-.17,0.277-.29-0.024-.051,0.122-.18-0.1-.011,0.329-.229,0.291-.2-0.147-.017-0.026-.03c0.187-.114.377-0.225,0.566-0.335l0.1,0.012,0.318-.146,0.067-.133,0.249-.132,0.134-.028L29,12.5l0.074-.1,0.412-.2,0.176-.154H29.537l0.295-.158-0.034-.03,0.04-.04,0.37-.149,0.134-.114-0.292.086,0.506-.279,0.317-.153-0.01-.026,0.389-.177,0.228-.144-0.068-.018-0.335.142-0.1.024,0.087-.056-0.4.174-0.057.008,0.5-.226,0.486-.2,0.64-.281,0.583-.239-0.023-.014-0.445.168-0.042.005-0.3.115-0.585.244-0.621.276-0.4.173-0.748.36-0.078.026,0.65-.311,0.867-.392,0.586-.251,0.62-.25,0.518-.194V10.129l-0.1.031L32,10.445l-0.859.362-1.491.68-0.082.037-0.046.025-0.468.23,0.117-.063-0.115.058L28.8,11.9l-0.365.183L28.42,12.1l0.136-.067-0.362.189-0.307.178-0.179.084-0.487.261-0.343.2-0.812.453c-0.9.539-1.876,1.168-2.708,1.694l-0.067.043-0.71.486c-0.289.2-.578,0.407-0.857,0.615l-0.184.128-0.379.287-0.041.038c-0.112.085-.228,0.172-0.379,0.3l0.1-.072Z" transform="translate(-1.877 -1.362)"/><polygon class="a" points="20.302 14.53 20.151 14.64 19.923 14.804 20.803 14.178 20.302 14.53"/><path class="a" d="M32.546,11.6c-0.087.047-.175,0.092-0.291,0.162l-0.092.106a0.064,0.064,0,0,1,.043.045c0.058,0.007.118,0.013,0.18,0.018a0.41,0.41,0,0,1,.393-0.109,0.732,0.732,0,0,0-.417.351h0.02v0.012a0.983,0.983,0,0,1-.285.274l-0.136.073a0.25,0.25,0,0,1-.107-0.03l-0.08,0-0.08-.059,0.1-.088-1.351.565a0.844,0.844,0,0,1-.194.373,0.75,0.75,0,0,1,.537-0.166,1.489,1.489,0,0,0,.348-0.276l-0.014-.13,0.145-.073a0.3,0.3,0,0,1,.094.024l-0.006.133a0.153,0.153,0,0,1,.116.066l-0.108.085c-0.023.011-.042,0.026-0.114,0.063-0.124.056-.239,0.127-0.363,0.183a0.576,0.576,0,0,0-.126.1,1.923,1.923,0,0,1-.191.185c-0.117.079-.229,0.158-0.345,0.238-0.042,0-.084-0.007-0.212-0.007a1.977,1.977,0,0,1-.271.1h0a0.668,0.668,0,0,1-.122-0.022,2.171,2.171,0,0,1-.62.332,5.667,5.667,0,0,0-.593.287,1.566,1.566,0,0,0-.171.131c-1.1.981-1.1,0.981-1.151,1.175,0.083-.03.193-0.072,0.275-0.1,0.014,0,.03,0,0.023.067-0.062.053-.149,0.12-0.217,0.169a0.337,0.337,0,0,0-.129.021,1.746,1.746,0,0,0-.832.741,2.069,2.069,0,0,1,.619-0.236c-0.148.124-.291,0.251-0.457,0.39a4.114,4.114,0,0,0-1.924,2.395l0.095,0.1a1.238,1.238,0,0,0-.008.263,0.377,0.377,0,0,0,.166-0.039c0.044-.007.094-0.015,0.136-0.024a0.234,0.234,0,0,1,.108.087,1.832,1.832,0,0,0-.15.234c0.05,0.063.12,0.148,0.172,0.208a0.388,0.388,0,0,0-.057.248,0.827,0.827,0,0,0,.716-0.3c0.033-.035.064-0.072,0.148-0.168,1.509-1.711,1.745-1.74,1.872-1.755a0.53,0.53,0,0,0,.1,0,2.581,2.581,0,0,0,.947-0.51c0.157-.164.317-0.327,0.5-0.5a8.013,8.013,0,0,0,1.367-1.02,1.8,1.8,0,0,0,.431-0.009,3.863,3.863,0,0,1,.327-0.307,0.265,0.265,0,0,1,.183.052,0.561,0.561,0,0,0-.255.334,1.668,1.668,0,0,0,.905-0.36c0.023,0,.044,0,0.125.009a0.444,0.444,0,0,0,.373-0.149c0.24-.169.518-0.275,0.77-0.427a1.324,1.324,0,0,0,.479-0.274l0.2-.057a1.328,1.328,0,0,1,.145-0.118,1.571,1.571,0,0,0,.6-0.4l0.018-.014a0.576,0.576,0,0,1,.069.014l0,0.013,0.009,0.009,0.008,0.006,0,0.035,0.008,0.01-0.014.049a0.457,0.457,0,0,0,.2.059l0.046,0.13c1.068,0.05,1.854-.715,2.809-0.988a2.428,2.428,0,0,0,.444-0.007,1.2,1.2,0,0,0,.5-0.281L38.9,13.277l-0.249.114-0.226.091A0.247,0.247,0,0,1,38.3,13.4c0-.045,0-0.1.007-0.147l-0.17-.013C38.1,13.223,38.04,13.2,38,13.184l-0.037-.127,0.093-.1a0.711,0.711,0,0,1,.3-0.171l0.044,0c0.233,0.014.448-.1,0.687-0.1a2.037,2.037,0,0,0-.291.33l0.068,0.112,0.124-.054c0.311-.252,1.139-0.219.939-0.747a1.077,1.077,0,0,0,.293-0.579c0.04,0,.094,0,0.138.006V11.9a1.181,1.181,0,0,0,.151-0.009,1.315,1.315,0,0,0,.349-0.26c0.028-.023.054-0.047,0.15-0.119a0.472,0.472,0,0,0,.172-0.206,0.557,0.557,0,0,0-.393.069c-0.064,0-.13-0.005-0.189-0.009a3.616,3.616,0,0,1,.377-0.162c0-.042,0-0.095,0-0.135l0.1-.046L41.3,11.034c-0.071.059-.147,0.12-0.223,0.18a2.262,2.262,0,0,0,.28,0,0.682,0.682,0,0,1,.255-0.082,0.165,0.165,0,0,1,.116.072c0.455-.083.47-0.236,0.478-0.4a1.7,1.7,0,0,1-.271.041,1.751,1.751,0,0,1,.578-0.159,2.254,2.254,0,0,1,.225-0.056c0.024,0,.055,0,0.1.005a0.428,0.428,0,0,0,.23-0.1l-0.058-.125a1.028,1.028,0,0,1,.417-0.36,0.875,0.875,0,0,1,.239-0.028,2.829,2.829,0,0,0,.3-0.26c0.055-.057.129-0.135,0.193-0.192-0.038,0-.092-0.013-0.134-0.016,0-.04,0-0.093,0-0.132l0.111-.077L44.2,9.316a1.216,1.216,0,0,1,.4-0.084c0.023,0,.055,0,0.1.114l-0.037.026a1.234,1.234,0,0,0-.474.328l0.094-.024c0.2-.144.4-0.283,0.7-0.459l0.13-.054a0.229,0.229,0,0,0,.061-0.139l-0.139.019a1.037,1.037,0,0,1-.133-0.015,1.036,1.036,0,0,1,.307-0.13h0.094a0.631,0.631,0,0,0,.229-0.132A0.75,0.75,0,0,0,45,8.8a2.444,2.444,0,0,1,.369-0.188c0.041-.014.041-0.014,0.658-0.287l0.1,0.005a1.167,1.167,0,0,1,.407-0.142,0.409,0.409,0,0,0,.131-0.031,9.313,9.313,0,0,1,1.421-.425L48.161,7.7l-0.228-.013-0.005-.02a1.37,1.37,0,0,1,.277-0.018,0.694,0.694,0,0,0,.073,0c0.175-.031.343-0.094,0.523-0.129a0.557,0.557,0,0,0,.094,0A1.329,1.329,0,0,0,49.3,7.4l0.086-.075c-0.042,0-.1,0-0.138,0l-0.068-.015H49.171l-0.128.02s-0.63.1-.921,0.137H48.1L48,7.48c-0.231.041-.457,0.1-0.684,0.149,0.266-.082.539-0.133,0.809-0.2,0.064-.021.13-0.04,0.22-0.064a3.174,3.174,0,0,0,.528-0.13H48.85c-0.327.016-.641,0.1-0.965,0.132,0.251-.054.251-0.054,0.394-0.082l0.069,0,0.134-.021,0.036-.034-0.145.01-0.206-.009-0.259.031H47.9l-0.09.009H47.8l-0.046.006c-0.044.005-.1,0.012-0.141,0.015C47.7,7.276,48,7.213,48.305,7.18a2.444,2.444,0,0,0,.3.008l0.14-.021c0.07,0,.138.006,0.305,0a2.9,2.9,0,0,1,.4-0.044c0.064-.014.131-0.028,0.2-0.041H49.567a0.441,0.441,0,0,1,.07-0.038l0.131-.028-0.089.01c-0.023,0-.037,0,0.034-0.029l-0.06,0H49.641L49.6,7H49.557l-0.128.011L49.342,7l0.127-.016s0.012,0,.123-0.007c0.044,0,.093-0.009.132-0.014,0.089,0,.181.011,0.279,0.014,0.078-.009.185-0.027,0.265-0.04l-0.014-.016,0.026-.009c-0.042,0-.1,0-0.137-0.008-0.1,0-.2.012-0.293,0.018l0.014,0-0.026,0c-0.233.017-.466,0.049-0.7,0.056-0.016,0-.031,0,0.072-0.018,0.043-.006.1-0.012,0.14-0.019l-0.271.017-0.056-.008H48.987l-0.05,0c-0.082.006-.194,0.017-0.275,0.024L48.6,6.981l-0.03,0L48.5,7,48.438,7l-0.06.007q-0.19.026-.376,0.046l0.042-.006,0.066-.008,0.062-.008,0,0h0.01l0.013,0,0.037-.006h0l0.05-.005,0.01,0,0.016,0H48.273l-0.06,0-0.069.008-0.2.024-0.062.007-0.174.027-0.011,0-0.03,0,0,0,0.012,0-0.012,0L47.631,7.1,47.5,7.121l-0.182.029-0.076.012-0.064.01-0.066.012L46.9,7.215l0.03-.011,0.024,0a0.3,0.3,0,0,1,.07-0.016l0.028-.007,0.005,0,0.071-.013c0.039-.013.1-0.024,0.141-0.034l0.016,0,0.06-.009,0.03-.005L47.434,7.1,47.472,7.1l0.141-.021H47.607l0.027-.005,0.016,0,0.028,0-0.023,0,0.1-.021-0.136.008L47.3,7.089l0.008,0-0.03,0L47.1,7.121l-0.048.007-0.082.013c-0.06.008-.133,0.021-0.2,0.029l-0.066.01c-0.064.012-.151,0.024-0.215,0.033l-0.1.014H46.38l0.008,0,0.012,0,0.062-.009L46.507,7.2l0.062-.008,0.032,0,0.058-.011,0.064-.011L46.9,7.137l0.028-.007,0.042,0L47.114,7.1l0.016,0,0.032-.006,0.052-.009,0.084-.01,0.068-.007,0.06-.011,0.006,0H47.412l-0.25.027c-0.143.02-.289,0.041-0.436,0.058l-0.09.012-0.074.008-0.073.012-0.383.05-0.094.014H45.968L46.1,7.213l0.1-.015,0.137-.019,0.251-.031,0.076-.008,0.074-.011L46.8,7.122l0.063-.01L46.975,7.1l0.068-.009,0.07-.009c0.066-.006.151-0.016,0.215-0.025l0.048-.006,0.067-.009,0.05-.006,0.059-.008-0.089.006-0.143.012-0.081.007-0.04,0-0.042,0H47.151l-0.038,0-0.04.006-0.092,0,0.011,0H46.949l-0.044,0-0.09.008-0.03,0-0.03,0h-0.02l-0.078.009L46.582,7.1l-0.076.009H46.5l-0.014,0v0h0l-0.027.005-0.048.007-0.073.009-0.072.01-0.071.01-0.088.012-0.081.014,0.01,0H46.04l-0.034,0-0.13.023-0.032.005-0.132.022-0.075.011-0.026,0,0.032-.006,0.01,0,0.075-.016L45.8,7.212,45.849,7.2,45.9,7.195l0.056-.011,0.016,0H45.963l0.124-.021L46.2,7.139l0.069-.011,0.074-.007,0.074-.009L46.47,7.1l-0.073,0-0.042.005-0.044,0-0.066.007-0.02,0-0.15.016c-0.108.009-.221,0.024-0.329,0.039l-0.07.012L45.6,7.2l-0.08.013c-0.208.027-.411,0.057-0.618,0.089l0.015-.013,0.05-.009,0.074-.012-0.016-.011-0.22.03c-0.138.016-.271,0.03-0.407,0.051-0.077.008-.177,0.024-0.247,0.033l-0.064.009H44.048l-0.021,0h0l-0.068.009L43.895,7.4l-0.064.009-0.021,0-0.1.014-0.06.011h0l-0.022,0c-0.083.014-.2,0.03-0.286,0.045L43.259,7.5,43,7.538a0.092,0.092,0,0,1-.05.02L42.9,7.569l-0.076.014,0.107,0,0.021,0,0.1-.016-0.409.079-0.074.016L42.5,7.671l-0.08.016c-0.115.023-.234,0.049-0.459,0.095l-0.273.054-0.08.015-0.081.011,0,0,0-.006-0.13.023-0.1.015,0.01-.02,0.03-.01L41.2,7.878,41.087,7.9,40.96,7.93c-0.045.009-.1,0.021-0.136,0.027l-0.042.01a0.387,0.387,0,0,0-.131.016l-0.142.007L40.467,8H40.441L40.4,8.01l-0.083.018-0.076.017-0.078.019-0.081.017-0.044.01-0.024-.005c-0.347.078-.689,0.19-1.031,0.285l0.05,0.009-0.13.043-0.012.007-0.131.053,0.019,0L38.9,8.462l0.044-.01a0.657,0.657,0,0,0,.14-0.013l0,0.007H39.1c-0.1.028-.2,0.056-0.325,0.092-0.044.01-.1,0.025-0.137,0.037l-0.044.008c-0.071.015-.166,0.038-0.233,0.056H38.344l0.028-.013h-0.01l0.048-.016L38.421,8.6l-0.012,0h0L38.369,8.6l-0.117.022H38.244L38.3,8.591h-0.01c-0.066.016-.149,0.04-0.215,0.058L38.04,8.643a3.306,3.306,0,0,0-.355.107l-0.069.023a2.014,2.014,0,0,1-.3.132l-0.063.017-0.068.018-0.074.023-0.07.024-0.056.027-0.067.025-0.066.024-0.072.024L36.745,9.1l-0.023.014-0.03.012-0.09.042-0.023.013-0.066.026-0.037.029v0h0.011l0.06-.018,0.071-.026c0.08-.031.2-0.071,0.282-0.1l0,0.034-0.023.013-0.01,0-0.03.016,0.024-.007c0.049-.016.1-0.034,0.149-0.048l0.033,0-0.049.019,0,0.025,0.078-.025,0.044-.011,0.048-.01,0.029,0H37.2L37.225,9.1,37.3,9.078l0.126-.028L37.313,9.1l-0.024.014L37.325,9.13h0.009l-0.1.055-0.066.025-0.023.013-0.006.008,0.07,0.008-0.006.006-0.1.056-0.023.029h0.023l-0.182.081-0.036.029V9.455l-0.149.071-0.475.184-0.124.056-0.057.029-0.058.03-0.008.009h0.021L36,9.856l-0.015.017L35.949,9.9c-0.052.025-.128,0.059-0.182,0.084l-0.066.029a1.58,1.58,0,0,1-.153.083l-0.052.03-0.084.044-0.06.03c-0.09.055-.182,0.095-0.275,0.142-0.078.038-.182,0.092-0.257,0.13l-0.03.023-0.146.091-0.133.059a2.62,2.62,0,0,0-.378.2c-0.112.054-.226,0.107-0.425,0.2-0.082.035-.185,0.086-0.259,0.124l0.076,0.008a1.969,1.969,0,0,1-.3.13l-0.124.041c-0.168.083-.324,0.18-0.494,0.263Z" transform="translate(-1.877 -1.362)"/><path class="a" d="M33.71,9.792V9.806l0.155-.049,0.271-.091-0.3.113a5.131,5.131,0,0,0,.874-0.268h0.006l0.6-.208,0.239-.1,0.21-.086-0.28.079-0.257.07L34.1,9.64a2.754,2.754,0,0,0-.409.158Z" transform="translate(-1.877 -1.362)"/><path class="a" d="M40.265,22.8l0.174-.166,0.041,0a0.408,0.408,0,0,0,.188-0.023l0.036-.112c0.032-.048.088-0.067,0.118-0.113l0.021-.03c0.034-.058.066-0.12,0.094-0.168l0.012-.03-0.221.065c-0.084.038-.148,0.111-0.233,0.151l-0.114.023-0.016.008-0.074.105a2.347,2.347,0,0,0-.24.185,0.449,0.449,0,0,0-.066.152l0.088,0.064A0.418,0.418,0,0,0,40.265,22.8Z" transform="translate(-1.877 -1.362)"/><path class="a" d="M43.795,27.761c0.092,0.02.092,0.02,0.184-.256,0.087,0,.171.006,0.248,0.01a1.612,1.612,0,0,0,.031-0.267,0.315,0.315,0,0,1-.134-0.365A1.014,1.014,0,0,0,43.9,26.7l-0.123.028a0.343,0.343,0,0,1-.236.329c-0.156.075-.156,0.075-0.126-0.718-0.122-.006-0.242-0.01-0.361-0.014,0.16-.491.2-0.623-0.159-0.7a0.55,0.55,0,0,1-.036-0.126l-0.111-.048c0.052-.167-0.008-0.211-0.154-0.317l0.011-.095a0.51,0.51,0,0,0-.274-0.486c-0.417-.041-0.417-0.041-0.5-0.2a0.585,0.585,0,0,1,.52-0.343c0.012-.039.022-0.079,0.038-0.147a2.105,2.105,0,0,1,.351-0.372c0.04-.16.08-0.315,0.119-0.474C42.5,23.01,42.136,23,41.787,22.97A1.138,1.138,0,0,0,42.05,22.6a0.9,0.9,0,0,1,.383-0.307c-0.042-.094-0.047-0.1-0.124-0.113l-0.114.005c-0.056,0-.107-0.005-0.175-0.005a3.05,3.05,0,0,0-.536.015,2.093,2.093,0,0,1-.257.444c-0.064.132-.071,0.276-0.124,0.409a1.975,1.975,0,0,1-.32.01c-0.076-.021-0.054-0.126-0.13-0.144l-0.1.006a0.428,0.428,0,0,0-.2.395c0.025,0.16.2,0.113,0.294,0.174l-0.081.1c-0.009.039-.022,0.079-0.04,0.134-0.068.115,0,.349-0.185,0.358-0.333.016-.341,0.145-0.349,0.239l-0.012.092c0.078,0,.153,0,0.261,0a0.161,0.161,0,0,1,.2-0.015,0.374,0.374,0,0,0,.06.221,0.666,0.666,0,0,0,.243-0.023,0.337,0.337,0,0,1,.114-0.208l0.073,0.126a2.851,2.851,0,0,0-.026.414,2.724,2.724,0,0,0-.305.185,0.226,0.226,0,0,0,.026.218L41.2,25.348l0.087-.12c0.317,0.191-.1.623,0.252,0.791L41.6,26.052a0.632,0.632,0,0,0-.095.343,0.215,0.215,0,0,1-.121.291,0.968,0.968,0,0,1-.634-0.132H40.7c-0.112-.012-0.112-0.012-0.242.117l-0.077.132c-0.072,0-.148-0.009-0.226-0.013l-0.064.124a1.178,1.178,0,0,0,.586.088,0.534,0.534,0,0,1-.086.256,0.579,0.579,0,0,0-.142.006,2.627,2.627,0,0,1-.389.23l-0.01,0H39.995l-0.011,0a0.372,0.372,0,0,0-.017.389,0.871,0.871,0,0,1,.616-0.03c0.192,0.144.433-.041,0.621,0.1a0.2,0.2,0,0,1-.086.229,1.081,1.081,0,0,1-.5.05,0.948,0.948,0,0,0-.307.2c-0.12.028-.248,0.026-0.367,0.047a0.525,0.525,0,0,1-.542.576c0.143,0.106.143,0.106,0.5,0.018a0.253,0.253,0,0,0,.2-0.174,0.337,0.337,0,0,1,.265.092c0.124,0.007.247,0.009,0.371,0.015a0.49,0.49,0,0,1,.138-0.351c0.255,0.046.512,0.021,0.77,0.057,0.182,0.025.2-.248,0.384-0.217s0.243,0.214.411,0.242l0.08,0a1.342,1.342,0,0,0,.587-0.071,0.448,0.448,0,0,1,.237-0.158,0.412,0.412,0,0,0,.289-0.059l0.056-.13a0.707,0.707,0,0,1-.136-0.328c0-.023.007-0.044,0.018-0.084A0.155,0.155,0,0,1,43.795,27.761Z" transform="translate(-1.877 -1.362)"/><path class="a" d="M36.645,18.109a1.34,1.34,0,0,0,.39,0,1.072,1.072,0,0,0,.445-0.324c0.048-.04.3-0.179,0.305-0.18a1.238,1.238,0,0,0,.324-0.07,0.936,0.936,0,0,1,.451-0.223,2.315,2.315,0,0,1,.812,0c0.071-.132.145-0.26,0.217-0.388a0.46,0.46,0,0,0,.026-0.193,0.374,0.374,0,0,0-.282-0.108,4.262,4.262,0,0,0,.417-0.606c-0.132,0-.267-0.011-0.4-0.015a0.428,0.428,0,0,0-.15.022c-0.255.073-.454,0.266-0.715,0.319a0.469,0.469,0,0,1-.242-0.081,0.721,0.721,0,0,0-.274-0.035c-0.271.01-.5,0.183-0.769,0.2l-0.312-.015c0.046-.064.092-0.124,0.137-0.187s0.092-.122.138-0.182c0.028-.062,0-0.128.025-0.191L37,15.888c-0.046.062-.093,0.122-0.141,0.184a0.876,0.876,0,0,0-1.217.424A2.869,2.869,0,0,0,36,16.419l0.184,0.005,0.095,0.249c0.032,0.135-.12.155-0.171,0.239a1.47,1.47,0,0,0-.8-0.04c-0.056.088-.124,0.2-0.18,0.293a1.956,1.956,0,0,1,.2-0.041c0.1,0.006.215,0.01,0.325,0.016l0,0.05c-0.092.13-.183,0.259-0.276,0.388l-0.056.2,0.163,0.008c0.183-.007.363-0.035,0.547-0.025,0.056,0,.113,0,0.181.009,0.168-.01.168-0.01,0.15,0.162A0.218,0.218,0,0,0,36.645,18.109Z" transform="translate(-1.877 -1.362)"/><path class="a" d="M39.46,26.935a0.582,0.582,0,0,0,.145-0.361c0.038-.168.106-0.33,0.136-0.5,0.021-.083.044-0.165,0.066-0.249a0.354,0.354,0,0,0,.371-0.191,0.266,0.266,0,0,0-.048-0.305,0.575,0.575,0,0,1,.016-0.3,0.256,0.256,0,0,0-.088-0.1c-0.042-.028-0.092.02-0.132-0.011l-0.076-.088-0.053,0a1.522,1.522,0,0,0-.315.081,0.892,0.892,0,0,0-.094.121c-0.04.028-.089,0.032-0.132,0.057l-0.1-.067a0.269,0.269,0,0,0-.068-0.159,0.509,0.509,0,0,0-.325-0.009,5.231,5.231,0,0,0-.2.611,2.035,2.035,0,0,1-.242.055,0.6,0.6,0,0,0-.259.072c-0.04.011-.04,0.011-0.146-0.089l-0.143.026c-0.092.291-.185,0.587-0.274,0.886a1.715,1.715,0,0,0,.392.015c-0.034.132-.075,0.262-0.117,0.395a0.437,0.437,0,0,0-.463.22l-0.023.032c-0.057.079-.031,0.188-0.086,0.269-0.036.056-.12,0.033-0.154,0.089l-0.037.063a0.215,0.215,0,0,0,.014.22c0.129,0.115.207,0.153,0.321,0.076a0.309,0.309,0,0,1,.384.043,0.81,0.81,0,0,0,.321-0.161,0.4,0.4,0,0,0,.064-0.149,0.352,0.352,0,0,1,.15-0.105c0.341,0.014.684,0.027,1.024,0.039,0.016-.06.032-0.122,0.046-0.182a1.332,1.332,0,0,1-.02-0.267A0.37,0.37,0,0,1,39.46,26.935Z" transform="translate(-1.877 -1.362)"/><path class="a" d="M4.03,53.059l-0.092-.013a0.647,0.647,0,0,0-.124-0.186l-0.045-.006c-0.072.064-.033,0.175-0.1,0.238L3.52,53.079a0.176,0.176,0,0,1-.054-0.136A0.276,0.276,0,0,0,3.4,52.759a0.25,0.25,0,0,1-.07-0.188,0.175,0.175,0,0,0-.052-0.15l-0.012-.007-0.094.012a0.455,0.455,0,0,1-.151-0.109,0.178,0.178,0,0,0-.13.061c-0.018.335-.041,0.668-0.056,1a2.415,2.415,0,0,0,.106.609L3.013,54c0.06,0.025.06,0.025,0.122-.241a0.2,0.2,0,0,1,.126-0.149,0.091,0.091,0,0,1,.09.065l0.037,0.049,0.044-.037c0.029-.041.029-0.041,0.1-0.023a0.4,0.4,0,0,0,.335-0.086c0.044-.05.054-0.05,0.093,0.012a0.488,0.488,0,0,0,.233.156l0.1,0.014a0.2,0.2,0,0,0,.092-0.138L4.4,53.607a0.8,0.8,0,0,1-.094-0.181,3.141,3.141,0,0,1,.026-0.48A0.436,0.436,0,0,1,4.03,53.059Z" transform="translate(-1.877 -1.362)"/><path class="a" d="M2.257,49.9a2.469,2.469,0,0,1,.006.723,1.938,1.938,0,0,0,.036.354l0.021-.018a0.448,0.448,0,0,1,.014.212,1.557,1.557,0,0,0,.052.541c0.1,0.027.215,0.055,0.357,0.083a5.884,5.884,0,0,0-.11-1.081l-0.052-.013L2.5,50.684l-0.038,0a6.491,6.491,0,0,1-.049-1.051,1.949,1.949,0,0,1,.006-0.342,0.446,0.446,0,0,0,0-.208l-0.03.021-0.008-.012H2.363c-0.022.051-.02,0.107-0.038,0.157l0-.092L2.3,49.131,2.287,49.1a8.025,8.025,0,0,0-.109,1.2A1.893,1.893,0,0,1,2.257,49.9Z" transform="translate(-1.877 -1.362)"/><path class="a" d="M2.343,53.973a1.144,1.144,0,0,0,.056-0.3,3.149,3.149,0,0,0,.011-0.383L2.375,53.22c-0.018-.058-0.014-0.118-0.03-0.179l-0.01-.021C2.3,53.009,2.257,53,2.223,52.988a1.328,1.328,0,0,0,.02.444l0.006,0,0.018-.021a1.285,1.285,0,0,1,.044.224c0.007,0.1-.01.206,0,0.313Z" transform="translate(-1.877 -1.362)"/><path class="a" d="M1.9,55.821l-0.014-.56-0.01-.4,0,0.027c-0.006.591,0.015,1.277,0.042,1.967l-0.008-.325C1.907,56.292,1.906,56.056,1.9,55.821Z" transform="translate(-1.877 -1.362)"/><path class="a" d="M5.385,37.267c0.226-.556.47-1.136,0.74-1.742,0.01-.024.021-0.05,0.032-0.074l0.06-.138L6.2,35.336a30.7,30.7,0,0,0-1.369,3.33l0.213-.518C5.148,37.864,5.265,37.568,5.385,37.267Z" transform="translate(-1.877 -1.362)"/><path class="a" d="M13.031,28.045l-0.087.48c0.014,0.077.064,0.063,0.474-.388l0.018-.017c-0.012-.049.036-0.144-0.04-0.147s-0.082-.005-0.084-0.029a0.468,0.468,0,0,1,.036-0.25c0.05-.119.048-0.141,0.026-0.145H13.3c-0.054.034-.127,0.081-0.177,0.117a0.672,0.672,0,0,1,.006.141C13.105,27.891,13.056,27.963,13.031,28.045Z" transform="translate(-1.877 -1.362)"/><path class="a" d="M15.494,27.495c0.055-.057.151-0.057,0.207-0.117a0.9,0.9,0,0,0,.293-0.512l-0.071-.027a0.736,0.736,0,0,0-.249.13c-0.19.189-.281,0.451-0.469,0.647-0.438.458-.963,0.83-1.391,1.3a2.93,2.93,0,0,0-.52.8c0.281,0.024.578,0.051,0.889,0.079,0.078,0.026.092,0.057,0.066,0.281a0.8,0.8,0,0,0,.042.572,0.329,0.329,0,0,1,.127-0.084,1.3,1.3,0,0,0,.435-0.679,1.766,1.766,0,0,1,.479-0.681l0.063-.069c0.032-.08.074-0.19,0.106-0.27l-0.037,0c-0.209.03-.146-0.467-0.144-0.473,0.026-.112.056-0.241-0.205-0.247A0.607,0.607,0,0,1,15.07,28,4.092,4.092,0,0,1,15.494,27.495Z" transform="translate(-1.877 -1.362)"/><path class="a" d="M2.746,47.185l0.118-.559,0.112-.69,0.2-1.043,0.176-.926c0.1-.394.2-0.786,0.326-1.258,0.068-.243.146-0.485,0.22-0.727l0.284-.84L4.319,40.9l0.289-.628L4.857,39.8l0.182-.243,0.191-.485,0.187-.283,0.24-.839,0.1-.384,0.2-.436,0.13-.417,0.177-.24-0.177.6L6.366,36.5,6.635,36l0.2-.317,0.552-1.07c0.06,0.012.126,0.024,0.191,0.034l0.3-.332,0.2-.044,0.167-.435,0.434-.881,0.467-.643c0.044,0.007.09,0.014,0.14,0.019l0.253-.374,0.182,0.061,0.4-.353,0.411-.5a0.8,0.8,0,0,1,.49.191c-0.066.078-.153,0.175-0.223,0.246a2.686,2.686,0,0,0-.311-0.026,2.055,2.055,0,0,0-.644.9L9.876,32.67l0.317-.334,0.215-.2,0.3-.15,0.393-.281,0.309-.114,0.506-.562,0.42-.388,0.3-.467-0.355.14-0.576.691-0.3,0-0.047-.326,0.077-.533,0.413-.88,0.452-.407,0.429-.685-0.226-.1-0.438.223-0.64.521-0.833.891-0.5.505,0.374-.488,0.443-.518,0.241-.25-0.056-.227c0.072,0.013.152,0.023,0.233,0.036l0.359-.452,0.423-.4,0.2-.011,0.428-.506,0.289-.17,0.26,0.032,0.54,0.027,0.2,0.158,0.253-.009,0.524-.393,0.612-.545,0.481-.057,0.355-.168,0.3-.241,0.033-.258,0.27-.24,0.392-.52-0.242-.118,0.174-.311-0.318-.029-0.472.281-0.343.23-0.035-.136,0.331-.361,0.435-.183,0.473-.149,0.387-.285-0.2-.051L17.4,23.655l-0.124-.2,0.136-.37,0.121-.37,0.209-.32,0.151-.048,0.24-.225,0.322-.552,0.369-.6,0.762-1.032,0.391-.459-0.768.564c-0.172.168-.346,0.339-0.518,0.512l-0.357.171-0.447.344-0.124-.044,0.295-.336,0.158-.258-0.239.088,0.614-.559c0.264-.25.523-0.5,0.794-0.74l0.419-.388L19.7,18.783l0.22-.3,0.381-.418,0.374-.45-0.289.19-0.071-.047,0.145-.159-0.1-.023-0.367.264-0.449.407-0.632.531-0.4.367-0.521.505-0.048-.012-0.512.483-0.308.259-0.189.229-0.293.373-0.61.646c-0.238.244-.469,0.491-0.7,0.741l-0.523.5-0.429.389-0.155.065-0.52.665c-0.235.278-.468,0.56-0.7,0.843l-0.371.5-0.327.4-0.417.49-0.136.065,0.518-.729,0.452-.63c0.14-.175.284-0.343,0.425-0.515l0.6-.722L14.27,23.1l0.067-.142,0.017-.049,0.187-.215,0.192-.221c-0.812.885-1.819,2.134-2.59,3.05a44.634,44.634,0,0,0-4.085,6.141l0.08-.143,0.015-.027c0.434-.771.907-1.561,1.424-2.363-0.6.882-.907,1.435-1.57,2.617l-0.018.029a46.694,46.694,0,0,0-3.158,6.889c-0.471,1.322-.99,3.121-1.394,4.465l-0.108.424v0.011l0.082-.311,0.026-.068-0.108.488-0.127.6c-0.054.224-.107,0.452-0.156,0.676l-0.072.4L2.887,45.8l-0.044.334-0.082.486-0.016.255-0.09.525,0.012,0.135Z" transform="translate(-1.877 -1.362)"/></g><path class="e" d="M133.6,51.674q0-9.249-4.2-13.173-3.5-3.223-10.371-3.224a16.894,16.894,0,0,0-10.791,3.784q-5.606,4.485-6.727,12.613H133.6Zm12.333,27.749-2.523,14.435a100.553,100.553,0,0,1-10.651,1.962,89.151,89.151,0,0,1-12.053.841q-15.836,0-25.927-6.587Q81.6,81.385,81.6,62.746t10.161-28.94q10.161-10.3,27.819-10.3,15.416,0,23.895,7.778T151.955,52.8q0,3.644-.14,5.325a20.039,20.039,0,0,0-.42,3.223H100.941q0,11.212,5.886,16.818t15.837,5.606A58.072,58.072,0,0,0,135,82.366Q137.94,81.806,145.928,79.423Z" transform="translate(-1.877 -1.362)"/><path class="e" d="M186.711,1.362q0,12.893-1.051,29.851t-2.172,35.036q-1.121,18.079-1.121,28.73H162.045q0-14.435,1.121-30.552t2.383-33.355q1.261-17.238,1.261-29.711h19.9Z" transform="translate(-1.877 -1.362)"/><path class="e" d="M248.515,25.747l0.841,14.435a48.534,48.534,0,0,0-8.245-2.873,29.918,29.918,0,0,0-6.867-.911q-11.387,0-11.375,6.867,0,3.364,13.244,14.085t13.244,20.391q0,8.409-7.5,13.664t-20.391,5.255a89.672,89.672,0,0,1-22.423-3.083l-1.682-15q12.473,5.185,20.181,5.185a14.111,14.111,0,0,0,7.638-1.822,5.918,5.918,0,0,0,2.873-5.326q0-1.962-18.219-18.639-8.409-7.708-8.409-15.276,0-10.231,8.222-15.136,6.832-4.064,18.242-4.064a81.63,81.63,0,0,1,9.623.561q4.73,0.56,11,1.682" transform="translate(-1.877 -1.362)"/><path class="e" d="M270.1,27.71q7.287-1.822,15.136-3.013a100.009,100.009,0,0,1,15-1.191q12.473,0,19.48,3.924,8.129,4.625,8.128,14.435,0,8.689-.7,19.761-1.682,26.488-1.682,33.355h-19.62q1.191-12.053,1.8-20.111t0.584-16.047q-1.682,1.682-17.939,6.867-12.753,4.064-12.753,11.492,0,4.344,3.153,6.306a15.032,15.032,0,0,0,8.059,1.962,31.3,31.3,0,0,0,6.657-.631,20.9,20.9,0,0,0,4.835-1.612l-3.5,12.333q-3.223.42-7.288,0.771t-5.326.35q-12.753,0-18.99-5.4T258.886,76.9q0-12.053,12.753-18.079,2.943-1.4,23.685-7.007,12.893-3.5,12.893-9.39a5.911,5.911,0,0,0-3.5-5.676A21.17,21.17,0,0,0,295.324,35a66.013,66.013,0,0,0-14.3,1.681,67.923,67.923,0,0,0-12.893,4.064Z" transform="translate(-1.877 -1.362)"/><path class="e" d="M341.992,94.979q1.822-19.06,2.873-36.228t1.051-33.565h19.62l-0.7,11.492a25.562,25.562,0,0,1,12.753-10.791A38.817,38.817,0,0,1,391.884,23.5q14.014,0,20.461,6.447,5.466,5.466,5.466,15.416,0,5.746-.561,16.818-1.261,24.946-1.261,32.794H395.107q1.541-10.231,2.453-20.671T398.471,54.2q0-6.867-3.083-10.511-3.643-4.2-11.492-4.2a17.983,17.983,0,0,0-11.772,3.784q-5.466,4.485-7.568,14.155A121.949,121.949,0,0,0,362.8,73.887q-0.491,9.88-.491,21.092H341.992Z" transform="translate(-1.877 -1.362)"/><polygon class="e" points="453.352 93.617 434.152 93.617 434.713 74.978 454.333 74.978 453.352 93.617"/></svg>